<svg width="32" height="32" viewBox="0 0 32 32" fill="none" xmlns="http://www.w3.org/2000/svg">
<g clip-path="url(#clip0)">
<path fill-rule="evenodd" clip-rule="evenodd" d="M32 16C32 24.8366 24.8366 32 16 32C7.16336 32 0 24.8366 0 16C0 7.16336 7.16336 0 16 0C24.8366 0 32 7.16336 32 16Z" fill="#F7931A"/>
<path fill-rule="evenodd" clip-rule="evenodd" d="M19.8091 20.6763C19.6759 21.1264 19.3761 21.4972 18.965 21.7206C18.5539 21.9443 18.0811 21.9936 17.6333 21.8595L13.1499 20.5176L14.1488 17.1475L18.6318 18.4896H18.632C19.5563 18.7662 20.0845 19.7472 19.8091 20.6763ZM21.3212 13.7699C21.5435 14.183 21.5925 14.6582 21.4593 15.1084C21.1838 16.0372 20.2073 16.5678 19.2834 16.2916H19.2833L14.8001 14.9497L15.7986 11.5796L20.2819 12.9216C20.7298 13.0556 21.0988 13.3568 21.3212 13.7699ZM23.3282 12.6787C22.8157 11.7268 21.9651 11.0324 20.9333 10.7236L20.3401 10.5462L21.1705 7.74396L19.0398 7.1062L18.2094 9.90844L16.3904 9.36396L17.2209 6.56172L16.7105 6.40892L14.6428 5.79004L13.8423 8.49116L11.3224 7.73692L10.6113 10.1369L13.1311 10.8913L10.5423 19.627L8.02244 18.8728L7.31128 21.2729L9.831 22.027L9.1555 24.3068L9.66575 24.4596L11.7335 25.0785L12.4391 22.6976L14.2624 23.2433L13.5569 25.6244L15.6789 26.2596L16.3845 23.8785L16.9818 24.0572C17.3626 24.1712 17.7516 24.2276 18.1381 24.2276C18.7988 24.2276 19.4533 24.0627 20.0508 23.7377C20.9979 23.2227 21.6887 22.368 21.9961 21.3307C22.3193 20.2396 22.1598 19.1188 21.6457 18.1963C22.5789 17.7068 23.3226 16.8545 23.6461 15.763C23.9535 14.7257 23.8405 13.6304 23.3282 12.6787Z" fill="white"/>
</g>
<defs>
<clipPath id="clip0">
<path d="M0 0H32V32H0V0Z" fill="white"/>
</clipPath>
</defs>
</svg>
