<svg width="1366" height="220" viewBox="0 0 1366 220" fill="none" xmlns="http://www.w3.org/2000/svg">
<path fill-rule="evenodd" clip-rule="evenodd" d="M-17.1044 71.9907L6.84333 67.4523H-16.0226V66.4523H12.1201L52.6908 58.7637H-10.9292L-17.9168 59.9427L-18.0832 58.9567L-16.0226 58.609V57.7637H-11.013L25.1886 51.6555H-16.0226V50.6555H31.1153L67.3226 44.5463H12.7951L-17.9238 49.2808L-18.0761 48.2925L6.23016 44.5463H-16.0226V43.5463H12.7185L42.1029 39.0175H-7.58602L-15.9527 40.1984L-16.0924 39.2083L-14.7409 39.0175H-16.0226V38.0175H-7.65625L18.8344 34.2784H-16.0226V33.2784H25.9191L52.4098 29.5392H6.63008L-14.9705 32.3002L-15.0972 31.3083L-1.25707 29.5392H-16.0226V28.5392H6.56642L35.8196 24.8001H-5.34229L-14.9729 25.9822L-15.0948 24.9897L-13.5501 24.8001H-16.0226V23.8001H-5.40344L12.1836 21.6413H-16.0226V20.6413H20.3303L44.3585 17.6918H9.03677C0.13929 18.6939 -8.16521 19.6296 -15.4722 20.4533L-15.5842 19.4595C-10.7525 18.9149 -5.48457 18.3213 0.102531 17.6918H-16.0226V16.6918H8.98064C15.1366 15.9986 21.5758 15.2736 28.1644 14.5321H-3.34273L-14.4868 15.7145L-14.5923 14.7201L-12.8207 14.5321H-16.0226V13.5321H-3.39564L9.50806 12.163H-16.0226V11.163H-15.4991L-15.5781 10.3756L-1.91033 9.00326H-16.0226V8.00326H8.04932L21.6945 6.63321H-3.84297L-15.4776 7.81616L-15.5787 6.82129L-13.7289 6.63321H-16.0226V5.63321H-3.89368L9.57168 4.26412H-16.0226V3.26412H-15.5519L-6.28229 2.28974H-16.0226V1.28974H146.62H177.981L181.164 0.899097L181.212 1.28974H252.549L255.308 0.90028L255.363 1.28974H286.891L289.412 0.901207L289.472 1.28974H323.691L325.987 0.902341L326.053 1.28974H355.967L360.088 0.508789L360.236 1.28974H395.832L397.649 0.906157L397.73 1.28974H430.656L432.24 0.9092L432.331 1.28974H466.968L468.31 0.913902L468.415 1.28974H539.089L539.932 0.934583L540.081 1.28974H610.662L610.991 1.01263L611.224 1.28974H682V1.00005H683V1.28974H753.776L754.009 1.01263L754.338 1.28974H824.919L825.068 0.934583L825.911 1.28974H896.585L896.69 0.913902L898.032 1.28974H932.669L932.76 0.9092L934.344 1.28974H967.27L967.351 0.906157L969.168 1.28974H1004.76L1004.91 0.508789L1009.03 1.28974H1038.95L1039.01 0.902341L1041.31 1.28974H1075.53L1075.59 0.901207L1078.11 1.28974H1109.64L1109.69 0.90028L1112.45 1.28974H1183.79L1183.84 0.899097L1187.02 1.28974H1218.38H1382.01V2.28974H1371.28L1380.55 3.26412H1382.01V4.26412H1355.43L1368.89 5.63321H1382.01V6.63321H1378.73L1380.58 6.82129L1380.48 7.81616L1368.84 6.63321H1343.31L1356.95 8.00326H1382.01V9.00326H1366.91L1380.58 10.3756L1380.5 11.163H1382.01V12.163H1355.49L1368.4 13.5321H1382.01V14.5321H1377.82L1379.59 14.7201L1379.49 15.7145L1368.34 14.5321H1336.84C1343.42 15.2736 1349.86 15.9986 1356.02 16.6918H1382.01V17.6918H1364.9C1370.48 18.3213 1375.75 18.9149 1380.58 19.4595L1380.47 20.4533C1373.17 19.6296 1364.86 18.6939 1355.96 17.6918H1320.64L1344.67 20.6413H1382.01V21.6413H1352.82L1370.4 23.8001H1382.01V24.8001H1378.55L1380.09 24.9897L1379.97 25.9822L1370.34 24.8001H1329.18L1358.43 28.5392H1382.01V29.5392H1366.26L1380.1 31.3083L1379.97 32.3002L1358.37 29.5392H1312.59L1339.08 33.2784H1382.01V34.2784H1346.17L1372.66 38.0175H1382.01V39.0175H1379.74L1381.09 39.2083L1380.95 40.1984L1372.59 39.0175H1322.9L1352.28 43.5463H1382.01V44.5463H1358.77L1383.08 48.2925L1382.92 49.2808L1352.21 44.5463H1297.68L1333.88 50.6555H1382.01V51.6555H1339.81L1376.01 57.7637H1382.01V58.7637H1381.94L1383.08 58.9567L1382.92 59.9427L1375.93 58.7637H1312.31L1352.88 66.4523H1382.01V67.4523H1358.16L1382.1 71.9907L1381.92 72.9732L1352.79 67.4523H1282.54L1322.7 75.9306H1382.01V76.9306H1327.43L1375.07 86.9883H1382.01V87.9883H1379.81L1382.61 88.5801L1382.4 89.5585L1374.96 87.9883H1295.3L1347.04 100.416H1382.01V101.416H1351.21L1381.63 108.724L1381.4 109.697L1346.92 101.416H1255.51L1311.16 117.003H1382.01V118.003H1314.73L1381.66 136.75H1382.01V136.849L1383.13 137.164L1382.87 138.127L1381.52 137.75H1269.22C1294.7 146.283 1319.13 154.466 1341.7 162.025H1382.01V163.025H1344.69C1357.34 167.264 1369.39 171.3 1380.69 175.084L1380.37 176.032C1368.24 171.967 1355.23 167.611 1341.54 163.025H1209.87L1284.38 194.409H1382.01V195.409H1286.76L1341.67 218.54L1341.28 219.461L1284.18 195.409H1136.08C1159.5 208.626 1174.53 217.194 1176.64 218.583L1176.08 219.417C1173.95 218.011 1158.33 209.111 1134.04 195.409H985.308C1001.09 208.665 1010.79 216.808 1011.06 217.03L1010.44 217.811C1010.15 217.582 1000.08 209.123 983.753 195.409H834.057L847.549 217.953L846.691 218.467L832.892 195.409H683V218.605H682V195.409H534.086L520.286 218.467L519.428 217.953L532.92 195.409H381.247C364.922 209.123 354.848 217.582 354.561 217.811L353.937 217.03C354.215 216.808 363.914 208.665 379.692 195.409H232.933C208.648 209.111 193.024 218.011 190.893 219.417L190.342 218.583C192.447 217.194 207.479 208.626 230.899 195.409H80.8202L23.7199 219.461L23.3317 218.54L78.2442 195.409H-16.0226V194.409H80.6182L155.125 163.025H23.4621C9.76926 167.611 -3.23556 171.967 -15.3693 176.032L-15.687 175.084C-4.39267 171.3 7.65671 167.264 20.3135 163.025H-16.0226V162.025H23.299C45.8667 154.466 70.3007 146.283 95.7821 137.75H-16.0226V137.611L-17.8651 138.127L-18.1348 137.164L50.2724 118.003H-16.0226V117.003H53.8426L109.494 101.416H18.0756L-16.4002 109.697L-16.6337 108.724L13.7938 101.416H-16.0226V100.416H17.9572L69.6983 87.9883H-9.96485L-17.402 89.5585L-17.6086 88.5801L-14.8057 87.9883H-16.0226V86.9883H-10.0693L37.5677 76.9306H-16.0226V75.9306H42.3041L82.4606 67.4523H12.214L-16.9182 72.9732L-17.1044 71.9907ZM1134.31 194.409H1281.81L1207.3 163.025H1078.51C1099.78 174.964 1118.8 185.658 1134.31 194.409ZM1076.47 163.025C1097.67 174.924 1116.67 185.611 1132.27 194.409H984.117C973.83 185.766 961.088 175.06 946.766 163.025H1076.47ZM1076.73 162.025H1204.92L1147.29 137.75H1033.45C1048.56 146.219 1063.1 154.371 1076.73 162.025ZM1031.4 137.75C1046.5 146.212 1061.04 154.363 1074.69 162.025H945.576C936.493 154.392 926.791 146.238 916.691 137.75H1031.4ZM1031.67 136.75H1144.92L1100.42 118.003H998.2C1007.82 123.39 1017.32 128.71 1026.62 133.921C1028.31 134.867 1029.99 135.81 1031.67 136.75ZM996.153 118.003C1006.31 123.688 1016.33 129.301 1026.13 134.793C1027.3 135.447 1028.46 136.099 1029.62 136.75H915.501C908.239 130.647 900.777 124.376 893.196 118.003H996.153ZM996.414 117.003H1098.04L1061.04 101.416H968.568C977.916 106.647 987.219 111.855 996.414 117.003ZM966.52 101.416C975.865 106.645 985.168 111.853 994.367 117.003H892.006L873.46 101.416H966.52ZM966.781 100.416H1058.66L1029.16 87.9883H944.568C951.977 92.1327 959.391 96.2811 966.781 100.416ZM942.52 87.9883C949.926 92.1315 957.341 96.2798 964.733 100.416H872.27L857.484 87.9883H942.52ZM942.78 86.9883H1026.79L1002.91 76.9306H924.798C930.775 80.2734 936.775 83.6291 942.78 86.9883ZM922.749 76.9306C928.725 80.2726 934.725 83.6283 940.732 86.9883H856.294L844.328 76.9306H922.749ZM923.009 75.9306H1000.53L980.407 67.4523H907.846C912.877 70.2647 917.934 73.0927 923.009 75.9306ZM905.797 67.4523C910.826 70.2641 915.884 73.0921 920.96 75.9306H843.138L833.051 67.4523H905.797ZM906.058 66.4523H978.033L959.78 58.7637H892.304C896.859 61.31 901.446 63.8743 906.058 66.4523ZM890.254 58.7637C894.809 61.3094 899.396 63.8737 904.008 66.4523H831.861L822.714 58.7637H890.254ZM890.515 57.7637H957.406L942.905 51.6555H879.586C883.205 53.6779 886.849 55.7147 890.515 57.7637ZM877.536 51.6555C881.154 53.6775 884.799 55.7144 888.465 57.7637H821.524L814.257 51.6555H877.536ZM877.797 50.6555H940.531L926.028 44.5463H866.864C870.478 46.5658 874.124 48.603 877.797 50.6555ZM864.814 44.5463C868.427 46.5653 872.073 48.6025 875.747 50.6555H813.068L805.799 44.5463H864.814ZM865.075 43.5463H923.654L912.902 39.0175H856.969C859.651 40.516 862.354 42.026 865.075 43.5463ZM854.919 39.0175C857.601 40.5158 860.303 42.0257 863.025 43.5463H804.61L799.222 39.0175H854.919ZM855.179 38.0175H910.528L901.651 34.2784H848.486C850.702 35.5161 852.933 36.7627 855.179 38.0175ZM846.436 34.2784C848.651 35.5159 850.883 36.7625 853.129 38.0175H798.032L793.584 34.2784H846.436ZM846.696 33.2784H899.277L890.4 29.5392H840.002C842.216 30.7758 844.448 32.0224 846.696 33.2784ZM837.952 29.5392C840.165 30.7756 842.397 32.0222 844.646 33.2784H792.394L787.946 29.5392H837.952ZM838.212 28.5392H888.026L879.149 24.8001H831.518C833.729 26.0354 835.961 27.282 838.212 28.5392ZM829.467 24.8001C831.678 26.0351 833.91 27.2817 836.161 28.5392H786.756L782.307 24.8001H829.467ZM829.727 23.8001H876.775L871.65 21.6413H825.862C827.143 22.3568 828.432 23.0764 829.727 23.8001ZM823.811 21.6413C825.092 22.3567 826.381 23.0763 827.676 23.8001H781.118L778.55 21.6413H823.811ZM824.071 20.6413H869.276L862.274 17.6918H818.79C820.535 18.6666 822.296 19.6499 824.071 20.6413ZM816.739 17.6918C818.484 18.6664 820.245 19.6497 822.02 20.6413H777.36L773.851 17.6918H816.739ZM816.999 16.6918H859.9L854.773 14.5321H813.131C814.411 15.2471 815.701 15.967 816.999 16.6918ZM811.08 14.5321C812.36 15.2469 813.649 15.9669 814.948 16.6918H772.661L770.092 14.5321H811.08ZM811.34 13.5321H852.399L849.149 12.163H808.888C809.701 12.6172 810.519 13.0736 811.34 13.5321ZM806.837 12.163C807.65 12.6172 808.467 13.0735 809.289 13.5321H768.902L767.274 12.163H806.837ZM807.097 11.163H846.775L841.647 9.00326H803.229C804.508 9.71737 805.797 10.4373 807.097 11.163ZM801.177 9.00326C802.456 9.71722 803.746 10.4372 805.046 11.163H766.084L763.515 9.00326H801.177ZM801.437 8.00326H839.273L836.021 6.63321H798.983C799.797 7.08737 800.615 7.54406 801.437 8.00326ZM796.932 6.63321C797.745 7.0873 798.563 7.544 799.386 8.00326H762.325L760.695 6.63321H796.932ZM797.192 5.63321H833.647L830.396 4.26412H794.739C795.552 4.71777 796.37 5.17415 797.192 5.63321ZM792.688 4.26412C793.5 4.71769 794.318 5.17407 795.14 5.63321H759.506L757.877 4.26412H792.688ZM792.948 3.26412H828.022L825.709 2.28974H791.202C791.781 2.61306 792.363 2.93786 792.948 3.26412ZM789.15 2.28974C789.73 2.61302 790.311 2.93782 790.896 3.26412H756.687L755.528 2.28974H789.15ZM982.563 194.409H833.459L814.676 163.025H945.212C959.482 175.016 972.216 185.717 982.563 194.409ZM944.022 162.025H814.078L799.55 137.75H915.137C925.227 146.23 934.928 154.382 944.022 162.025ZM812.912 162.025L798.384 137.75H683V162.025H812.912ZM913.947 136.75H798.951L787.732 118.003H891.641C899.219 124.372 906.681 130.644 913.947 136.75ZM797.786 136.75L786.567 118.003H683V136.75H797.786ZM890.452 117.003H787.134L777.805 101.416H871.905L890.452 117.003ZM785.968 117.003L776.64 101.416H683V117.003H785.968ZM870.716 100.416H777.207L769.769 87.9883H855.929L870.716 100.416ZM776.041 100.416L768.604 87.9883H683V100.416H776.041ZM854.74 86.9883H769.171L763.151 76.9306H842.773L854.74 86.9883ZM768.005 86.9883L761.986 76.9306H683V86.9883H768.005ZM841.584 75.9306H762.553L757.479 67.4523H831.497L841.584 75.9306ZM761.388 75.9306L756.314 67.4523H683V75.9306H761.388ZM830.307 66.4523H756.881L752.279 58.7637H821.16L830.307 66.4523ZM755.715 66.4523L751.114 58.7637H683V66.4523H755.715ZM819.97 57.7637H751.681L748.025 51.6555H812.703L819.97 57.7637ZM750.515 57.7637L746.86 51.6555H683V57.7637H750.515ZM811.513 50.6555H747.427L743.771 44.5463H804.245L811.513 50.6555ZM746.261 50.6555L742.605 44.5463H683V50.6555H746.261ZM803.056 43.5463H743.172L740.462 39.0175H797.668L803.056 43.5463ZM742.007 43.5463L739.296 39.0175H683V43.5463H742.007ZM796.478 38.0175H739.863L737.625 34.2784H792.029L796.478 38.0175ZM738.698 38.0175L736.46 34.2784H683V38.0175H738.698ZM790.84 33.2784H737.027L734.789 29.5392H786.391L790.84 33.2784ZM735.862 33.2784L733.624 29.5392H683V33.2784H735.862ZM785.202 28.5392H734.191L731.953 24.8001H780.753L785.202 28.5392ZM733.025 28.5392L730.788 24.8001H683V28.5392H733.025ZM779.564 23.8001H731.355L730.063 21.6413H776.995L779.564 23.8001ZM730.189 23.8001L728.897 21.6413H683V23.8001H730.189ZM775.806 20.6413H729.464L727.699 17.6918H772.297L775.806 20.6413ZM728.299 20.6413L726.534 17.6918H683V20.6413H728.299ZM771.107 16.6918H727.1L725.808 14.5321H768.538L771.107 16.6918ZM725.935 16.6918L724.643 14.5321H683V16.6918H725.935ZM767.348 13.5321H725.209L724.39 12.163H765.72L767.348 13.5321ZM724.044 13.5321L723.225 12.163H683V13.5321H724.044ZM764.53 11.163H723.792L722.499 9.00326H761.961L764.53 11.163ZM722.626 11.163L721.334 9.00326H683V11.163H722.626ZM760.771 8.00326H721.901L721.081 6.63321H759.141L760.771 8.00326ZM720.735 8.00326L719.915 6.63321H683V8.00326H720.735ZM757.951 5.63321H720.482L719.663 4.26412H756.323L757.951 5.63321ZM719.317 5.63321L718.497 4.26412H683V5.63321H719.317ZM755.133 3.26412H719.064L718.481 2.28974H753.974L755.133 3.26412ZM717.899 3.26412L717.316 2.28974H683V3.26412H717.899ZM832.293 194.409L813.511 163.025H683V194.409H832.293ZM234.706 194.409H380.883C391.17 185.766 403.912 175.06 418.234 163.025H290.507C269.31 174.924 250.305 185.611 234.706 194.409ZM288.464 163.025C267.197 174.964 248.182 185.658 232.671 194.409H83.1943L157.701 163.025H288.464ZM292.288 162.025H419.424C428.507 154.392 438.209 146.238 448.309 137.75H335.573C320.474 146.212 305.939 154.363 292.288 162.025ZM333.528 137.75C318.415 146.219 303.88 154.371 290.245 162.025H160.075L217.705 137.75H333.528ZM337.358 136.75H449.499C456.761 130.647 464.223 124.376 471.804 118.003H370.824C360.671 123.688 350.651 129.301 340.849 134.793L337.358 136.75ZM368.778 118.003C359.157 123.39 349.661 128.71 340.36 133.921L335.312 136.75H220.079L264.583 118.003H368.778ZM372.61 117.003H472.994L491.54 101.416H400.458C391.113 106.645 381.809 111.853 372.61 117.003ZM398.41 101.416C389.062 106.647 379.759 111.855 370.563 117.003H266.957L303.962 101.416H398.41ZM402.245 100.416H492.73L507.516 87.9883H424.458C417.051 92.1315 409.636 96.2798 402.245 100.416ZM422.409 87.9883C415.001 92.1327 407.586 96.2811 400.197 100.416H306.336L335.84 87.9883H422.409ZM426.246 86.9883H508.706L520.672 76.9306H444.229C438.252 80.2726 432.252 83.6283 426.246 86.9883ZM442.18 76.9306C436.202 80.2734 430.202 83.6291 424.197 86.9883H338.214L362.091 76.9306H442.18ZM446.017 75.9306H521.862L531.949 67.4523H461.18C456.151 70.2641 451.093 73.0921 446.017 75.9306ZM459.131 67.4523C454.101 70.2647 449.043 73.0927 443.968 75.9306H364.465L384.593 67.4523H459.131ZM462.969 66.4523H533.139L542.286 58.7637H476.723C472.169 61.3094 467.581 63.8737 462.969 66.4523ZM474.674 58.7637C470.118 61.31 465.531 63.8743 460.92 66.4523H386.967L405.22 58.7637H474.674ZM478.512 57.7637H543.476L550.743 51.6555H489.441C485.823 53.6775 482.179 55.7144 478.512 57.7637ZM487.391 51.6555C483.773 53.6779 480.128 55.7147 476.463 57.7637H407.594L422.095 51.6555H487.391ZM491.231 50.6555H551.933L559.201 44.5463H502.163C498.55 46.5653 494.904 48.6025 491.231 50.6555ZM500.113 44.5463C496.499 46.5658 492.854 48.603 489.181 50.6555H424.469L438.972 44.5463H500.113ZM503.953 43.5463H560.39L565.778 39.0175H512.059L503.953 43.5463ZM510.008 39.0175L501.903 43.5463H441.346L452.098 39.0175H510.008ZM513.849 38.0175H566.968L571.416 34.2784H520.542L513.849 38.0175ZM518.491 34.2784L511.798 38.0175H454.472L463.349 34.2784H518.491ZM522.332 33.2784H572.606L577.054 29.5392H529.026L522.332 33.2784ZM526.975 29.5392L520.281 33.2784H465.723L474.6 29.5392H526.975ZM530.816 28.5392H578.244L582.693 24.8001H537.511L530.816 28.5392ZM535.46 24.8001L528.765 28.5392H476.974L485.851 24.8001H535.46ZM539.301 23.8001H583.882L586.45 21.6413H543.167L539.301 23.8001ZM541.116 21.6413L537.25 23.8001H488.225L493.35 21.6413H541.116ZM544.957 20.6413H587.64L591.149 17.6918H550.239L544.957 20.6413ZM548.188 17.6918L542.906 20.6413H495.724L502.726 17.6918H548.188ZM552.03 16.6918H592.339L594.908 14.5321H555.898L552.03 16.6918ZM553.847 14.5321L549.979 16.6918H505.1L510.227 14.5321H553.847ZM557.689 13.5321H596.098L597.726 12.163H560.141L557.689 13.5321ZM558.09 12.163L555.637 13.5321H512.601L515.851 12.163H558.09ZM561.932 11.163H598.916L601.485 9.00326H565.8L561.932 11.163ZM563.749 9.00326L559.881 11.163H518.225L523.353 9.00326H563.749ZM567.592 8.00326H602.675L604.305 6.63321H570.046L567.592 8.00326ZM567.994 6.63321L565.54 8.00326H525.727L528.979 6.63321H567.994ZM571.837 5.63321H605.494L607.123 4.26412H574.29L571.837 5.63321ZM572.238 4.26412L569.786 5.63321H531.353L534.604 4.26412H572.238ZM576.081 3.26412H608.313L609.472 2.28974H577.827L576.081 3.26412ZM575.775 2.28974L574.03 3.26412H536.978L539.291 2.28974H575.775ZM682 194.409H534.684L553.467 163.025H682V194.409ZM682 162.025H554.065L568.593 137.75H682V162.025ZM552.9 162.025L567.428 137.75H449.863C439.773 146.23 430.072 154.382 420.978 162.025H552.9ZM682 136.75H569.192L580.411 118.003H682V136.75ZM568.026 136.75L579.245 118.003H473.359C465.781 124.372 458.319 130.644 451.053 136.75H568.026ZM682 117.003H581.009L590.338 101.416H682V117.003ZM579.844 117.003L589.172 101.416H493.095L474.548 117.003H579.844ZM682 100.416H590.936L598.374 87.9883H682V100.416ZM589.771 100.416L597.208 87.9883H509.071L494.284 100.416H589.771ZM682 86.9883H598.972L604.992 76.9306H682V86.9883ZM597.807 86.9883L603.826 76.9306H522.227L510.26 86.9883H597.807ZM682 75.9306H605.59L610.664 67.4523H682V75.9306ZM604.425 75.9306L609.499 67.4523H533.503L523.416 75.9306H604.425ZM682 66.4523H611.262L615.864 58.7637H682V66.4523ZM610.097 66.4523L614.698 58.7637H543.84L534.693 66.4523H610.097ZM682 57.7637H616.462L620.118 51.6555H682V57.7637ZM615.297 57.7637L618.952 51.6555H552.297L545.03 57.7637H615.297ZM682 50.6555H620.716L624.372 44.5463H682V50.6555ZM619.551 50.6555L623.207 44.5463H560.755L553.487 50.6555H619.551ZM682 43.5463H624.971L627.681 39.0175H682V43.5463ZM623.806 43.5463L626.516 39.0175H567.332L561.945 43.5463H623.806ZM682 38.0175H628.28L630.518 34.2784H682V38.0175ZM627.114 38.0175L629.352 34.2784H572.971L568.522 38.0175H627.114ZM682 33.2784H631.116L633.354 29.5392H682V33.2784ZM629.951 33.2784L632.188 29.5392H578.609L574.16 33.2784H629.951ZM682 28.5392H633.952L636.19 24.8001H682V28.5392ZM632.787 28.5392L635.025 24.8001H584.247L579.798 28.5392H632.787ZM682 23.8001H636.788L638.08 21.6413H682V23.8001ZM635.623 23.8001L636.915 21.6413H588.005L585.436 23.8001H635.623ZM682 20.6413H638.679L640.444 17.6918H682V20.6413ZM637.513 20.6413L639.279 17.6918H592.703L589.194 20.6413H637.513ZM682 16.6918H641.043L642.335 14.5321H682V16.6918ZM639.877 16.6918L641.17 14.5321H596.462L593.893 16.6918H639.877ZM682 13.5321H642.934L643.753 12.163H682V13.5321ZM641.768 13.5321L642.587 12.163H599.28L597.652 13.5321H641.768ZM682 11.163H644.351L645.644 9.00326H682V11.163ZM643.186 11.163L644.479 9.00326H603.039L600.47 11.163H643.186ZM682 8.00326H646.242L647.062 6.63321H682V8.00326ZM645.077 8.00326L645.897 6.63321H605.859L604.229 8.00326H645.077ZM682 5.63321H647.661L648.48 4.26412H682V5.63321ZM646.495 5.63321L647.315 4.26412H608.677L607.049 5.63321H646.495ZM682 3.26412H649.079L649.662 2.28974H682V3.26412ZM647.913 3.26412L648.496 2.28974H611.026L609.867 3.26412H647.913ZM533.519 194.409L552.301 163.025H419.788C405.518 175.016 392.784 185.717 382.437 194.409H533.519ZM1370.99 3.26412L1361.72 2.28974H1336.01L1345.59 3.26412H1370.99ZM1300.05 2.28974H1326.12L1335.71 3.26412H1309.75L1300.05 2.28974ZM1319.71 4.26412H1345.54L1359.01 5.63321H1333.35L1319.71 4.26412ZM1378.41 11.163L1356.9 9.00326H1325.71L1346.07 11.163H1378.41ZM1346.94 8.00326L1333.3 6.63321H1303.37L1316.29 8.00326H1346.94ZM1323.34 5.63321L1309.7 4.26412H1281.04L1293.95 5.63321H1323.34ZM1299.74 3.26412L1290.04 2.28974H1262.44L1271.62 3.26412H1299.74ZM1227.64 2.28974H1252.96L1262.14 3.26412H1236.41C1233.08 2.89334 1230.13 2.56593 1227.64 2.28974ZM1245.37 4.26412H1271.57L1284.47 5.63321H1257.61C1253.27 5.14687 1249.17 4.68811 1245.37 4.26412ZM1266.54 6.63321H1293.9L1306.81 8.00326H1278.75C1274.56 7.53302 1270.48 7.07487 1266.54 6.63321ZM1287.66 9.00326H1316.23L1336.59 11.163H1306.88C1300.39 10.433 1293.94 9.70862 1287.66 9.00326ZM1315.78 12.163H1346.01L1358.92 13.5321H1327.95L1315.78 12.163ZM1347.08 16.6918C1340.85 15.9906 1334.42 15.266 1327.89 14.5321H1294.9L1312.49 16.6918H1347.08ZM1319 13.5321L1306.83 12.163H1275.6L1286.75 13.5321H1319ZM1297.93 11.163C1291.67 10.4598 1285.51 9.76764 1279.55 9.09912L1278.7 9.00326H1249.86L1267.45 11.163H1297.93ZM1269.78 8.00326C1265.54 7.52787 1261.45 7.06947 1257.56 6.63321H1230.55L1241.71 8.00326H1269.78ZM1248.62 5.63321C1244.17 5.13544 1240.08 4.67887 1236.44 4.27365L1236.35 4.26412H1211.25L1222.4 5.63321H1248.62ZM1227.35 3.26412C1225.83 3.09565 1224.48 2.94666 1223.32 2.81898C1221.75 2.6475 1220.53 2.51451 1219.69 2.42441C1219.27 2.37935 1218.94 2.34509 1218.71 2.32213C1218.56 2.30645 1218.46 2.29775 1218.42 2.29341L1218.39 2.29096C1218.38 2.29011 1218.38 2.28974 1218.38 2.28974H1195.17L1203.1 3.26412H1227.35ZM1153.07 2.28974H1186.96L1194.9 3.26412H1160.69L1153.07 2.28974ZM1168.52 4.26412H1203.04L1214.2 5.63321H1179.23L1168.52 4.26412ZM1187.05 6.63321H1222.34L1233.5 8.00326H1197.77L1187.05 6.63321ZM1205.59 9.00326H1241.65L1259.25 11.163H1222.49L1205.59 9.00326ZM1230.31 12.163H1267.39L1278.55 13.5321H1241.03L1230.31 12.163ZM1248.85 14.5321H1286.69L1304.29 16.6918H1265.75L1248.85 14.5321ZM1273.57 17.6918H1312.43L1336.46 20.6413H1296.64L1273.57 17.6918ZM1304.47 21.6413H1344.61L1362.2 23.8001H1321.36L1304.47 21.6413ZM1350.55 28.5392L1321.29 24.8001H1279.01L1305.51 28.5392H1350.55ZM1313.47 23.8001L1296.58 21.6413H1256.64L1271.93 23.8001H1313.47ZM1288.76 20.6413L1265.68 17.6918H1228.66L1249.55 20.6413H1288.76ZM1257.86 16.6918L1240.96 14.5321H1206.27L1221.57 16.6918H1257.86ZM1233.14 13.5321L1222.43 12.163H1189.49L1199.18 13.5321H1233.14ZM1214.6 11.163L1197.71 9.00326H1167.1L1182.4 11.163H1214.6ZM1189.88 8.00326L1179.16 6.63321H1150.31L1160.01 8.00326H1189.88ZM1171.34 5.63321L1160.63 4.26412H1133.52L1143.22 5.63321H1171.34ZM1152.81 3.26412L1145.18 2.28974H1119.54L1126.44 3.26412H1152.81ZM1084.6 2.28974H1112.38L1119.28 3.26412H1090.92L1084.6 2.28974ZM1097.41 4.26412H1126.37L1136.07 5.63321H1106.29L1097.41 4.26412ZM1112.78 6.63321H1143.15L1152.86 8.00326H1121.67L1112.78 6.63321ZM1128.16 9.00326H1159.94L1175.25 11.163H1142.17L1128.16 9.00326ZM1148.66 12.163H1182.33L1192.03 13.5321H1157.54L1148.66 12.163ZM1164.03 14.5321H1199.11L1214.42 16.6918H1178.04L1164.03 14.5321ZM1184.53 17.6918H1221.5L1242.4 20.6413H1203.67L1184.53 17.6918ZM1210.16 21.6413H1249.48L1264.78 23.8001H1224.16L1210.16 21.6413ZM1230.65 24.8001H1271.86L1298.35 28.5392H1254.91L1230.65 24.8001ZM1261.4 29.5392H1305.44L1331.93 33.2784H1285.66L1261.4 29.5392ZM1292.15 34.2784H1339.01L1365.5 38.0175H1316.41L1292.15 34.2784ZM1345.72 43.5463L1316.33 39.0175H1264.91L1291.75 43.5463H1345.72ZM1309.84 38.0175L1285.58 34.2784H1236.82L1258.98 38.0175H1309.84ZM1279.1 33.2784L1254.83 29.5392H1208.73L1230.9 33.2784H1279.1ZM1248.35 28.5392L1224.09 24.8001H1180.65L1202.81 28.5392H1248.35ZM1217.6 23.8001L1203.59 21.6413H1161.93L1174.72 23.8001H1217.6ZM1197.1 20.6413L1177.97 17.6918H1138.52L1156 20.6413H1197.1ZM1171.48 16.6918L1157.46 14.5321H1119.79L1132.59 16.6918H1171.48ZM1150.98 13.5321L1142.09 12.163H1105.75L1113.87 13.5321H1150.98ZM1135.6 11.163L1121.59 9.00326H1087.02L1099.82 11.163H1135.6ZM1115.1 8.00326L1106.21 6.63321H1072.98L1081.1 8.00326H1115.1ZM1099.73 5.63321L1090.84 4.26412H1058.94L1067.05 5.63321H1099.73ZM1084.35 3.26412L1078.03 2.28974H1047.24L1053.01 3.26412H1084.35ZM1014.31 2.28974H1041.22L1047 3.26412H1019.45L1014.31 2.28974ZM1024.73 4.26412H1052.93L1061.04 5.63321H1031.95L1024.73 4.26412ZM1037.23 6.63321H1066.97L1075.09 8.00326H1044.46L1037.23 6.63321ZM1049.74 9.00326H1081.01L1093.81 11.163H1061.13L1049.74 9.00326ZM1066.41 12.163H1099.74L1107.85 13.5321H1073.63L1066.41 12.163ZM1078.91 14.5321H1113.78L1126.58 16.6918H1090.31L1078.91 14.5321ZM1095.58 17.6918H1132.51L1149.99 20.6413H1111.15L1095.58 17.6918ZM1116.42 21.6413H1155.92L1168.71 23.8001H1127.81L1116.42 21.6413ZM1133.09 24.8001H1174.64L1196.8 28.5392H1152.82L1133.09 24.8001ZM1158.1 29.5392H1202.72L1224.89 33.2784H1177.83L1158.1 29.5392ZM1183.11 34.2784H1230.81L1252.97 38.0175H1202.84L1183.11 34.2784ZM1208.11 39.0175H1258.9L1285.74 43.5463H1232.01L1208.11 39.0175ZM1237.29 44.5463H1291.67L1327.87 50.6555H1269.52L1237.29 44.5463ZM1274.8 51.6555H1333.8L1370 57.7637H1307.03L1274.8 51.6555ZM1347.51 66.4523L1306.94 58.7637H1241.39L1277.8 66.4523H1347.51ZM1301.66 57.7637L1269.43 51.6555H1207.72L1236.65 57.7637H1301.66ZM1264.15 50.6555L1231.92 44.5463H1174.05L1202.98 50.6555H1264.15ZM1226.64 43.5463L1202.74 39.0175H1147.86L1169.31 43.5463H1226.64ZM1197.47 38.0175L1177.74 34.2784H1125.41L1143.12 38.0175H1197.47ZM1172.46 33.2784L1152.73 29.5392H1102.97L1120.68 33.2784H1172.46ZM1147.45 28.5392L1127.72 24.8001H1080.52L1098.23 28.5392H1147.45ZM1122.44 23.8001L1111.05 21.6413H1065.56L1075.79 23.8001H1122.44ZM1105.78 20.6413L1090.21 17.6918H1046.85L1060.82 20.6413H1105.78ZM1084.94 16.6918L1073.54 14.5321H1031.89L1042.12 16.6918H1084.94ZM1068.26 13.5321L1061.04 12.163H1020.67L1027.15 13.5321H1068.26ZM1055.76 11.163L1044.36 9.00326H1005.7L1015.93 11.163H1055.76ZM1039.09 8.00326L1031.86 6.63321H994.477L1000.97 8.00326H1039.09ZM1026.58 5.63321L1019.36 4.26412H983.256L989.74 5.63321H1026.58ZM1014.08 3.26412L1008.94 2.28974H973.904L978.519 3.26412H1014.08ZM938.508 2.28974H969.063L973.678 3.26412H942.564L938.508 2.28974ZM946.728 4.26412H978.415L984.899 5.63321H952.428L946.728 4.26412ZM956.591 6.63321H989.636L996.125 8.00326H962.295L956.591 6.63321ZM966.459 9.00326H1000.86L1011.09 11.163H975.45L966.459 9.00326ZM979.614 12.163H1015.83L1022.31 13.5321H985.314L979.614 12.163ZM989.477 14.5321H1027.05L1037.28 16.6918H998.469L989.477 14.5321ZM1002.63 17.6918H1042.01L1055.98 20.6413H1014.91L1002.63 17.6918ZM1019.08 21.6413H1060.72L1070.94 23.8001H1028.06L1019.08 21.6413ZM1032.23 24.8001H1075.68L1093.39 28.5392H1047.79L1032.23 24.8001ZM1051.96 29.5392H1098.13L1115.84 33.2784H1067.52L1051.96 29.5392ZM1071.69 34.2784H1120.57L1138.28 38.0175H1087.26L1071.69 34.2784ZM1091.42 39.0175H1143.02L1164.47 43.5463H1110.27L1091.42 39.0175ZM1114.44 44.5463H1169.21L1198.14 50.6555H1139.87L1114.44 44.5463ZM1144.04 51.6555H1202.88L1231.81 57.7637H1169.47L1144.04 51.6555ZM1173.63 58.7637H1236.55L1272.96 66.4523H1205.64L1173.63 58.7637ZM1209.8 67.4523H1277.7L1317.86 75.9306H1245.1L1209.8 67.4523ZM1249.26 76.9306H1322.59L1370.23 86.9883H1291.14L1249.26 76.9306ZM1342.76 100.416L1291.02 87.9883H1207.57L1251.94 100.416H1342.76ZM1286.86 86.9883L1244.98 76.9306H1168.09L1204 86.9883H1286.86ZM1240.82 75.9306L1205.52 67.4523H1134.25L1164.52 75.9306H1240.82ZM1201.36 66.4523L1169.35 58.7637H1103.23L1130.68 66.4523H1201.36ZM1165.18 57.7637L1139.75 51.6555H1077.85L1099.66 57.7637H1165.18ZM1135.59 50.6555L1110.16 44.5463H1052.47L1074.28 50.6555H1135.59ZM1105.99 43.5463L1087.14 39.0175H1032.73L1048.9 43.5463H1105.99ZM1082.97 38.0175L1067.41 34.2784H1015.81L1029.16 38.0175H1082.97ZM1063.24 33.2784L1047.68 29.5392H998.889L1012.24 33.2784H1063.24ZM1043.51 28.5392L1027.94 24.8001H981.97L995.319 28.5392H1043.51ZM1023.78 23.8001L1014.79 21.6413H970.692L978.399 23.8001H1023.78ZM1010.63 20.6413L998.35 17.6918H956.591L967.122 20.6413H1010.63ZM994.187 16.6918L985.195 14.5321H945.31L953.021 16.6918H994.187ZM981.032 13.5321L975.332 12.163H936.852L941.74 13.5321H981.032ZM971.169 11.163L962.177 9.00326H925.571L933.282 11.163H971.169ZM958.013 8.00326L952.309 6.63321H917.11L922.001 8.00326H958.013ZM948.146 5.63321L942.446 4.26412H908.651L913.539 5.63321H948.146ZM938.283 3.26412L934.226 2.28974H901.602L905.081 3.26412H938.283ZM864.118 2.28974H897.895L901.374 3.26412H867.068C865.929 2.887 864.943 2.56155 864.118 2.28974ZM870.086 4.26412H904.944L909.832 5.63321H874.208C872.714 5.13662 871.338 4.67976 870.086 4.26412ZM877.215 6.63321H913.402L918.293 8.00326H881.332C879.888 7.52277 878.516 7.06585 877.215 6.63321ZM884.334 9.00326H921.864L929.574 11.163H890.815C888.537 10.4035 886.375 9.68304 884.334 9.00326ZM893.814 12.163H933.145L938.033 13.5321H897.919L893.814 12.163ZM900.917 14.5321H941.603L949.314 16.6918H907.389C905.162 15.9487 903.004 15.2285 900.917 14.5321ZM910.385 17.6918H952.884L963.414 20.6413H919.219C916.174 19.6245 913.227 18.6408 910.385 17.6918ZM922.213 21.6413H966.984L974.692 23.8001H928.676L922.213 21.6413ZM931.67 24.8001H978.262L991.612 28.5392H942.861C939.024 27.2571 935.292 26.0099 931.67 24.8001ZM945.854 29.5392H995.182L1008.53 33.2784H957.041C953.226 32.0031 949.495 30.7561 945.854 29.5392ZM960.033 34.2784H1012.1L1025.45 38.0175H971.218L960.033 34.2784ZM974.209 39.0175H1029.02L1045.19 43.5463H987.754C983.153 42.0078 978.635 40.4974 974.209 39.0175ZM990.744 44.5463H1048.76L1070.57 50.6555H1009.01C1002.8 48.5771 996.703 46.5389 990.744 44.5463ZM1012 51.6555H1074.14L1095.95 57.7637H1030.26C1024.08 55.6945 1017.98 53.6569 1012 51.6555ZM1033.25 58.7637H1099.52L1126.97 66.4523H1056.23C1048.45 63.8495 1040.78 61.2839 1033.25 58.7637ZM1059.22 67.4523H1130.54L1160.81 75.9306H1084.56C1076.01 73.0698 1067.55 70.2404 1059.22 67.4523ZM1087.54 76.9306H1164.38L1200.29 86.9883H1117.6C1107.49 83.6053 1097.46 80.2477 1087.54 76.9306ZM1120.58 87.9883H1203.86L1248.23 100.416H1157.71C1145.29 96.2565 1132.88 92.1048 1120.58 87.9883ZM1160.7 101.416H1251.8L1307.45 117.003H1207.26C1191.82 111.835 1176.25 106.621 1160.7 101.416ZM1210.25 118.003H1311.02L1377.95 136.75H1266.23C1247.99 130.64 1229.23 124.358 1210.25 118.003ZM1338.55 162.025C1315.94 154.45 1291.51 146.268 1266.07 137.75H1149.87L1207.5 162.025H1338.55ZM1263.08 136.75C1244.82 130.635 1226.06 124.353 1207.1 118.003H1102.99L1147.5 136.75H1263.08ZM1204.11 117.003C1188.66 111.831 1173.09 106.618 1157.55 101.416H1063.61L1100.62 117.003H1204.11ZM1154.56 100.416C1142.13 96.2543 1129.73 92.1026 1117.43 87.9883H1031.74L1061.24 100.416H1154.56ZM1114.45 86.9883C1104.33 83.6038 1094.3 80.2461 1084.39 76.9306H1005.48L1029.36 86.9883H1114.45ZM1081.41 75.9306C1072.85 73.0685 1064.4 70.239 1056.07 67.4523H982.983L1003.11 75.9306H1081.41ZM1053.08 66.4523C1045.3 63.8481 1037.63 61.2825 1030.1 58.7637H962.356L980.609 66.4523H1053.08ZM1027.11 57.7637C1020.92 55.6934 1014.83 53.6558 1008.85 51.6555H945.481L959.982 57.7637H1027.11ZM1005.86 50.6555C999.64 48.5757 993.545 46.5375 987.591 44.5463H928.604L943.107 50.6555H1005.86ZM984.6 43.5463C979.996 42.0068 975.479 40.4963 971.055 39.0175H915.478L926.23 43.5463H984.6ZM968.064 38.0175L956.879 34.2784H904.227L913.104 38.0175H968.064ZM953.887 33.2784C950.068 32.0019 946.337 30.7548 942.699 29.5392H892.976L901.853 33.2784H953.887ZM939.706 28.5392C935.864 27.2554 932.131 26.0082 928.514 24.8001H881.725L890.602 28.5392H939.706ZM925.52 23.8001L919.056 21.6413H874.226L879.351 23.8001H925.52ZM916.062 20.6413C913.01 19.6223 910.063 18.6385 907.227 17.6918H864.85L871.852 20.6413H916.062ZM904.23 16.6918C901.998 15.9469 899.839 15.2266 897.757 14.5321H857.349L862.476 16.6918H904.23ZM894.759 13.5321L890.653 12.163H851.725L854.975 13.5321H894.759ZM887.653 11.163C885.359 10.3983 883.196 9.67772 881.17 9.00326H844.223L849.351 11.163H887.653ZM878.166 8.00326C876.708 7.518 875.334 7.06101 874.047 6.63321H838.597L841.849 8.00326H878.166ZM871.037 5.63321C869.495 5.12142 868.117 4.6643 866.908 4.26412H832.973L836.223 5.63321H871.037ZM863.881 3.26412C862.268 2.73311 861.256 2.40353 860.887 2.28974H828.285L830.599 3.26412H863.881ZM3.2835 2.28974L-5.98613 3.26412H19.4069L28.9902 2.28974H3.2835ZM38.8762 2.28974L29.2929 3.26412H55.2495L64.954 2.28974H38.8762ZM19.4576 4.26412L5.99228 5.63321H31.6542L45.2898 4.26412H19.4576ZM8.0994 9.00326L-13.4109 11.163H18.9331L39.2887 9.00326H8.0994ZM48.7137 8.00326H18.059L31.7043 6.63321H61.6264L48.7137 8.00326ZM71.0515 5.63321H41.6639L55.2996 4.26412H83.9552L71.0515 5.63321ZM93.3802 3.26412H65.2592L74.9637 2.28974H102.564L93.3802 3.26412ZM112.042 2.28974L102.858 3.26412H128.59C131.919 2.89334 134.866 2.56593 137.361 2.28974H112.042ZM93.4331 4.26412L80.5294 5.63321H107.388C111.732 5.14687 115.833 4.68811 119.628 4.26412H93.4331ZM71.1044 6.63321L58.1916 8.00326H86.2483C90.4385 7.53302 94.5231 7.07487 98.4631 6.63321H71.1044ZM48.7666 9.00326L28.411 11.163H58.1173C64.6111 10.433 71.0587 9.70862 77.3401 9.00326H48.7666ZM18.986 12.163L6.08228 13.5321H37.0512C41.0857 13.0782 45.1527 12.6207 49.223 12.163H18.986ZM52.5052 16.6918H17.9176C24.146 15.9906 30.5839 15.266 37.1073 14.5321H70.1L52.5052 16.6918ZM78.2467 13.5321H45.9971C50.0543 13.0758 54.1227 12.6183 58.1733 12.163H89.4002L78.2467 13.5321ZM97.5469 11.163H67.0713C73.3301 10.4598 79.4933 9.76764 85.45 9.09912L86.3042 9.00326H115.142L97.5469 11.163ZM123.288 8.00326H95.2184C99.4578 7.52787 103.548 7.06947 107.444 6.63321H134.45L123.288 8.00326ZM142.596 5.63321H116.381C120.833 5.13544 124.923 4.67887 128.56 4.27365L128.646 4.26412H153.75L142.596 5.63321ZM161.897 3.26412H137.648C139.17 3.09565 140.521 2.94666 141.684 2.81898C143.245 2.6475 144.468 2.51451 145.312 2.42441C145.734 2.37935 146.061 2.34509 146.288 2.32213C146.443 2.30645 146.537 2.29775 146.584 2.29341C146.612 2.29077 146.623 2.28974 146.62 2.28974H169.835L161.897 3.26412ZM178.043 2.28974L170.105 3.26412H204.306L211.929 2.28974H178.043ZM161.958 4.26412L150.804 5.63321H185.771L196.483 4.26412H161.958ZM142.658 6.63321L131.496 8.00326H167.229L177.948 6.63321H142.658ZM123.35 9.00326L105.755 11.163H142.509L159.406 9.00326H123.35ZM97.6081 12.163L86.4545 13.5321H123.975L134.686 12.163H97.6081ZM78.3078 14.5321L60.713 16.6918H99.2543L116.151 14.5321H78.3078ZM52.5663 17.6918L28.5381 20.6413H68.3559L91.4308 17.6918H52.5663ZM20.3914 21.6413L2.8044 23.8001H43.6431L60.5323 21.6413H20.3914ZM59.4945 28.5392H14.4536L43.7067 24.8001H85.9852L59.4945 28.5392ZM93.0699 23.8001H51.5302L68.4195 21.6413H108.364L93.0699 23.8001ZM115.449 20.6413H76.243L99.318 17.6918H136.345L115.449 20.6413ZM143.43 16.6918H107.141L124.038 14.5321H158.731L143.43 16.6918ZM165.815 13.5321H131.862L142.573 12.163H175.515L165.815 13.5321ZM182.6 11.163H150.396L167.293 9.00326H197.901L182.6 11.163ZM204.986 8.00326H175.117L185.835 6.63321H214.692L204.986 8.00326ZM221.777 5.63321H193.659L204.37 4.26412H231.476L221.777 5.63321ZM238.561 3.26412H212.193L219.816 2.28974H245.464L238.561 3.26412ZM252.619 2.28974L245.716 3.26412H274.081L280.403 2.28974H252.619ZM238.631 4.26412L228.932 5.63321H258.71L267.593 4.26412H238.631ZM221.847 6.63321L212.14 8.00326H243.332L252.221 6.63321H221.847ZM205.056 9.00326L189.755 11.163H222.831L236.844 9.00326H205.056ZM182.67 12.163L172.97 13.5321H207.459L216.342 12.163H182.67ZM165.886 14.5321L150.584 16.6918H186.958L200.971 14.5321H165.886ZM143.5 17.6918L122.604 20.6413H161.333L180.47 17.6918H143.5ZM115.519 21.6413L100.225 23.8001H140.838L154.845 21.6413H115.519ZM93.1401 24.8001L66.6494 28.5392H110.089L134.35 24.8001H93.1401ZM59.5647 29.5392L33.074 33.2784H79.34L103.601 29.5392H59.5647ZM25.9893 34.2784L-0.50132 38.0175H48.5911L72.8517 34.2784H25.9893ZM73.2493 43.5463H19.2834L48.6678 39.0175H100.09L73.2493 43.5463ZM106.017 38.0175H55.156L79.4166 34.2784H128.178L106.017 38.0175ZM134.105 33.2784H85.9049L110.166 29.5392H156.265L134.105 33.2784ZM162.192 28.5392H116.654L140.914 24.8001H184.353L162.192 28.5392ZM190.279 23.8001H147.403L161.41 21.6413H203.074L190.279 23.8001ZM209.001 20.6413H167.898L187.035 17.6918H226.481L209.001 20.6413ZM232.408 16.6918H193.523L207.536 14.5321H245.208L232.408 16.6918ZM251.135 13.5321H214.024L222.907 12.163H259.249L251.135 13.5321ZM265.176 11.163H229.396L243.409 9.00326H277.976L265.176 11.163ZM283.902 8.00326H249.897L258.786 6.63321H292.022L283.902 8.00326ZM297.949 5.63321H265.275L274.158 4.26412H306.063L297.949 5.63321ZM311.99 3.26412H280.646L286.968 2.28974H317.765L311.99 3.26412ZM323.775 2.28974L318 3.26412H345.549L350.69 2.28974H323.775ZM312.074 4.26412L303.959 5.63321H333.048L340.272 4.26412H312.074ZM298.033 6.63321L289.913 8.00326H320.541L327.771 6.63321H298.033ZM283.986 9.00326L271.186 11.163H303.868L315.265 9.00326H283.986ZM265.259 12.163L257.145 13.5321H291.367L298.592 12.163H265.259ZM251.218 14.5321L238.418 16.6918H274.694L286.09 14.5321H251.218ZM232.492 17.6918L215.011 20.6413H253.854L269.417 17.6918H232.492ZM209.084 21.6413L196.29 23.8001H237.186L248.577 21.6413H209.084ZM190.363 24.8001L168.202 28.5392H212.178L231.909 24.8001H190.363ZM162.276 29.5392L140.115 33.2784H187.171L206.902 29.5392H162.276ZM134.188 34.2784L112.028 38.0175H162.164L181.894 34.2784H134.188ZM106.101 39.0175L79.2598 43.5463H132.989L156.887 39.0175H106.101ZM73.3331 44.5463L37.1258 50.6555H95.476L127.713 44.5463H73.3331ZM31.1991 51.6555L-5.00252 57.7637H57.9676L90.1992 51.6555H31.1991ZM87.1969 66.4523H17.4908L58.0615 58.7637H123.613L87.1969 66.4523ZM128.349 57.7637H63.3383L95.5699 51.6555H157.28L128.349 57.7637ZM162.017 50.6555H100.847L133.083 44.5463H190.952L162.017 50.6555ZM195.689 43.5463H138.36L162.258 39.0175H217.139L195.689 43.5463ZM221.875 38.0175H167.534L187.265 34.2784H239.585L221.875 38.0175ZM244.322 33.2784H192.542L212.272 29.5392H262.032L244.322 33.2784ZM266.768 28.5392H217.549L237.279 24.8001H284.478L266.768 28.5392ZM289.215 23.8001H242.556L253.948 21.6413H299.439L289.215 23.8001ZM304.176 20.6413H259.224L274.788 17.6918H318.146L304.176 20.6413ZM322.882 16.6918H280.065L291.461 14.5321H333.111L322.882 16.6918ZM337.848 13.5321H296.738L303.962 12.163H344.332L337.848 13.5321ZM349.069 11.163H309.239L320.635 9.00326H359.298L349.069 11.163ZM364.034 8.00326H325.912L333.142 6.63321H370.523L364.034 8.00326ZM375.26 5.63321H338.418L345.643 4.26412H381.744L375.26 5.63321ZM386.481 3.26412H350.919L356.061 2.28974H391.096L386.481 3.26412ZM-5.22847 86.9883H73.8616L115.735 76.9306H42.4086L-5.22847 86.9883ZM47.1449 75.9306H119.899L155.197 67.4523H87.3014L47.1449 75.9306ZM92.0377 66.4523H159.36L191.371 58.7637H128.454L92.0377 66.4523ZM133.19 57.7637H195.534L220.965 51.6555H162.121L133.19 57.7637ZM166.858 50.6555H225.128L250.563 44.5463H195.793L166.858 50.6555ZM200.529 43.5463H254.726L273.581 39.0175H221.98L200.529 43.5463ZM226.716 38.0175H277.745L293.312 34.2784H244.426L226.716 38.0175ZM249.163 33.2784H297.475L313.043 29.5392H266.873L249.163 33.2784ZM271.609 28.5392H317.206L332.774 24.8001H289.319L271.609 28.5392ZM294.055 23.8001H336.937L345.925 21.6413H304.28L294.055 23.8001ZM309.017 20.6413H350.088L362.368 17.6918H322.986L309.017 20.6413ZM327.723 16.6918H366.531L375.523 14.5321H337.952L327.723 16.6918ZM342.688 13.5321H379.686L385.386 12.163H349.173L342.688 13.5321ZM353.909 11.163H389.55L398.541 9.00326H364.139L353.909 11.163ZM368.875 8.00326H402.705L408.409 6.63321H375.364L368.875 8.00326ZM380.101 5.63321H412.572L418.272 4.26412H386.585L380.101 5.63321ZM391.322 3.26412H422.436L426.492 2.28974H395.937L391.322 3.26412ZM113.064 100.416H22.239L73.9801 87.9883H157.434L113.064 100.416ZM161.004 86.9883H78.1434L120.017 76.9306H196.912L161.004 86.9883ZM200.482 75.9306H124.18L159.479 67.4523H230.752L200.482 75.9306ZM234.322 66.4523H163.642L195.652 58.7637H261.772L234.322 66.4523ZM265.342 57.7637H199.816L225.246 51.6555H287.15L265.342 57.7637ZM290.72 50.6555H229.41L254.845 44.5463H312.532L290.72 50.6555ZM316.102 43.5463H259.008L277.863 39.0175H332.271L316.102 43.5463ZM335.841 38.0175H282.027L297.594 34.2784H349.191L335.841 38.0175ZM352.761 33.2784H301.757L317.325 29.5392H366.111L352.761 33.2784ZM369.681 28.5392H321.488L337.055 24.8001H383.031L369.681 28.5392ZM386.601 23.8001H341.219L350.207 21.6413H394.308L386.601 23.8001ZM397.878 20.6413H354.37L366.65 17.6918H408.409L397.878 20.6413ZM411.979 16.6918H370.813L379.805 14.5321H419.69L411.979 16.6918ZM423.26 13.5321H383.968L389.668 12.163H428.148L423.26 13.5321ZM431.718 11.163H393.831L402.823 9.00326H439.429L431.718 11.163ZM442.999 8.00326H406.987L412.691 6.63321H447.891L442.999 8.00326ZM451.461 5.63321H416.854L422.554 4.26412H456.349L451.461 5.63321ZM459.919 3.26412H426.717L430.774 2.28974H463.398L459.919 3.26412ZM53.9801 118.003L-12.9485 136.75H98.7684C117.012 130.64 135.773 124.358 154.754 118.003H53.9801ZM57.5503 117.003H157.741C173.179 111.835 188.752 106.621 204.3 101.416H113.201L57.5503 117.003ZM116.771 100.416H207.288C219.713 96.2565 232.116 92.1048 244.415 87.9883H161.141L116.771 100.416ZM164.712 86.9883H247.403C257.511 83.6053 267.543 80.2477 277.455 76.9306H200.62L164.712 86.9883ZM204.19 75.9306H280.443C288.992 73.0698 297.448 70.2404 305.78 67.4523H234.46L204.19 75.9306ZM238.03 66.4523H308.769C316.548 63.8495 324.216 61.2839 331.75 58.7637H265.48L238.03 66.4523ZM269.05 57.7637H334.739C340.924 55.6945 347.016 53.6569 352.999 51.6555H290.858L269.05 57.7637ZM294.428 50.6555H355.989C362.203 48.5771 368.297 46.5389 374.256 44.5463H316.239L294.428 50.6555ZM319.81 43.5463H377.246C381.847 42.0078 386.365 40.4974 390.791 39.0175H335.979L319.81 43.5463ZM339.549 38.0175H393.782C397.581 36.7472 401.311 35.5003 404.967 34.2784H352.898L339.549 38.0175ZM356.469 33.2784H407.959C411.774 32.0031 415.505 30.7561 419.147 29.5392H369.818L356.469 33.2784ZM373.389 28.5392H422.139C425.976 27.2571 429.709 26.0099 433.33 24.8001H386.738L373.389 28.5392ZM390.308 23.8001H436.324L442.787 21.6413H398.016L390.308 23.8001ZM401.586 20.6413H445.782C448.826 19.6245 451.773 18.6408 454.615 17.6918H412.116L401.586 20.6413ZM415.686 16.6918H457.611C459.838 15.9487 461.996 15.2285 464.083 14.5321H423.397L415.686 16.6918ZM426.967 13.5321H467.081L471.186 12.163H431.855L426.967 13.5321ZM435.426 11.163H474.185C476.463 10.4035 478.625 9.68304 480.666 9.00326H443.137L435.426 11.163ZM446.707 8.00326H483.669C485.112 7.52277 486.484 7.06585 487.785 6.63321H451.598L446.707 8.00326ZM455.168 5.63321H490.792C492.286 5.13662 493.662 4.67976 494.914 4.26412H460.056L455.168 5.63321ZM463.627 3.26412H497.932C499.071 2.887 500.057 2.56155 500.882 2.28974H467.105L463.627 3.26412ZM501.119 3.26412C502.732 2.73311 503.744 2.40353 504.113 2.28974H536.715L534.401 3.26412H501.119ZM493.963 5.63321C495.505 5.12142 496.883 4.6643 498.092 4.26412H532.027L528.777 5.63321H493.963ZM486.834 8.00326C488.292 7.518 489.666 7.06101 490.953 6.63321H526.403L523.151 8.00326H486.834ZM477.347 11.163C479.641 10.3983 481.804 9.67772 483.83 9.00326H520.777L515.649 11.163H477.347ZM470.241 13.5321L474.347 12.163H513.275L510.025 13.5321H470.241ZM460.77 16.6918C463.002 15.9469 465.161 15.2266 467.243 14.5321H507.651L502.524 16.6918H460.77ZM448.938 20.6413C451.99 19.6223 454.937 18.6385 457.773 17.6918H500.15L493.148 20.6413H448.938ZM439.48 23.8001L445.944 21.6413H490.774L485.649 23.8001H439.48ZM425.294 28.5392C429.136 27.2554 432.869 26.0082 436.486 24.8001H483.275L474.398 28.5392H425.294ZM411.113 33.2784C414.932 32.0019 418.664 30.7548 422.301 29.5392H472.024L463.147 33.2784H411.113ZM396.936 38.0175C400.738 36.7463 404.468 35.4994 408.121 34.2784H460.773L451.896 38.0175H396.936ZM380.4 43.5463C385.004 42.0068 389.521 40.4963 393.945 39.0175H449.522L438.77 43.5463H380.4ZM359.142 50.6555C365.36 48.5757 371.455 46.5375 377.409 44.5463H436.396L421.893 50.6555H359.142ZM337.891 57.7637C344.08 55.6934 350.171 53.6558 356.152 51.6555H419.519L405.018 57.7637H337.891ZM311.921 66.4523C319.704 63.8481 327.372 61.2825 334.902 58.7637H402.644L384.391 66.4523H311.921ZM283.595 75.9306C292.147 73.0685 300.603 70.239 308.932 67.4523H382.017L361.889 75.9306H283.595ZM250.554 86.9883C260.666 83.6038 270.699 80.2461 280.606 76.9306H359.515L335.638 86.9883H250.554ZM210.438 100.416C222.87 96.2543 235.273 92.1026 247.566 87.9883H333.264L303.76 100.416H210.438ZM160.89 117.003C176.339 111.831 191.912 106.618 207.451 101.416H301.386L264.381 117.003H160.89ZM101.918 136.75C120.179 130.635 138.939 124.353 157.904 118.003H262.007L217.503 136.75H101.918ZM215.129 137.75H98.9314C73.4939 146.268 49.0636 154.45 26.4477 162.025H157.499L215.129 137.75Z" fill="url(#paint0_linear)"/>
<defs>
<linearGradient id="paint0_linear" x1="696.494" y1="551.595" x2="687.855" y2="21.708" gradientUnits="userSpaceOnUse">
<stop stop-color="#FF9900"/>
<stop offset="1" stop-color="#FF9900" stop-opacity="0"/>
</linearGradient>
</defs>
</svg>
