<svg width="72" height="72" viewBox="0 0 72 72" fill="none" xmlns="http://www.w3.org/2000/svg">
<path fill-rule="evenodd" clip-rule="evenodd" d="M72 36C72 55.8823 55.8823 72 36 72C16.1177 72 0 55.8823 0 36C0 16.1177 16.1177 0 36 0C55.8823 0 72 16.1177 72 36ZM64 36C64 51.464 51.464 64 36 64C20.536 64 8 51.464 8 36C8 20.536 20.536 8 36 8C51.464 8 64 20.536 64 36Z" fill="#4D2339"/>
<path fill-rule="evenodd" clip-rule="evenodd" d="M64 36C64 51.464 51.464 64 36 64C20.536 64 8 51.464 8 36C8 20.536 20.536 8 36 8C51.464 8 64 20.536 64 36ZM56 36C56 47.0457 47.0457 56 36 56C24.9543 56 16 47.0457 16 36C16 24.9543 24.9543 16 36 16C47.0457 16 56 24.9543 56 36Z" fill="#75203B"/>
<path d="M36 56C47.0457 56 56 47.0457 56 36C56 24.9543 47.0457 16 36 16C24.9543 16 16 24.9543 16 36C16 47.0457 24.9543 56 36 56Z" fill="#D1193E"/>
<path fill-rule="evenodd" clip-rule="evenodd" d="M30.3431 28.929C29.9526 28.5385 29.3195 28.5385 28.929 28.929C28.5386 29.3195 28.5386 29.9526 28.929 30.3431L34.586 36L28.929 41.6569C28.5386 42.0474 28.5386 42.6805 28.929 43.071C29.3195 43.4615 29.9526 43.4615 30.3431 43.071L36 37.414L41.657 43.071C42.0475 43.4615 42.6805 43.4615 43.071 43.071C43.4615 42.6805 43.4615 42.0474 43.071 41.6569L37.4141 36L43.071 30.3431C43.4615 29.9526 43.4615 29.3195 43.071 28.929C42.6805 28.5385 42.0475 28.5385 41.657 28.929L36 34.586L30.3431 28.929Z" fill="white"/>
</svg>
