<svg width="32" height="32" viewBox="0 0 32 32" fill="none" xmlns="http://www.w3.org/2000/svg">
<circle cx="16" cy="16" r="16" fill="#F8F8F8"/>
<path d="M9 17.0703C11.4668 18.4568 14.0408 19.9081 16.0287 21.0311L23 17.0703C20.4757 21.0392 18.3729 24.3432 16.0287 28C13.6807 24.3513 11.0875 20.3257 9 17.0703ZM9.26812 15.9757L16.0364 12.1527L22.7165 15.9473L16.0402 19.7743L9.26812 15.9757ZM16.0287 10.9284L9 14.8446L15.9981 4L23 14.8689L16.0287 10.9284Z" fill="#3AB83A"/>
<path d="M16.0287 21.0311L22.9999 17.0703C20.4757 21.0392 16.0287 28 16.0287 28V21.0311ZM16.0364 12.1527L22.7165 15.9473L16.0402 19.7743L16.0364 12.1527ZM16.0287 10.9284L15.998 4L22.9999 14.8689L16.0287 10.9284Z" fill="#0B8311"/>
<path d="M9.26831 15.9755L16.0366 16.5633L22.7167 15.9512L16.0404 19.7782L9.26831 15.9755Z" fill="#0B8311"/>
<path d="M16.0364 16.5633L22.7165 15.9512L16.0402 19.7782L16.0364 16.5633Z" fill="#146714"/>
</svg>
