<svg width="1366" height="233" viewBox="0 0 1366 233" fill="none" xmlns="http://www.w3.org/2000/svg">
<g clip-path="url(#clip0)">
<path fill-rule="evenodd" clip-rule="evenodd" d="M-17.1044 84.9907L6.84333 80.4523H-16.0226V79.4523H12.1201L52.6908 71.7637H-10.9292L-17.9168 72.9427L-18.0832 71.9567L-16.0226 71.609V70.7637H-11.013L25.1886 64.6555H-16.0226V63.6555H31.1153L67.3226 57.5463H12.7951L-17.9238 62.2808L-18.0761 61.2925L6.23016 57.5463H-16.0226V56.5463H12.7185L42.1029 52.0175H-7.58602L-15.9527 53.1984L-16.0924 52.2083L-14.7409 52.0175H-16.0226V51.0175H-7.65625L18.8344 47.2784H-16.0226V46.2784H25.9191L52.4098 42.5392H6.63008L-14.9705 45.3002L-15.0972 44.3083L-1.25707 42.5392H-16.0226V41.5392H6.56642L35.8196 37.8001H-5.34229L-14.9729 38.9822L-15.0948 37.9897L-13.5501 37.8001H-16.0226V36.8001H-5.40344L12.1836 34.6413H-16.0226V33.6413H20.3303L44.3585 30.6918H9.03677C0.13929 31.6939 -8.16521 32.6296 -15.4722 33.4533L-15.5842 32.4595C-10.7525 31.9149 -5.48457 31.3213 0.102531 30.6918H-16.0226V29.6918H8.98064C15.1366 28.9986 21.5758 28.2736 28.1644 27.5321H-3.34273L-14.4868 28.7145L-14.5923 27.7201L-12.8207 27.5321H-16.0226V26.5321H-3.39564L9.50806 25.163H-16.0226V24.163H-15.4991L-15.5781 23.3756L-1.91033 22.0033H-16.0226V21.0033H8.04932L21.6945 19.6332H-3.84297L-15.4776 20.8162L-15.5787 19.8213L-13.7289 19.6332H-16.0226V18.6332H-3.89368L9.57168 17.2641H-16.0226V16.2641H-15.5519L-6.28229 15.2897H-16.0226V14.2897H146.62H177.981L181.164 13.8991L181.212 14.2897H252.549L255.308 13.9003L255.363 14.2897H286.891L289.412 13.9012L289.472 14.2897H323.691L325.987 13.9023L326.053 14.2897H355.967L360.088 13.5088L360.236 14.2897H395.832L397.649 13.9062L397.73 14.2897H430.656L432.24 13.9092L432.331 14.2897H466.968L468.31 13.9139L468.415 14.2897H539.089L539.932 13.9346L540.081 14.2897H610.662L610.991 14.0126L611.224 14.2897H682V14H683V14.2897H753.776L754.009 14.0126L754.338 14.2897H824.919L825.068 13.9346L825.911 14.2897H896.585L896.69 13.9139L898.032 14.2897H932.669L932.76 13.9092L934.344 14.2897H967.27L967.351 13.9062L969.168 14.2897H1004.76L1004.91 13.5088L1009.03 14.2897H1038.95L1039.01 13.9023L1041.31 14.2897H1075.53L1075.59 13.9012L1078.11 14.2897H1109.64L1109.69 13.9003L1112.45 14.2897H1183.79L1183.84 13.8991L1187.02 14.2897H1218.38H1382.01V15.2897H1371.28L1380.55 16.2641H1382.01V17.2641H1355.43L1368.89 18.6332H1382.01V19.6332H1378.73L1380.58 19.8213L1380.48 20.8162L1368.84 19.6332H1343.31L1356.95 21.0033H1382.01V22.0033H1366.91L1380.58 23.3756L1380.5 24.163H1382.01V25.163H1355.49L1368.4 26.5321H1382.01V27.5321H1377.82L1379.59 27.7201L1379.49 28.7145L1368.34 27.5321H1336.84C1343.42 28.2736 1349.86 28.9986 1356.02 29.6918H1382.01V30.6918H1364.9C1370.48 31.3213 1375.75 31.9149 1380.58 32.4595L1380.47 33.4533C1373.17 32.6296 1364.86 31.6939 1355.96 30.6918H1320.64L1344.67 33.6413H1382.01V34.6413H1352.82L1370.4 36.8001H1382.01V37.8001H1378.55L1380.09 37.9897L1379.97 38.9822L1370.34 37.8001H1329.18L1358.43 41.5392H1382.01V42.5392H1366.26L1380.1 44.3083L1379.97 45.3002L1358.37 42.5392H1312.59L1339.08 46.2784H1382.01V47.2784H1346.17L1372.66 51.0175H1382.01V52.0175H1379.74L1381.09 52.2083L1380.95 53.1984L1372.59 52.0175H1322.9L1352.28 56.5463H1382.01V57.5463H1358.77L1383.08 61.2925L1382.92 62.2808L1352.21 57.5463H1297.68L1333.88 63.6555H1382.01V64.6555H1339.81L1376.01 70.7637H1382.01V71.7637H1381.94L1383.08 71.9567L1382.92 72.9427L1375.93 71.7637H1312.31L1352.88 79.4523H1382.01V80.4523H1358.16L1382.1 84.9907L1381.92 85.9732L1352.79 80.4523H1282.54L1322.7 88.9306H1382.01V89.9306H1327.43L1375.07 99.9883H1382.01V100.988H1379.81L1382.61 101.58L1382.4 102.558L1374.96 100.988H1295.3L1347.04 113.416H1382.01V114.416H1351.21L1381.63 121.724L1381.4 122.697L1346.92 114.416H1255.51L1311.16 130.003H1382.01V131.003H1314.73L1381.66 149.75H1382.01V149.849L1383.13 150.164L1382.87 151.127L1381.52 150.75H1269.22C1294.7 159.283 1319.13 167.466 1341.7 175.025H1382.01V176.025H1344.69C1357.34 180.264 1369.39 184.3 1380.69 188.084L1380.37 189.032C1368.24 184.967 1355.23 180.611 1341.54 176.025H1209.87L1284.38 207.409H1382.01V208.409H1286.76L1341.67 231.54L1341.28 232.461L1284.18 208.409H1136.08C1159.5 221.626 1174.53 230.194 1176.64 231.583L1176.08 232.417C1173.95 231.011 1158.33 222.111 1134.04 208.409H985.308C1001.09 221.665 1010.79 229.808 1011.06 230.03L1010.44 230.811C1010.15 230.582 1000.08 222.123 983.753 208.409H834.057L847.549 230.953L846.691 231.467L832.892 208.409H683V231.605H682V208.409H534.086L520.286 231.467L519.428 230.953L532.92 208.409H381.247C364.922 222.123 354.848 230.582 354.561 230.811L353.937 230.03C354.215 229.808 363.914 221.665 379.692 208.409H232.933C208.648 222.111 193.024 231.011 190.893 232.417L190.342 231.583C192.447 230.194 207.479 221.626 230.899 208.409H80.8202L23.7199 232.461L23.3317 231.54L78.2442 208.409H-16.0226V207.409H80.6182L155.125 176.025H23.4621C9.76926 180.611 -3.23556 184.967 -15.3693 189.032L-15.687 188.084C-4.39267 184.3 7.65671 180.264 20.3135 176.025H-16.0226V175.025H23.299C45.8667 167.466 70.3007 159.283 95.7821 150.75H-16.0226V150.611L-17.8651 151.127L-18.1348 150.164L50.2724 131.003H-16.0226V130.003H53.8426L109.494 114.416H18.0756L-16.4002 122.697L-16.6337 121.724L13.7938 114.416H-16.0226V113.416H17.9572L69.6983 100.988H-9.96485L-17.402 102.558L-17.6086 101.58L-14.8057 100.988H-16.0226V99.9883H-10.0693L37.5677 89.9306H-16.0226V88.9306H42.3041L82.4606 80.4523H12.214L-16.9182 85.9732L-17.1044 84.9907ZM1134.31 207.409H1281.81L1207.3 176.025H1078.51C1099.78 187.964 1118.8 198.658 1134.31 207.409ZM1076.47 176.025C1097.67 187.924 1116.67 198.611 1132.27 207.409H984.117C973.83 198.766 961.088 188.06 946.766 176.025H1076.47ZM1076.73 175.025H1204.92L1147.29 150.75H1033.45C1048.56 159.219 1063.1 167.371 1076.73 175.025ZM1031.4 150.75C1046.5 159.212 1061.04 167.363 1074.69 175.025H945.576C936.493 167.392 926.791 159.238 916.691 150.75H1031.4ZM1031.67 149.75H1144.92L1100.42 131.003H998.2C1007.82 136.39 1017.32 141.71 1026.62 146.921C1028.31 147.867 1029.99 148.81 1031.67 149.75ZM996.153 131.003C1006.31 136.688 1016.33 142.301 1026.13 147.793C1027.3 148.447 1028.46 149.099 1029.62 149.75H915.501C908.239 143.647 900.777 137.376 893.196 131.003H996.153ZM996.414 130.003H1098.04L1061.04 114.416H968.568C977.916 119.647 987.219 124.855 996.414 130.003ZM966.52 114.416C975.865 119.645 985.168 124.853 994.367 130.003H892.006L873.46 114.416H966.52ZM966.781 113.416H1058.66L1029.16 100.988H944.568C951.977 105.133 959.391 109.281 966.781 113.416ZM942.52 100.988C949.926 105.131 957.341 109.28 964.733 113.416H872.27L857.484 100.988H942.52ZM942.78 99.9883H1026.79L1002.91 89.9306H924.798C930.775 93.2734 936.775 96.6291 942.78 99.9883ZM922.749 89.9306C928.725 93.2726 934.725 96.6283 940.732 99.9883H856.294L844.328 89.9306H922.749ZM923.009 88.9306H1000.53L980.407 80.4523H907.846C912.877 83.2647 917.934 86.0927 923.009 88.9306ZM905.797 80.4523C910.826 83.2641 915.884 86.0921 920.96 88.9306H843.138L833.051 80.4523H905.797ZM906.058 79.4523H978.033L959.78 71.7637H892.304C896.859 74.31 901.446 76.8743 906.058 79.4523ZM890.254 71.7637C894.809 74.3094 899.396 76.8737 904.008 79.4523H831.861L822.714 71.7637H890.254ZM890.515 70.7637H957.406L942.905 64.6555H879.586C883.205 66.6779 886.849 68.7147 890.515 70.7637ZM877.536 64.6555C881.154 66.6775 884.799 68.7144 888.465 70.7637H821.524L814.257 64.6555H877.536ZM877.797 63.6555H940.531L926.028 57.5463H866.864C870.478 59.5658 874.124 61.603 877.797 63.6555ZM864.814 57.5463C868.427 59.5653 872.073 61.6025 875.747 63.6555H813.068L805.799 57.5463H864.814ZM865.075 56.5463H923.654L912.902 52.0175H856.969C859.651 53.516 862.354 55.026 865.075 56.5463ZM854.919 52.0175C857.601 53.5158 860.303 55.0257 863.025 56.5463H804.61L799.222 52.0175H854.919ZM855.179 51.0175H910.528L901.651 47.2784H848.486C850.702 48.5161 852.933 49.7627 855.179 51.0175ZM846.436 47.2784C848.651 48.5159 850.883 49.7625 853.129 51.0175H798.032L793.584 47.2784H846.436ZM846.696 46.2784H899.277L890.4 42.5392H840.002C842.216 43.7758 844.448 45.0224 846.696 46.2784ZM837.952 42.5392C840.165 43.7756 842.397 45.0222 844.646 46.2784H792.394L787.946 42.5392H837.952ZM838.212 41.5392H888.026L879.149 37.8001H831.518C833.729 39.0354 835.961 40.282 838.212 41.5392ZM829.467 37.8001C831.678 39.0351 833.91 40.2817 836.161 41.5392H786.756L782.307 37.8001H829.467ZM829.727 36.8001H876.775L871.65 34.6413H825.862C827.143 35.3568 828.432 36.0764 829.727 36.8001ZM823.811 34.6413C825.092 35.3567 826.381 36.0763 827.676 36.8001H781.118L778.55 34.6413H823.811ZM824.071 33.6413H869.276L862.274 30.6918H818.79C820.535 31.6666 822.296 32.6499 824.071 33.6413ZM816.739 30.6918C818.484 31.6664 820.245 32.6497 822.02 33.6413H777.36L773.851 30.6918H816.739ZM816.999 29.6918H859.9L854.773 27.5321H813.131C814.411 28.2471 815.701 28.967 816.999 29.6918ZM811.08 27.5321C812.36 28.2469 813.649 28.9669 814.948 29.6918H772.661L770.092 27.5321H811.08ZM811.34 26.5321H852.399L849.149 25.163H808.888C809.701 25.6172 810.519 26.0736 811.34 26.5321ZM806.837 25.163C807.65 25.6172 808.467 26.0735 809.289 26.5321H768.902L767.274 25.163H806.837ZM807.097 24.163H846.775L841.647 22.0033H803.229C804.508 22.7174 805.797 23.4373 807.097 24.163ZM801.177 22.0033C802.456 22.7172 803.746 23.4372 805.046 24.163H766.084L763.515 22.0033H801.177ZM801.437 21.0033H839.273L836.021 19.6332H798.983C799.797 20.0874 800.615 20.5441 801.437 21.0033ZM796.932 19.6332C797.745 20.0873 798.563 20.544 799.386 21.0033H762.325L760.695 19.6332H796.932ZM797.192 18.6332H833.647L830.396 17.2641H794.739C795.552 17.7178 796.37 18.1741 797.192 18.6332ZM792.688 17.2641C793.5 17.7177 794.318 18.1741 795.14 18.6332H759.506L757.877 17.2641H792.688ZM792.948 16.2641H828.022L825.709 15.2897H791.202C791.781 15.6131 792.363 15.9379 792.948 16.2641ZM789.15 15.2897C789.73 15.613 790.311 15.9378 790.896 16.2641H756.687L755.528 15.2897H789.15ZM982.563 207.409H833.459L814.676 176.025H945.212C959.482 188.016 972.216 198.717 982.563 207.409ZM944.022 175.025H814.078L799.55 150.75H915.137C925.227 159.23 934.928 167.382 944.022 175.025ZM812.912 175.025L798.384 150.75H683V175.025H812.912ZM913.947 149.75H798.951L787.732 131.003H891.641C899.219 137.372 906.681 143.644 913.947 149.75ZM797.786 149.75L786.567 131.003H683V149.75H797.786ZM890.452 130.003H787.134L777.805 114.416H871.905L890.452 130.003ZM785.968 130.003L776.64 114.416H683V130.003H785.968ZM870.716 113.416H777.207L769.769 100.988H855.929L870.716 113.416ZM776.041 113.416L768.604 100.988H683V113.416H776.041ZM854.74 99.9883H769.171L763.151 89.9306H842.773L854.74 99.9883ZM768.005 99.9883L761.986 89.9306H683V99.9883H768.005ZM841.584 88.9306H762.553L757.479 80.4523H831.497L841.584 88.9306ZM761.388 88.9306L756.314 80.4523H683V88.9306H761.388ZM830.307 79.4523H756.881L752.279 71.7637H821.16L830.307 79.4523ZM755.715 79.4523L751.114 71.7637H683V79.4523H755.715ZM819.97 70.7637H751.681L748.025 64.6555H812.703L819.97 70.7637ZM750.515 70.7637L746.86 64.6555H683V70.7637H750.515ZM811.513 63.6555H747.427L743.771 57.5463H804.245L811.513 63.6555ZM746.261 63.6555L742.605 57.5463H683V63.6555H746.261ZM803.056 56.5463H743.172L740.462 52.0175H797.668L803.056 56.5463ZM742.007 56.5463L739.296 52.0175H683V56.5463H742.007ZM796.478 51.0175H739.863L737.625 47.2784H792.029L796.478 51.0175ZM738.698 51.0175L736.46 47.2784H683V51.0175H738.698ZM790.84 46.2784H737.027L734.789 42.5392H786.391L790.84 46.2784ZM735.862 46.2784L733.624 42.5392H683V46.2784H735.862ZM785.202 41.5392H734.191L731.953 37.8001H780.753L785.202 41.5392ZM733.025 41.5392L730.788 37.8001H683V41.5392H733.025ZM779.564 36.8001H731.355L730.063 34.6413H776.995L779.564 36.8001ZM730.189 36.8001L728.897 34.6413H683V36.8001H730.189ZM775.806 33.6413H729.464L727.699 30.6918H772.297L775.806 33.6413ZM728.299 33.6413L726.534 30.6918H683V33.6413H728.299ZM771.107 29.6918H727.1L725.808 27.5321H768.538L771.107 29.6918ZM725.935 29.6918L724.643 27.5321H683V29.6918H725.935ZM767.348 26.5321H725.209L724.39 25.163H765.72L767.348 26.5321ZM724.044 26.5321L723.225 25.163H683V26.5321H724.044ZM764.53 24.163H723.792L722.499 22.0033H761.961L764.53 24.163ZM722.626 24.163L721.334 22.0033H683V24.163H722.626ZM760.771 21.0033H721.901L721.081 19.6332H759.141L760.771 21.0033ZM720.735 21.0033L719.915 19.6332H683V21.0033H720.735ZM757.951 18.6332H720.482L719.663 17.2641H756.323L757.951 18.6332ZM719.317 18.6332L718.497 17.2641H683V18.6332H719.317ZM755.133 16.2641H719.064L718.481 15.2897H753.974L755.133 16.2641ZM717.899 16.2641L717.316 15.2897H683V16.2641H717.899ZM832.293 207.409L813.511 176.025H683V207.409H832.293ZM234.706 207.409H380.883C391.17 198.766 403.912 188.06 418.234 176.025H290.507C269.31 187.924 250.305 198.611 234.706 207.409ZM288.464 176.025C267.197 187.964 248.182 198.658 232.671 207.409H83.1943L157.701 176.025H288.464ZM292.288 175.025H419.424C428.507 167.392 438.209 159.238 448.309 150.75H335.573C320.474 159.212 305.939 167.363 292.288 175.025ZM333.528 150.75C318.415 159.219 303.88 167.371 290.245 175.025H160.075L217.705 150.75H333.528ZM337.358 149.75H449.499C456.761 143.647 464.223 137.376 471.804 131.003H370.824C360.671 136.688 350.651 142.301 340.849 147.793L337.358 149.75ZM368.778 131.003C359.157 136.39 349.661 141.71 340.36 146.921L335.312 149.75H220.079L264.583 131.003H368.778ZM372.61 130.003H472.994L491.54 114.416H400.458C391.113 119.645 381.809 124.853 372.61 130.003ZM398.41 114.416C389.062 119.647 379.759 124.855 370.563 130.003H266.957L303.962 114.416H398.41ZM402.245 113.416H492.73L507.516 100.988H424.458C417.051 105.131 409.636 109.28 402.245 113.416ZM422.409 100.988C415.001 105.133 407.586 109.281 400.197 113.416H306.336L335.84 100.988H422.409ZM426.246 99.9883H508.706L520.672 89.9306H444.229C438.252 93.2726 432.252 96.6283 426.246 99.9883ZM442.18 89.9306C436.202 93.2734 430.202 96.6291 424.197 99.9883H338.214L362.091 89.9306H442.18ZM446.017 88.9306H521.862L531.949 80.4523H461.18C456.151 83.2641 451.093 86.0921 446.017 88.9306ZM459.131 80.4523C454.101 83.2647 449.043 86.0927 443.968 88.9306H364.465L384.593 80.4523H459.131ZM462.969 79.4523H533.139L542.286 71.7637H476.723C472.169 74.3094 467.581 76.8737 462.969 79.4523ZM474.674 71.7637C470.118 74.31 465.531 76.8743 460.92 79.4523H386.967L405.22 71.7637H474.674ZM478.512 70.7637H543.476L550.743 64.6555H489.441C485.823 66.6775 482.179 68.7144 478.512 70.7637ZM487.391 64.6555C483.773 66.6779 480.128 68.7147 476.463 70.7637H407.594L422.095 64.6555H487.391ZM491.231 63.6555H551.933L559.201 57.5463H502.163C498.55 59.5653 494.904 61.6025 491.231 63.6555ZM500.113 57.5463C496.499 59.5658 492.854 61.603 489.181 63.6555H424.469L438.972 57.5463H500.113ZM503.953 56.5463H560.39L565.778 52.0175H512.059L503.953 56.5463ZM510.008 52.0175L501.903 56.5463H441.346L452.098 52.0175H510.008ZM513.849 51.0175H566.968L571.416 47.2784H520.542L513.849 51.0175ZM518.491 47.2784L511.798 51.0175H454.472L463.349 47.2784H518.491ZM522.332 46.2784H572.606L577.054 42.5392H529.026L522.332 46.2784ZM526.975 42.5392L520.281 46.2784H465.723L474.6 42.5392H526.975ZM530.816 41.5392H578.244L582.693 37.8001H537.511L530.816 41.5392ZM535.46 37.8001L528.765 41.5392H476.974L485.851 37.8001H535.46ZM539.301 36.8001H583.882L586.45 34.6413H543.167L539.301 36.8001ZM541.116 34.6413L537.25 36.8001H488.225L493.35 34.6413H541.116ZM544.957 33.6413H587.64L591.149 30.6918H550.239L544.957 33.6413ZM548.188 30.6918L542.906 33.6413H495.724L502.726 30.6918H548.188ZM552.03 29.6918H592.339L594.908 27.5321H555.898L552.03 29.6918ZM553.847 27.5321L549.979 29.6918H505.1L510.227 27.5321H553.847ZM557.689 26.5321H596.098L597.726 25.163H560.141L557.689 26.5321ZM558.09 25.163L555.637 26.5321H512.601L515.851 25.163H558.09ZM561.932 24.163H598.916L601.485 22.0033H565.8L561.932 24.163ZM563.749 22.0033L559.881 24.163H518.225L523.353 22.0033H563.749ZM567.592 21.0033H602.675L604.305 19.6332H570.046L567.592 21.0033ZM567.994 19.6332L565.54 21.0033H525.727L528.979 19.6332H567.994ZM571.837 18.6332H605.494L607.123 17.2641H574.29L571.837 18.6332ZM572.238 17.2641L569.786 18.6332H531.353L534.604 17.2641H572.238ZM576.081 16.2641H608.313L609.472 15.2897H577.827L576.081 16.2641ZM575.775 15.2897L574.03 16.2641H536.978L539.291 15.2897H575.775ZM682 207.409H534.684L553.467 176.025H682V207.409ZM682 175.025H554.065L568.593 150.75H682V175.025ZM552.9 175.025L567.428 150.75H449.863C439.773 159.23 430.072 167.382 420.978 175.025H552.9ZM682 149.75H569.192L580.411 131.003H682V149.75ZM568.026 149.75L579.245 131.003H473.359C465.781 137.372 458.319 143.644 451.053 149.75H568.026ZM682 130.003H581.009L590.338 114.416H682V130.003ZM579.844 130.003L589.172 114.416H493.095L474.548 130.003H579.844ZM682 113.416H590.936L598.374 100.988H682V113.416ZM589.771 113.416L597.208 100.988H509.071L494.284 113.416H589.771ZM682 99.9883H598.972L604.992 89.9306H682V99.9883ZM597.807 99.9883L603.826 89.9306H522.227L510.26 99.9883H597.807ZM682 88.9306H605.59L610.664 80.4523H682V88.9306ZM604.425 88.9306L609.499 80.4523H533.503L523.416 88.9306H604.425ZM682 79.4523H611.262L615.864 71.7637H682V79.4523ZM610.097 79.4523L614.698 71.7637H543.84L534.693 79.4523H610.097ZM682 70.7637H616.462L620.118 64.6555H682V70.7637ZM615.297 70.7637L618.952 64.6555H552.297L545.03 70.7637H615.297ZM682 63.6555H620.716L624.372 57.5463H682V63.6555ZM619.551 63.6555L623.207 57.5463H560.755L553.487 63.6555H619.551ZM682 56.5463H624.971L627.681 52.0175H682V56.5463ZM623.806 56.5463L626.516 52.0175H567.332L561.945 56.5463H623.806ZM682 51.0175H628.28L630.518 47.2784H682V51.0175ZM627.114 51.0175L629.352 47.2784H572.971L568.522 51.0175H627.114ZM682 46.2784H631.116L633.354 42.5392H682V46.2784ZM629.951 46.2784L632.188 42.5392H578.609L574.16 46.2784H629.951ZM682 41.5392H633.952L636.19 37.8001H682V41.5392ZM632.787 41.5392L635.025 37.8001H584.247L579.798 41.5392H632.787ZM682 36.8001H636.788L638.08 34.6413H682V36.8001ZM635.623 36.8001L636.915 34.6413H588.005L585.436 36.8001H635.623ZM682 33.6413H638.679L640.444 30.6918H682V33.6413ZM637.513 33.6413L639.279 30.6918H592.703L589.194 33.6413H637.513ZM682 29.6918H641.043L642.335 27.5321H682V29.6918ZM639.877 29.6918L641.17 27.5321H596.462L593.893 29.6918H639.877ZM682 26.5321H642.934L643.753 25.163H682V26.5321ZM641.768 26.5321L642.587 25.163H599.28L597.652 26.5321H641.768ZM682 24.163H644.351L645.644 22.0033H682V24.163ZM643.186 24.163L644.479 22.0033H603.039L600.47 24.163H643.186ZM682 21.0033H646.242L647.062 19.6332H682V21.0033ZM645.077 21.0033L645.897 19.6332H605.859L604.229 21.0033H645.077ZM682 18.6332H647.661L648.48 17.2641H682V18.6332ZM646.495 18.6332L647.315 17.2641H608.677L607.049 18.6332H646.495ZM682 16.2641H649.079L649.662 15.2897H682V16.2641ZM647.913 16.2641L648.496 15.2897H611.026L609.867 16.2641H647.913ZM533.519 207.409L552.301 176.025H419.788C405.518 188.016 392.784 198.717 382.437 207.409H533.519ZM1370.99 16.2641L1361.72 15.2897H1336.01L1345.59 16.2641H1370.99ZM1300.05 15.2897H1326.12L1335.71 16.2641H1309.75L1300.05 15.2897ZM1319.71 17.2641H1345.54L1359.01 18.6332H1333.35L1319.71 17.2641ZM1378.41 24.163L1356.9 22.0033H1325.71L1346.07 24.163H1378.41ZM1346.94 21.0033L1333.3 19.6332H1303.37L1316.29 21.0033H1346.94ZM1323.34 18.6332L1309.7 17.2641H1281.04L1293.95 18.6332H1323.34ZM1299.74 16.2641L1290.04 15.2897H1262.44L1271.62 16.2641H1299.74ZM1227.64 15.2897H1252.96L1262.14 16.2641H1236.41C1233.08 15.8933 1230.13 15.5659 1227.64 15.2897ZM1245.37 17.2641H1271.57L1284.47 18.6332H1257.61C1253.27 18.1469 1249.17 17.6881 1245.37 17.2641ZM1266.54 19.6332H1293.9L1306.81 21.0033H1278.75C1274.56 20.533 1270.48 20.0749 1266.54 19.6332ZM1287.66 22.0033H1316.23L1336.59 24.163H1306.88C1300.39 23.433 1293.94 22.7086 1287.66 22.0033ZM1315.78 25.163H1346.01L1358.92 26.5321H1327.95L1315.78 25.163ZM1347.08 29.6918C1340.85 28.9906 1334.42 28.266 1327.89 27.5321H1294.9L1312.49 29.6918H1347.08ZM1319 26.5321L1306.83 25.163H1275.6L1286.75 26.5321H1319ZM1297.93 24.163C1291.67 23.4598 1285.51 22.7676 1279.55 22.0991L1278.7 22.0033H1249.86L1267.45 24.163H1297.93ZM1269.78 21.0033C1265.54 20.5279 1261.45 20.0695 1257.56 19.6332H1230.55L1241.71 21.0033H1269.78ZM1248.62 18.6332C1244.17 18.1354 1240.08 17.6789 1236.44 17.2736L1236.35 17.2641H1211.25L1222.4 18.6332H1248.62ZM1227.35 16.2641C1225.83 16.0956 1224.48 15.9467 1223.32 15.819C1221.75 15.6475 1220.53 15.5145 1219.69 15.4244C1219.27 15.3793 1218.94 15.3451 1218.71 15.3221C1218.56 15.3064 1218.46 15.2978 1218.42 15.2934L1218.39 15.291C1218.38 15.2901 1218.38 15.2897 1218.38 15.2897H1195.17L1203.1 16.2641H1227.35ZM1153.07 15.2897H1186.96L1194.9 16.2641H1160.69L1153.07 15.2897ZM1168.52 17.2641H1203.04L1214.2 18.6332H1179.23L1168.52 17.2641ZM1187.05 19.6332H1222.34L1233.5 21.0033H1197.77L1187.05 19.6332ZM1205.59 22.0033H1241.65L1259.25 24.163H1222.49L1205.59 22.0033ZM1230.31 25.163H1267.39L1278.55 26.5321H1241.03L1230.31 25.163ZM1248.85 27.5321H1286.69L1304.29 29.6918H1265.75L1248.85 27.5321ZM1273.57 30.6918H1312.43L1336.46 33.6413H1296.64L1273.57 30.6918ZM1304.47 34.6413H1344.61L1362.2 36.8001H1321.36L1304.47 34.6413ZM1350.55 41.5392L1321.29 37.8001H1279.01L1305.51 41.5392H1350.55ZM1313.47 36.8001L1296.58 34.6413H1256.64L1271.93 36.8001H1313.47ZM1288.76 33.6413L1265.68 30.6918H1228.66L1249.55 33.6413H1288.76ZM1257.86 29.6918L1240.96 27.5321H1206.27L1221.57 29.6918H1257.86ZM1233.14 26.5321L1222.43 25.163H1189.49L1199.18 26.5321H1233.14ZM1214.6 24.163L1197.71 22.0033H1167.1L1182.4 24.163H1214.6ZM1189.88 21.0033L1179.16 19.6332H1150.31L1160.01 21.0033H1189.88ZM1171.34 18.6332L1160.63 17.2641H1133.52L1143.22 18.6332H1171.34ZM1152.81 16.2641L1145.18 15.2897H1119.54L1126.44 16.2641H1152.81ZM1084.6 15.2897H1112.38L1119.28 16.2641H1090.92L1084.6 15.2897ZM1097.41 17.2641H1126.37L1136.07 18.6332H1106.29L1097.41 17.2641ZM1112.78 19.6332H1143.15L1152.86 21.0033H1121.67L1112.78 19.6332ZM1128.16 22.0033H1159.94L1175.25 24.163H1142.17L1128.16 22.0033ZM1148.66 25.163H1182.33L1192.03 26.5321H1157.54L1148.66 25.163ZM1164.03 27.5321H1199.11L1214.42 29.6918H1178.04L1164.03 27.5321ZM1184.53 30.6918H1221.5L1242.4 33.6413H1203.67L1184.53 30.6918ZM1210.16 34.6413H1249.48L1264.78 36.8001H1224.16L1210.16 34.6413ZM1230.65 37.8001H1271.86L1298.35 41.5392H1254.91L1230.65 37.8001ZM1261.4 42.5392H1305.44L1331.93 46.2784H1285.66L1261.4 42.5392ZM1292.15 47.2784H1339.01L1365.5 51.0175H1316.41L1292.15 47.2784ZM1345.72 56.5463L1316.33 52.0175H1264.91L1291.75 56.5463H1345.72ZM1309.84 51.0175L1285.58 47.2784H1236.82L1258.98 51.0175H1309.84ZM1279.1 46.2784L1254.83 42.5392H1208.73L1230.9 46.2784H1279.1ZM1248.35 41.5392L1224.09 37.8001H1180.65L1202.81 41.5392H1248.35ZM1217.6 36.8001L1203.59 34.6413H1161.93L1174.72 36.8001H1217.6ZM1197.1 33.6413L1177.97 30.6918H1138.52L1156 33.6413H1197.1ZM1171.48 29.6918L1157.46 27.5321H1119.79L1132.59 29.6918H1171.48ZM1150.98 26.5321L1142.09 25.163H1105.75L1113.87 26.5321H1150.98ZM1135.6 24.163L1121.59 22.0033H1087.02L1099.82 24.163H1135.6ZM1115.1 21.0033L1106.21 19.6332H1072.98L1081.1 21.0033H1115.1ZM1099.73 18.6332L1090.84 17.2641H1058.94L1067.05 18.6332H1099.73ZM1084.35 16.2641L1078.03 15.2897H1047.24L1053.01 16.2641H1084.35ZM1014.31 15.2897H1041.22L1047 16.2641H1019.45L1014.31 15.2897ZM1024.73 17.2641H1052.93L1061.04 18.6332H1031.95L1024.73 17.2641ZM1037.23 19.6332H1066.97L1075.09 21.0033H1044.46L1037.23 19.6332ZM1049.74 22.0033H1081.01L1093.81 24.163H1061.13L1049.74 22.0033ZM1066.41 25.163H1099.74L1107.85 26.5321H1073.63L1066.41 25.163ZM1078.91 27.5321H1113.78L1126.58 29.6918H1090.31L1078.91 27.5321ZM1095.58 30.6918H1132.51L1149.99 33.6413H1111.15L1095.58 30.6918ZM1116.42 34.6413H1155.92L1168.71 36.8001H1127.81L1116.42 34.6413ZM1133.09 37.8001H1174.64L1196.8 41.5392H1152.82L1133.09 37.8001ZM1158.1 42.5392H1202.72L1224.89 46.2784H1177.83L1158.1 42.5392ZM1183.11 47.2784H1230.81L1252.97 51.0175H1202.84L1183.11 47.2784ZM1208.11 52.0175H1258.9L1285.74 56.5463H1232.01L1208.11 52.0175ZM1237.29 57.5463H1291.67L1327.87 63.6555H1269.52L1237.29 57.5463ZM1274.8 64.6555H1333.8L1370 70.7637H1307.03L1274.8 64.6555ZM1347.51 79.4523L1306.94 71.7637H1241.39L1277.8 79.4523H1347.51ZM1301.66 70.7637L1269.43 64.6555H1207.72L1236.65 70.7637H1301.66ZM1264.15 63.6555L1231.92 57.5463H1174.05L1202.98 63.6555H1264.15ZM1226.64 56.5463L1202.74 52.0175H1147.86L1169.31 56.5463H1226.64ZM1197.47 51.0175L1177.74 47.2784H1125.41L1143.12 51.0175H1197.47ZM1172.46 46.2784L1152.73 42.5392H1102.97L1120.68 46.2784H1172.46ZM1147.45 41.5392L1127.72 37.8001H1080.52L1098.23 41.5392H1147.45ZM1122.44 36.8001L1111.05 34.6413H1065.56L1075.79 36.8001H1122.44ZM1105.78 33.6413L1090.21 30.6918H1046.85L1060.82 33.6413H1105.78ZM1084.94 29.6918L1073.54 27.5321H1031.89L1042.12 29.6918H1084.94ZM1068.26 26.5321L1061.04 25.163H1020.67L1027.15 26.5321H1068.26ZM1055.76 24.163L1044.36 22.0033H1005.7L1015.93 24.163H1055.76ZM1039.09 21.0033L1031.86 19.6332H994.477L1000.97 21.0033H1039.09ZM1026.58 18.6332L1019.36 17.2641H983.256L989.74 18.6332H1026.58ZM1014.08 16.2641L1008.94 15.2897H973.904L978.519 16.2641H1014.08ZM938.508 15.2897H969.063L973.678 16.2641H942.564L938.508 15.2897ZM946.728 17.2641H978.415L984.899 18.6332H952.428L946.728 17.2641ZM956.591 19.6332H989.636L996.125 21.0033H962.295L956.591 19.6332ZM966.459 22.0033H1000.86L1011.09 24.163H975.45L966.459 22.0033ZM979.614 25.163H1015.83L1022.31 26.5321H985.314L979.614 25.163ZM989.477 27.5321H1027.05L1037.28 29.6918H998.469L989.477 27.5321ZM1002.63 30.6918H1042.01L1055.98 33.6413H1014.91L1002.63 30.6918ZM1019.08 34.6413H1060.72L1070.94 36.8001H1028.06L1019.08 34.6413ZM1032.23 37.8001H1075.68L1093.39 41.5392H1047.79L1032.23 37.8001ZM1051.96 42.5392H1098.13L1115.84 46.2784H1067.52L1051.96 42.5392ZM1071.69 47.2784H1120.57L1138.28 51.0175H1087.26L1071.69 47.2784ZM1091.42 52.0175H1143.02L1164.47 56.5463H1110.27L1091.42 52.0175ZM1114.44 57.5463H1169.21L1198.14 63.6555H1139.87L1114.44 57.5463ZM1144.04 64.6555H1202.88L1231.81 70.7637H1169.47L1144.04 64.6555ZM1173.63 71.7637H1236.55L1272.96 79.4523H1205.64L1173.63 71.7637ZM1209.8 80.4523H1277.7L1317.86 88.9306H1245.1L1209.8 80.4523ZM1249.26 89.9306H1322.59L1370.23 99.9883H1291.14L1249.26 89.9306ZM1342.76 113.416L1291.02 100.988H1207.57L1251.94 113.416H1342.76ZM1286.86 99.9883L1244.98 89.9306H1168.09L1204 99.9883H1286.86ZM1240.82 88.9306L1205.52 80.4523H1134.25L1164.52 88.9306H1240.82ZM1201.36 79.4523L1169.35 71.7637H1103.23L1130.68 79.4523H1201.36ZM1165.18 70.7637L1139.75 64.6555H1077.85L1099.66 70.7637H1165.18ZM1135.59 63.6555L1110.16 57.5463H1052.47L1074.28 63.6555H1135.59ZM1105.99 56.5463L1087.14 52.0175H1032.73L1048.9 56.5463H1105.99ZM1082.97 51.0175L1067.41 47.2784H1015.81L1029.16 51.0175H1082.97ZM1063.24 46.2784L1047.68 42.5392H998.889L1012.24 46.2784H1063.24ZM1043.51 41.5392L1027.94 37.8001H981.97L995.319 41.5392H1043.51ZM1023.78 36.8001L1014.79 34.6413H970.692L978.399 36.8001H1023.78ZM1010.63 33.6413L998.35 30.6918H956.591L967.122 33.6413H1010.63ZM994.187 29.6918L985.195 27.5321H945.31L953.021 29.6918H994.187ZM981.032 26.5321L975.332 25.163H936.852L941.74 26.5321H981.032ZM971.169 24.163L962.177 22.0033H925.571L933.282 24.163H971.169ZM958.013 21.0033L952.309 19.6332H917.11L922.001 21.0033H958.013ZM948.146 18.6332L942.446 17.2641H908.651L913.539 18.6332H948.146ZM938.283 16.2641L934.226 15.2897H901.602L905.081 16.2641H938.283ZM864.118 15.2897H897.895L901.374 16.2641H867.068C865.929 15.887 864.943 15.5615 864.118 15.2897ZM870.086 17.2641H904.944L909.832 18.6332H874.208C872.714 18.1366 871.338 17.6798 870.086 17.2641ZM877.215 19.6332H913.402L918.293 21.0033H881.332C879.888 20.5228 878.516 20.0658 877.215 19.6332ZM884.334 22.0033H921.864L929.574 24.163H890.815C888.537 23.4035 886.375 22.683 884.334 22.0033ZM893.814 25.163H933.145L938.033 26.5321H897.919L893.814 25.163ZM900.917 27.5321H941.603L949.314 29.6918H907.389C905.162 28.9487 903.004 28.2285 900.917 27.5321ZM910.385 30.6918H952.884L963.414 33.6413H919.219C916.174 32.6245 913.227 31.6408 910.385 30.6918ZM922.213 34.6413H966.984L974.692 36.8001H928.676L922.213 34.6413ZM931.67 37.8001H978.262L991.612 41.5392H942.861C939.024 40.2571 935.292 39.0099 931.67 37.8001ZM945.854 42.5392H995.182L1008.53 46.2784H957.041C953.226 45.0031 949.495 43.7561 945.854 42.5392ZM960.033 47.2784H1012.1L1025.45 51.0175H971.218L960.033 47.2784ZM974.209 52.0175H1029.02L1045.19 56.5463H987.754C983.153 55.0078 978.635 53.4974 974.209 52.0175ZM990.744 57.5463H1048.76L1070.57 63.6555H1009.01C1002.8 61.5771 996.703 59.5389 990.744 57.5463ZM1012 64.6555H1074.14L1095.95 70.7637H1030.26C1024.08 68.6945 1017.98 66.6569 1012 64.6555ZM1033.25 71.7637H1099.52L1126.97 79.4523H1056.23C1048.45 76.8495 1040.78 74.2839 1033.25 71.7637ZM1059.22 80.4523H1130.54L1160.81 88.9306H1084.56C1076.01 86.0698 1067.55 83.2404 1059.22 80.4523ZM1087.54 89.9306H1164.38L1200.29 99.9883H1117.6C1107.49 96.6053 1097.46 93.2477 1087.54 89.9306ZM1120.58 100.988H1203.86L1248.23 113.416H1157.71C1145.29 109.256 1132.88 105.105 1120.58 100.988ZM1160.7 114.416H1251.8L1307.45 130.003H1207.26C1191.82 124.835 1176.25 119.621 1160.7 114.416ZM1210.25 131.003H1311.02L1377.95 149.75H1266.23C1247.99 143.64 1229.23 137.358 1210.25 131.003ZM1338.55 175.025C1315.94 167.45 1291.51 159.268 1266.07 150.75H1149.87L1207.5 175.025H1338.55ZM1263.08 149.75C1244.82 143.635 1226.06 137.353 1207.1 131.003H1102.99L1147.5 149.75H1263.08ZM1204.11 130.003C1188.66 124.831 1173.09 119.618 1157.55 114.416H1063.61L1100.62 130.003H1204.11ZM1154.56 113.416C1142.13 109.254 1129.73 105.103 1117.43 100.988H1031.74L1061.24 113.416H1154.56ZM1114.45 99.9883C1104.33 96.6038 1094.3 93.2461 1084.39 89.9306H1005.48L1029.36 99.9883H1114.45ZM1081.41 88.9306C1072.85 86.0685 1064.4 83.239 1056.07 80.4523H982.983L1003.11 88.9306H1081.41ZM1053.08 79.4523C1045.3 76.8481 1037.63 74.2825 1030.1 71.7637H962.356L980.609 79.4523H1053.08ZM1027.11 70.7637C1020.92 68.6934 1014.83 66.6558 1008.85 64.6555H945.481L959.982 70.7637H1027.11ZM1005.86 63.6555C999.64 61.5757 993.545 59.5375 987.591 57.5463H928.604L943.107 63.6555H1005.86ZM984.6 56.5463C979.996 55.0068 975.479 53.4963 971.055 52.0175H915.478L926.23 56.5463H984.6ZM968.064 51.0175L956.879 47.2784H904.227L913.104 51.0175H968.064ZM953.887 46.2784C950.068 45.0019 946.337 43.7548 942.699 42.5392H892.976L901.853 46.2784H953.887ZM939.706 41.5392C935.864 40.2554 932.131 39.0082 928.514 37.8001H881.725L890.602 41.5392H939.706ZM925.52 36.8001L919.056 34.6413H874.226L879.351 36.8001H925.52ZM916.062 33.6413C913.01 32.6223 910.063 31.6385 907.227 30.6918H864.85L871.852 33.6413H916.062ZM904.23 29.6918C901.998 28.9469 899.839 28.2266 897.757 27.5321H857.349L862.476 29.6918H904.23ZM894.759 26.5321L890.653 25.163H851.725L854.975 26.5321H894.759ZM887.653 24.163C885.359 23.3983 883.196 22.6777 881.17 22.0033H844.223L849.351 24.163H887.653ZM878.166 21.0033C876.708 20.518 875.334 20.061 874.047 19.6332H838.597L841.849 21.0033H878.166ZM871.037 18.6332C869.495 18.1214 868.117 17.6643 866.908 17.2641H832.973L836.223 18.6332H871.037ZM863.881 16.2641C862.268 15.7331 861.256 15.4035 860.887 15.2897H828.285L830.599 16.2641H863.881ZM3.2835 15.2897L-5.98613 16.2641H19.4069L28.9902 15.2897H3.2835ZM38.8762 15.2897L29.2929 16.2641H55.2495L64.954 15.2897H38.8762ZM19.4576 17.2641L5.99228 18.6332H31.6542L45.2898 17.2641H19.4576ZM8.0994 22.0033L-13.4109 24.163H18.9331L39.2887 22.0033H8.0994ZM48.7137 21.0033H18.059L31.7043 19.6332H61.6264L48.7137 21.0033ZM71.0515 18.6332H41.6639L55.2996 17.2641H83.9552L71.0515 18.6332ZM93.3802 16.2641H65.2592L74.9637 15.2897H102.564L93.3802 16.2641ZM112.042 15.2897L102.858 16.2641H128.59C131.919 15.8933 134.866 15.5659 137.361 15.2897H112.042ZM93.4331 17.2641L80.5294 18.6332H107.388C111.732 18.1469 115.833 17.6881 119.628 17.2641H93.4331ZM71.1044 19.6332L58.1916 21.0033H86.2483C90.4385 20.533 94.5231 20.0749 98.4631 19.6332H71.1044ZM48.7666 22.0033L28.411 24.163H58.1173C64.6111 23.433 71.0587 22.7086 77.3401 22.0033H48.7666ZM18.986 25.163L6.08228 26.5321H37.0512C41.0857 26.0782 45.1527 25.6207 49.223 25.163H18.986ZM52.5052 29.6918H17.9176C24.146 28.9906 30.5839 28.266 37.1073 27.5321H70.1L52.5052 29.6918ZM78.2467 26.5321H45.9971C50.0543 26.0758 54.1227 25.6183 58.1733 25.163H89.4002L78.2467 26.5321ZM97.5469 24.163H67.0713C73.3301 23.4598 79.4933 22.7676 85.45 22.0991L86.3042 22.0033H115.142L97.5469 24.163ZM123.288 21.0033H95.2184C99.4578 20.5279 103.548 20.0695 107.444 19.6332H134.45L123.288 21.0033ZM142.596 18.6332H116.381C120.833 18.1354 124.923 17.6789 128.56 17.2736L128.646 17.2641H153.75L142.596 18.6332ZM161.897 16.2641H137.648C139.17 16.0956 140.521 15.9467 141.684 15.819C143.245 15.6475 144.468 15.5145 145.312 15.4244C145.734 15.3793 146.061 15.3451 146.288 15.3221C146.443 15.3064 146.537 15.2978 146.584 15.2934C146.612 15.2908 146.623 15.2897 146.62 15.2897H169.835L161.897 16.2641ZM178.043 15.2897L170.105 16.2641H204.306L211.929 15.2897H178.043ZM161.958 17.2641L150.804 18.6332H185.771L196.483 17.2641H161.958ZM142.658 19.6332L131.496 21.0033H167.229L177.948 19.6332H142.658ZM123.35 22.0033L105.755 24.163H142.509L159.406 22.0033H123.35ZM97.6081 25.163L86.4545 26.5321H123.975L134.686 25.163H97.6081ZM78.3078 27.5321L60.713 29.6918H99.2543L116.151 27.5321H78.3078ZM52.5663 30.6918L28.5381 33.6413H68.3559L91.4308 30.6918H52.5663ZM20.3914 34.6413L2.8044 36.8001H43.6431L60.5323 34.6413H20.3914ZM59.4945 41.5392H14.4536L43.7067 37.8001H85.9852L59.4945 41.5392ZM93.0699 36.8001H51.5302L68.4195 34.6413H108.364L93.0699 36.8001ZM115.449 33.6413H76.243L99.318 30.6918H136.345L115.449 33.6413ZM143.43 29.6918H107.141L124.038 27.5321H158.731L143.43 29.6918ZM165.815 26.5321H131.862L142.573 25.163H175.515L165.815 26.5321ZM182.6 24.163H150.396L167.293 22.0033H197.901L182.6 24.163ZM204.986 21.0033H175.117L185.835 19.6332H214.692L204.986 21.0033ZM221.777 18.6332H193.659L204.37 17.2641H231.476L221.777 18.6332ZM238.561 16.2641H212.193L219.816 15.2897H245.464L238.561 16.2641ZM252.619 15.2897L245.716 16.2641H274.081L280.403 15.2897H252.619ZM238.631 17.2641L228.932 18.6332H258.71L267.593 17.2641H238.631ZM221.847 19.6332L212.14 21.0033H243.332L252.221 19.6332H221.847ZM205.056 22.0033L189.755 24.163H222.831L236.844 22.0033H205.056ZM182.67 25.163L172.97 26.5321H207.459L216.342 25.163H182.67ZM165.886 27.5321L150.584 29.6918H186.958L200.971 27.5321H165.886ZM143.5 30.6918L122.604 33.6413H161.333L180.47 30.6918H143.5ZM115.519 34.6413L100.225 36.8001H140.838L154.845 34.6413H115.519ZM93.1401 37.8001L66.6494 41.5392H110.089L134.35 37.8001H93.1401ZM59.5647 42.5392L33.074 46.2784H79.34L103.601 42.5392H59.5647ZM25.9893 47.2784L-0.50132 51.0175H48.5911L72.8517 47.2784H25.9893ZM73.2493 56.5463H19.2834L48.6678 52.0175H100.09L73.2493 56.5463ZM106.017 51.0175H55.156L79.4166 47.2784H128.178L106.017 51.0175ZM134.105 46.2784H85.9049L110.166 42.5392H156.265L134.105 46.2784ZM162.192 41.5392H116.654L140.914 37.8001H184.353L162.192 41.5392ZM190.279 36.8001H147.403L161.41 34.6413H203.074L190.279 36.8001ZM209.001 33.6413H167.898L187.035 30.6918H226.481L209.001 33.6413ZM232.408 29.6918H193.523L207.536 27.5321H245.208L232.408 29.6918ZM251.135 26.5321H214.024L222.907 25.163H259.249L251.135 26.5321ZM265.176 24.163H229.396L243.409 22.0033H277.976L265.176 24.163ZM283.902 21.0033H249.897L258.786 19.6332H292.022L283.902 21.0033ZM297.949 18.6332H265.275L274.158 17.2641H306.063L297.949 18.6332ZM311.99 16.2641H280.646L286.968 15.2897H317.765L311.99 16.2641ZM323.775 15.2897L318 16.2641H345.549L350.69 15.2897H323.775ZM312.074 17.2641L303.959 18.6332H333.048L340.272 17.2641H312.074ZM298.033 19.6332L289.913 21.0033H320.541L327.771 19.6332H298.033ZM283.986 22.0033L271.186 24.163H303.868L315.265 22.0033H283.986ZM265.259 25.163L257.145 26.5321H291.367L298.592 25.163H265.259ZM251.218 27.5321L238.418 29.6918H274.694L286.09 27.5321H251.218ZM232.492 30.6918L215.011 33.6413H253.854L269.417 30.6918H232.492ZM209.084 34.6413L196.29 36.8001H237.186L248.577 34.6413H209.084ZM190.363 37.8001L168.202 41.5392H212.178L231.909 37.8001H190.363ZM162.276 42.5392L140.115 46.2784H187.171L206.902 42.5392H162.276ZM134.188 47.2784L112.028 51.0175H162.164L181.894 47.2784H134.188ZM106.101 52.0175L79.2598 56.5463H132.989L156.887 52.0175H106.101ZM73.3331 57.5463L37.1258 63.6555H95.476L127.713 57.5463H73.3331ZM31.1991 64.6555L-5.00252 70.7637H57.9676L90.1992 64.6555H31.1991ZM87.1969 79.4523H17.4908L58.0615 71.7637H123.613L87.1969 79.4523ZM128.349 70.7637H63.3383L95.5699 64.6555H157.28L128.349 70.7637ZM162.017 63.6555H100.847L133.083 57.5463H190.952L162.017 63.6555ZM195.689 56.5463H138.36L162.258 52.0175H217.139L195.689 56.5463ZM221.875 51.0175H167.534L187.265 47.2784H239.585L221.875 51.0175ZM244.322 46.2784H192.542L212.272 42.5392H262.032L244.322 46.2784ZM266.768 41.5392H217.549L237.279 37.8001H284.478L266.768 41.5392ZM289.215 36.8001H242.556L253.948 34.6413H299.439L289.215 36.8001ZM304.176 33.6413H259.224L274.788 30.6918H318.146L304.176 33.6413ZM322.882 29.6918H280.065L291.461 27.5321H333.111L322.882 29.6918ZM337.848 26.5321H296.738L303.962 25.163H344.332L337.848 26.5321ZM349.069 24.163H309.239L320.635 22.0033H359.298L349.069 24.163ZM364.034 21.0033H325.912L333.142 19.6332H370.523L364.034 21.0033ZM375.26 18.6332H338.418L345.643 17.2641H381.744L375.26 18.6332ZM386.481 16.2641H350.919L356.061 15.2897H391.096L386.481 16.2641ZM-5.22847 99.9883H73.8616L115.735 89.9306H42.4086L-5.22847 99.9883ZM47.1449 88.9306H119.899L155.197 80.4523H87.3014L47.1449 88.9306ZM92.0377 79.4523H159.36L191.371 71.7637H128.454L92.0377 79.4523ZM133.19 70.7637H195.534L220.965 64.6555H162.121L133.19 70.7637ZM166.858 63.6555H225.128L250.563 57.5463H195.793L166.858 63.6555ZM200.529 56.5463H254.726L273.581 52.0175H221.98L200.529 56.5463ZM226.716 51.0175H277.745L293.312 47.2784H244.426L226.716 51.0175ZM249.163 46.2784H297.475L313.043 42.5392H266.873L249.163 46.2784ZM271.609 41.5392H317.206L332.774 37.8001H289.319L271.609 41.5392ZM294.055 36.8001H336.937L345.925 34.6413H304.28L294.055 36.8001ZM309.017 33.6413H350.088L362.368 30.6918H322.986L309.017 33.6413ZM327.723 29.6918H366.531L375.523 27.5321H337.952L327.723 29.6918ZM342.688 26.5321H379.686L385.386 25.163H349.173L342.688 26.5321ZM353.909 24.163H389.55L398.541 22.0033H364.139L353.909 24.163ZM368.875 21.0033H402.705L408.409 19.6332H375.364L368.875 21.0033ZM380.101 18.6332H412.572L418.272 17.2641H386.585L380.101 18.6332ZM391.322 16.2641H422.436L426.492 15.2897H395.937L391.322 16.2641ZM113.064 113.416H22.239L73.9801 100.988H157.434L113.064 113.416ZM161.004 99.9883H78.1434L120.017 89.9306H196.912L161.004 99.9883ZM200.482 88.9306H124.18L159.479 80.4523H230.752L200.482 88.9306ZM234.322 79.4523H163.642L195.652 71.7637H261.772L234.322 79.4523ZM265.342 70.7637H199.816L225.246 64.6555H287.15L265.342 70.7637ZM290.72 63.6555H229.41L254.845 57.5463H312.532L290.72 63.6555ZM316.102 56.5463H259.008L277.863 52.0175H332.271L316.102 56.5463ZM335.841 51.0175H282.027L297.594 47.2784H349.191L335.841 51.0175ZM352.761 46.2784H301.757L317.325 42.5392H366.111L352.761 46.2784ZM369.681 41.5392H321.488L337.055 37.8001H383.031L369.681 41.5392ZM386.601 36.8001H341.219L350.207 34.6413H394.308L386.601 36.8001ZM397.878 33.6413H354.37L366.65 30.6918H408.409L397.878 33.6413ZM411.979 29.6918H370.813L379.805 27.5321H419.69L411.979 29.6918ZM423.26 26.5321H383.968L389.668 25.163H428.148L423.26 26.5321ZM431.718 24.163H393.831L402.823 22.0033H439.429L431.718 24.163ZM442.999 21.0033H406.987L412.691 19.6332H447.891L442.999 21.0033ZM451.461 18.6332H416.854L422.554 17.2641H456.349L451.461 18.6332ZM459.919 16.2641H426.717L430.774 15.2897H463.398L459.919 16.2641ZM53.9801 131.003L-12.9485 149.75H98.7684C117.012 143.64 135.773 137.358 154.754 131.003H53.9801ZM57.5503 130.003H157.741C173.179 124.835 188.752 119.621 204.3 114.416H113.201L57.5503 130.003ZM116.771 113.416H207.288C219.713 109.256 232.116 105.105 244.415 100.988H161.141L116.771 113.416ZM164.712 99.9883H247.403C257.511 96.6053 267.543 93.2477 277.455 89.9306H200.62L164.712 99.9883ZM204.19 88.9306H280.443C288.992 86.0698 297.448 83.2404 305.78 80.4523H234.46L204.19 88.9306ZM238.03 79.4523H308.769C316.548 76.8495 324.216 74.2839 331.75 71.7637H265.48L238.03 79.4523ZM269.05 70.7637H334.739C340.924 68.6945 347.016 66.6569 352.999 64.6555H290.858L269.05 70.7637ZM294.428 63.6555H355.989C362.203 61.5771 368.297 59.5389 374.256 57.5463H316.239L294.428 63.6555ZM319.81 56.5463H377.246C381.847 55.0078 386.365 53.4974 390.791 52.0175H335.979L319.81 56.5463ZM339.549 51.0175H393.782C397.581 49.7472 401.311 48.5003 404.967 47.2784H352.898L339.549 51.0175ZM356.469 46.2784H407.959C411.774 45.0031 415.505 43.7561 419.147 42.5392H369.818L356.469 46.2784ZM373.389 41.5392H422.139C425.976 40.2571 429.709 39.0099 433.33 37.8001H386.738L373.389 41.5392ZM390.308 36.8001H436.324L442.787 34.6413H398.016L390.308 36.8001ZM401.586 33.6413H445.782C448.826 32.6245 451.773 31.6408 454.615 30.6918H412.116L401.586 33.6413ZM415.686 29.6918H457.611C459.838 28.9487 461.996 28.2285 464.083 27.5321H423.397L415.686 29.6918ZM426.967 26.5321H467.081L471.186 25.163H431.855L426.967 26.5321ZM435.426 24.163H474.185C476.463 23.4035 478.625 22.683 480.666 22.0033H443.137L435.426 24.163ZM446.707 21.0033H483.669C485.112 20.5228 486.484 20.0658 487.785 19.6332H451.598L446.707 21.0033ZM455.168 18.6332H490.792C492.286 18.1366 493.662 17.6798 494.914 17.2641H460.056L455.168 18.6332ZM463.627 16.2641H497.932C499.071 15.887 500.057 15.5615 500.882 15.2897H467.105L463.627 16.2641ZM501.119 16.2641C502.732 15.7331 503.744 15.4035 504.113 15.2897H536.715L534.401 16.2641H501.119ZM493.963 18.6332C495.505 18.1214 496.883 17.6643 498.092 17.2641H532.027L528.777 18.6332H493.963ZM486.834 21.0033C488.292 20.518 489.666 20.061 490.953 19.6332H526.403L523.151 21.0033H486.834ZM477.347 24.163C479.641 23.3983 481.804 22.6777 483.83 22.0033H520.777L515.649 24.163H477.347ZM470.241 26.5321L474.347 25.163H513.275L510.025 26.5321H470.241ZM460.77 29.6918C463.002 28.9469 465.161 28.2266 467.243 27.5321H507.651L502.524 29.6918H460.77ZM448.938 33.6413C451.99 32.6223 454.937 31.6385 457.773 30.6918H500.15L493.148 33.6413H448.938ZM439.48 36.8001L445.944 34.6413H490.774L485.649 36.8001H439.48ZM425.294 41.5392C429.136 40.2554 432.869 39.0082 436.486 37.8001H483.275L474.398 41.5392H425.294ZM411.113 46.2784C414.932 45.0019 418.664 43.7548 422.301 42.5392H472.024L463.147 46.2784H411.113ZM396.936 51.0175C400.738 49.7463 404.468 48.4994 408.121 47.2784H460.773L451.896 51.0175H396.936ZM380.4 56.5463C385.004 55.0068 389.521 53.4963 393.945 52.0175H449.522L438.77 56.5463H380.4ZM359.142 63.6555C365.36 61.5757 371.455 59.5375 377.409 57.5463H436.396L421.893 63.6555H359.142ZM337.891 70.7637C344.08 68.6934 350.171 66.6558 356.152 64.6555H419.519L405.018 70.7637H337.891ZM311.921 79.4523C319.704 76.8481 327.372 74.2825 334.902 71.7637H402.644L384.391 79.4523H311.921ZM283.595 88.9306C292.147 86.0685 300.603 83.239 308.932 80.4523H382.017L361.889 88.9306H283.595ZM250.554 99.9883C260.666 96.6038 270.699 93.2461 280.606 89.9306H359.515L335.638 99.9883H250.554ZM210.438 113.416C222.87 109.254 235.273 105.103 247.566 100.988H333.264L303.76 113.416H210.438ZM160.89 130.003C176.339 124.831 191.912 119.618 207.451 114.416H301.386L264.381 130.003H160.89ZM101.918 149.75C120.179 143.635 138.939 137.353 157.904 131.003H262.007L217.503 149.75H101.918ZM215.129 150.75H98.9314C73.4939 159.268 49.0636 167.45 26.4477 175.025H157.499L215.129 150.75Z" fill="url(#paint0_linear)"/>
<g clip-path="url(#clip1)">
<path fill-rule="evenodd" clip-rule="evenodd" d="M-17.1062 87.1355L6.94372 82.4856H-16.0226V81.4856H12.1159L52.7903 73.6215H-10.9354L-17.9152 74.823L-18.0848 73.8375L-16.0226 73.4825V72.6215H-11.0209L25.301 66.3691H-16.0226V65.3691H31.1102L67.432 59.1167H12.7879L-17.9223 63.9456L-18.0777 62.9577L6.35008 59.1167H-16.0226V58.1167H12.7098L42.2237 53.4759H-7.59292L-15.9513 54.6796L-16.0938 53.6898L-14.6089 53.4759H-16.0226V52.4759H-7.66456L18.9665 48.641H-16.0226V47.641H25.9108L52.5418 43.806H6.62654L-14.9692 46.6222L-15.0985 45.6306L-1.10684 43.806H-16.0226V42.806H6.56161L35.9698 38.9711H-5.35062L-14.9717 40.1759L-15.096 39.1837L-13.3982 38.9711H-16.0226V37.9711H-5.413L12.3406 35.7478H-16.0226V34.7478H20.3259L44.5142 31.7186H9.03665C0.139618 32.7409 -8.16447 33.6955 -15.4711 34.5357L-15.5854 33.5423C-10.703 32.9808 -5.37522 32.3683 0.27721 31.7186H-16.0226V30.7186H8.97939C15.1892 30.0051 21.6874 29.2588 28.3363 28.4953H-3.34596L-14.4857 29.7012L-14.5933 28.707L-12.6381 28.4953H-16.0226V27.4953H-3.39992L9.69503 26.0779H-16.0226V25.0779H-15.4969L-15.5792 24.2746L-1.71599 22.8546H-16.0226V21.8546H8.04628L21.8841 20.4371H-3.84971L-15.4766 21.6432L-15.5798 20.6485L-13.5418 20.4371H-16.0226V19.4371H-3.90144L9.76349 18.0196H-16.0226V17.0196H-15.555L-6.09433 16.005H-16.0226V15.005H146.62H177.976L181.163 14.606L181.213 15.005H252.544L255.307 14.6072L255.364 15.005H286.887L289.411 14.6082L289.473 15.005H323.687L325.986 14.6094L326.054 15.005H355.965L360.086 14.2083L360.24 15.005H395.829L397.647 14.6133L397.731 15.005H430.652L432.238 14.6165L432.333 15.005H466.965L468.307 14.6214L468.417 15.005H539.086L539.929 14.6428L540.084 15.005H610.658L610.987 14.7226L611.23 15.005H682V14.6992H683V15.005H753.77L754.013 14.7226L754.342 15.005H824.916L825.071 14.6428L825.914 15.005H896.583L896.693 14.6214L898.035 15.005H932.667L932.762 14.6165L934.348 15.005H967.269L967.353 14.6133L969.171 15.005H1004.76L1004.91 14.2083L1009.03 15.005H1038.95L1039.01 14.6094L1041.31 15.005H1075.53L1075.59 14.6082L1078.11 15.005H1109.64L1109.69 14.6072L1112.46 15.005H1183.79L1183.84 14.606L1187.02 15.005H1218.38H1382.01V16.005H1371.09L1380.55 17.0196H1382.01V18.0196H1355.24L1368.9 19.4371H1382.01V20.4371H1378.54L1380.58 20.6485L1380.48 21.6432L1368.85 20.4371H1343.12L1356.95 21.8546H1382.01V22.8546H1366.72L1380.58 24.2746L1380.5 25.0779H1382.01V26.0779H1355.31L1368.4 27.4953H1382.01V28.4953H1377.64L1379.59 28.707L1379.49 29.7012L1368.35 28.4953H1336.66C1343.31 29.2588 1349.81 30.0051 1356.02 30.7186H1382.01V31.7186H1364.72C1370.38 32.3683 1375.7 32.9808 1380.59 33.5423L1380.47 34.5357C1373.16 33.6955 1364.86 32.7409 1355.96 31.7186H1320.49L1344.67 34.7478H1382.01V35.7478H1352.66L1370.41 37.9711H1382.01V38.9711H1378.4L1380.1 39.1837L1379.97 40.1759L1370.35 38.9711H1329.03L1358.44 42.806H1382.01V43.806H1366.11L1380.1 45.6306L1379.97 46.6222L1358.37 43.806H1312.46L1339.09 47.641H1382.01V48.641H1346.03L1372.66 52.4759H1382.01V53.4759H1379.61L1381.09 53.6898L1380.95 54.6796L1372.59 53.4759H1322.78L1352.29 58.1167H1382.01V59.1167H1358.65L1383.08 62.9577L1382.92 63.9456L1352.21 59.1167H1297.57L1333.89 65.3691H1382.01V66.3691H1339.7L1376.02 72.6215H1382.01V73.6215H1381.83L1383.08 73.8375L1382.92 74.823L1375.94 73.6215H1312.21L1352.88 81.4856H1382.01V82.4856H1358.06L1382.11 87.1355L1381.92 88.1173L1352.79 82.4856H1282.45L1322.7 91.1555H1382.01V92.1555H1327.34L1375.08 102.437H1382.01V103.437H1379.72L1382.61 104.06L1382.4 105.038L1374.97 103.437H1295.23L1347.05 116.136H1382.01V117.136H1351.13L1381.64 124.612L1381.4 125.583L1346.93 117.136H1255.44L1311.16 133.058H1382.01V134.058H1314.66L1381.66 153.204H1382.01V153.304L1383.14 153.626L1382.86 154.588L1381.52 154.204H1269.16C1294.66 162.917 1319.12 171.273 1341.7 178.99H1382.01V179.99H1344.63C1357.31 184.323 1369.38 188.447 1380.69 192.313L1380.37 193.26C1368.23 189.113 1355.23 184.669 1341.54 179.99H1209.83L1284.39 212.029H1382.01V213.029H1286.71L1341.67 236.648L1341.28 237.566L1284.18 213.029H1136.05C1159.47 226.515 1174.53 235.269 1176.64 236.692L1176.08 237.522C1173.96 236.093 1158.35 227.019 1134.04 213.029H985.288C1001.08 226.565 1010.79 234.881 1011.07 235.108L1010.44 235.883C1010.15 235.649 1000.07 227.02 983.751 213.029H834.048L847.551 236.048L846.689 236.554L832.889 213.029H683V236.704H682V213.029H534.089L520.289 236.554L519.426 236.048L532.929 213.029H381.249C364.925 227.02 354.851 235.649 354.565 235.883L353.933 235.108C354.211 234.881 363.92 226.565 379.712 213.029H232.935C208.632 227.019 193.019 236.093 190.897 237.522L190.338 236.692C192.452 235.269 207.509 226.515 230.931 213.029H80.8204L23.7232 237.566L23.3283 236.648L78.2876 213.029H-16.0226V212.029H80.6146L155.168 179.99H23.4623C9.77046 184.669 -3.2335 189.113 -15.3665 193.26L-15.6899 192.313C-4.37799 188.447 7.69138 184.323 20.3698 179.99H-16.0226V178.99H23.2962C45.8816 171.273 70.3363 162.917 95.8393 154.204H-16.0226V154.062L-17.8626 154.588L-18.1374 153.626L50.3396 134.058H-16.0226V133.058H53.8391L109.559 117.136H18.0721L-16.3979 125.583L-16.6359 124.612L13.8705 117.136H-16.0226V116.136H17.9514L69.7742 103.437H-9.96996L-17.4 105.038L-17.6106 104.06L-14.719 103.437H-16.0226V102.437H-10.0765L37.6559 92.1555H-16.0226V91.1555H42.2984L82.5486 82.4856H12.2117L-16.9164 88.1173L-17.1062 87.1355ZM1134.31 212.029H1281.85L1207.3 179.99H1078.48C1097.79 191.05 1115.24 201.062 1129.9 209.493C1131.4 210.355 1132.87 211.201 1134.31 212.029ZM1076.47 179.99C1096.38 191.394 1114.36 201.709 1129.4 210.36C1130.38 210.924 1131.35 211.48 1132.3 212.029H984.121C973.828 203.207 961.078 192.277 946.747 179.99H1076.47ZM1076.74 178.99H1204.97L1147.29 154.204H1033.42C1048.54 162.853 1063.09 171.176 1076.74 178.99ZM1031.4 154.204C1046.51 162.844 1061.06 171.167 1074.72 178.99H945.58C936.49 171.197 926.78 162.872 916.671 154.204H1031.4ZM1031.67 153.204H1144.97L1100.42 134.058H998.167C1007.8 139.561 1017.31 144.995 1026.62 150.319C1028.31 151.284 1029.99 152.246 1031.67 153.204ZM996.151 134.058C1006.3 139.858 1016.32 145.584 1026.12 151.187C1027.3 151.861 1028.48 152.533 1029.65 153.204H915.505L893.176 134.058H996.151ZM996.416 133.058H1098.09L1061.04 117.136H968.535C977.895 122.48 987.21 127.799 996.416 133.058ZM966.518 117.136C975.875 122.478 985.19 127.797 994.4 133.058H892.009L873.44 117.136H966.518ZM966.784 116.136H1058.71L1029.16 103.437H944.536C951.957 107.672 959.383 111.911 966.784 116.136ZM942.519 103.437C949.937 107.671 957.364 111.91 964.767 116.136H872.274L857.464 103.437H942.519ZM942.784 102.437H1026.83L1002.91 92.1555H924.765C930.755 95.5727 936.767 99.0031 942.784 102.437ZM922.747 92.1555C928.735 95.5719 934.747 99.0023 940.766 102.437H856.298L844.308 92.1555H922.747ZM923.012 91.1555H1000.58L980.408 82.4856H907.814C912.856 85.3615 917.926 88.2534 923.012 91.1555ZM905.796 82.4856C910.837 85.3609 915.906 88.2528 920.994 91.1555H843.142L833.031 82.4856H905.796ZM906.061 81.4856H978.081L959.781 73.6215H892.272C896.839 76.2258 901.438 78.8487 906.061 81.4856ZM890.253 73.6215C894.819 76.2253 899.418 78.8481 904.042 81.4856H831.865L822.695 73.6215H890.253ZM890.518 72.6215H957.454L942.905 66.3691H879.553C883.184 68.4392 886.84 70.5241 890.518 72.6215ZM877.534 66.3691C881.164 68.4388 884.821 70.5237 888.5 72.6215H821.528L814.237 66.3691H877.534ZM877.799 65.3691H940.578L926.029 59.1167H866.832C870.458 61.1834 874.115 63.2684 877.799 65.3691ZM864.813 59.1167C868.438 61.183 872.095 63.2679 875.78 65.3691H813.071L805.78 59.1167H864.813ZM865.078 58.1167H923.702L912.903 53.4759H856.937C859.631 55.0114 862.345 56.5587 865.078 58.1167ZM854.917 53.4759C857.611 55.0112 860.325 56.5585 863.059 58.1167H804.614L799.202 53.4759H854.917ZM855.182 52.4759H910.576L901.652 48.641H848.454C850.681 49.9104 852.924 51.1889 855.182 52.4759ZM846.434 48.641C848.661 49.9102 850.905 51.1887 853.163 52.4759H798.036L793.564 48.641H846.434ZM846.699 47.641H899.325L890.401 43.806H839.97C842.196 45.0742 844.439 46.3528 846.699 47.641ZM837.951 43.806C840.176 45.074 842.419 46.3526 844.68 47.641H792.398L787.926 43.806H837.951ZM838.215 42.806H888.074L879.15 38.9711H831.485C833.709 40.2379 835.953 41.5165 838.215 42.806ZM829.466 38.9711C831.689 40.2377 833.932 41.5163 836.196 42.806H786.76L782.288 38.9711H829.466ZM829.73 37.9711H876.823L871.65 35.7478H825.828C827.122 36.4846 828.422 37.2258 829.73 37.9711ZM823.808 35.7478C825.102 36.4845 826.402 37.2257 827.711 37.9711H781.122L778.529 35.7478H823.808ZM824.073 34.7478H869.323L862.274 31.7186H818.756C820.514 32.7197 822.286 33.7295 824.073 34.7478ZM816.736 31.7186C818.493 32.7194 820.266 33.7293 822.053 34.7478H777.363L773.831 31.7186H816.736ZM817.001 30.7186H859.947L854.773 28.4953H813.098C814.39 29.2313 815.691 29.9724 817.001 30.7186ZM811.078 28.4953C812.37 29.2312 813.671 29.9723 814.981 30.7186H772.665L770.072 28.4953H811.078ZM811.343 27.4953H852.446L849.148 26.0779H808.855C809.68 26.5481 810.51 27.0206 811.343 27.4953ZM806.834 26.0779C807.66 26.548 808.489 27.0205 809.323 27.4953H768.906L767.253 26.0779H806.834ZM807.099 25.0779H846.821L841.647 22.8546H803.196C804.486 23.5896 805.788 24.3308 807.099 25.0779ZM801.175 22.8546C802.466 23.5895 803.767 24.3306 805.079 25.0779H766.087L763.495 22.8546H801.175ZM801.44 21.8546H839.32L836.022 20.4371H798.951C799.776 20.9069 800.606 21.3794 801.44 21.8546ZM796.931 20.4371C797.755 20.9068 798.585 21.3794 799.419 21.8546H762.329L760.676 20.4371H796.931ZM797.195 19.4371H833.695L830.397 18.0196H794.706C795.531 18.4892 796.361 18.9618 797.195 19.4371ZM792.686 18.0196C793.51 18.4892 794.34 18.9617 795.175 19.4371H759.51L757.857 18.0196H792.686ZM792.951 17.0196H828.07L825.709 16.005H791.169C791.76 16.3417 792.354 16.6799 792.951 17.0196ZM789.148 16.005C789.739 16.3416 790.333 16.6798 790.93 17.0196H756.691L755.508 16.005H789.148ZM982.585 212.029H833.462L814.667 179.99H945.211C959.491 192.234 972.234 203.158 982.585 212.029ZM944.044 178.99H814.081L799.541 154.204H915.135C925.234 162.863 934.943 171.188 944.044 178.99ZM812.922 178.99L798.382 154.204H683V178.99H812.922ZM913.968 153.204H798.954L787.723 134.058H891.639C899.225 140.563 906.695 146.968 913.968 153.204ZM797.795 153.204L786.564 134.058H683V153.204H797.795ZM890.473 133.058H787.137L777.797 117.136H871.904L890.473 133.058ZM785.977 133.058L776.637 117.136H683V133.058H785.977ZM870.738 116.136H777.21L769.761 103.437H855.928L870.738 116.136ZM776.051 116.136L768.601 103.437H683V116.136H776.051ZM854.762 102.437H769.174L763.143 92.1555H842.772L854.762 102.437ZM768.015 102.437L761.983 92.1555H683V102.437H768.015ZM841.606 91.1555H762.556L757.47 82.4856H831.495L841.606 91.1555ZM761.397 91.1555L756.311 82.4856H683V91.1555H761.397ZM830.329 81.4856H756.884L752.271 73.6215H821.158L830.329 81.4856ZM755.724 81.4856L751.111 73.6215H683V81.4856H755.724ZM819.992 72.6215H751.684L748.016 66.3691H812.701L819.992 72.6215ZM750.525 72.6215L746.857 66.3691H683V72.6215H750.525ZM811.535 65.3691H747.43L743.762 59.1167H804.244L811.535 65.3691ZM746.27 65.3691L742.603 59.1167H683V65.3691H746.27ZM803.078 58.1167H743.175L740.453 53.4759H797.666L803.078 58.1167ZM742.016 58.1167L739.294 53.4759H683V58.1167H742.016ZM796.5 52.4759H739.866L737.617 48.641H792.028L796.5 52.4759ZM738.707 52.4759L736.457 48.641H683V52.4759H738.707ZM790.862 47.641H737.03L734.781 43.806H786.39L790.862 47.641ZM735.871 47.641L733.621 43.806H683V47.641H735.871ZM785.224 42.806H734.194L731.944 38.9711H780.752L785.224 42.806ZM733.035 42.806L730.785 38.9711H683V42.806H733.035ZM779.586 37.9711H731.358L730.054 35.7478H776.993L779.586 37.9711ZM730.198 37.9711L728.894 35.7478H683V37.9711H730.198ZM775.827 34.7478H729.467L727.69 31.7186H772.295L775.827 34.7478ZM728.308 34.7478L726.531 31.7186H683V34.7478H728.308ZM771.129 30.7186H727.103L725.799 28.4953H768.536L771.129 30.7186ZM725.944 30.7186L724.64 28.4953H683V30.7186H725.944ZM767.37 27.4953H725.213L724.381 26.0779H765.717L767.37 27.4953ZM724.053 27.4953L723.222 26.0779H683V27.4953H724.053ZM764.551 25.0779H723.794L722.49 22.8546H761.959L764.551 25.0779ZM722.635 25.0779L721.331 22.8546H683V25.0779H722.635ZM760.793 21.8546H721.904L721.072 20.4371H759.14L760.793 21.8546ZM720.744 21.8546L719.913 20.4371H683V21.8546H720.744ZM757.974 19.4371H720.486L719.654 18.0196H756.321L757.974 19.4371ZM719.326 19.4371L718.495 18.0196H683V19.4371H719.326ZM755.155 17.0196H719.067L718.472 16.005H753.972L755.155 17.0196ZM717.908 17.0196L717.313 16.005H683V17.0196H717.908ZM832.302 212.029L813.508 179.99H683V212.029H832.302ZM234.673 212.029H380.879C391.172 203.207 403.922 192.277 418.253 179.99H290.508C270.596 191.394 252.615 201.709 237.574 210.36C236.594 210.924 235.627 211.48 234.673 212.029ZM288.496 179.99C269.186 191.05 251.734 201.062 237.075 209.493C235.577 210.355 234.107 211.201 232.668 212.029H83.1473L157.701 179.99H288.496ZM292.255 178.99H419.42C428.51 171.197 438.22 162.872 448.329 154.204H335.575C320.464 162.844 305.917 171.167 292.255 178.99ZM333.561 154.204C318.434 162.853 303.887 171.176 290.242 178.99H160.028L217.705 154.204H333.561ZM337.324 153.204H449.495C456.764 146.971 464.234 140.566 471.824 134.058H370.827C360.674 139.858 350.654 145.584 340.853 151.187L337.324 153.204ZM368.811 134.058C359.178 139.561 349.669 144.995 340.357 150.319L335.31 153.204H220.032L264.584 134.058H368.811ZM372.577 133.058H472.991L491.56 117.136H400.459C391.102 122.478 381.787 127.797 372.577 133.058ZM398.442 117.136C389.082 122.48 379.767 127.799 370.561 133.058H266.911L303.962 117.136H398.442ZM402.211 116.136H492.726L507.536 103.437H424.459C417.04 107.671 409.614 111.91 402.211 116.136ZM422.441 103.437C415.021 107.672 407.594 111.911 400.194 116.136H306.289L335.839 103.437H422.441ZM426.211 102.437H508.702L520.692 92.1555H444.23C438.242 95.5719 432.23 99.0023 426.211 102.437ZM442.212 92.1555C436.223 95.5727 430.211 99.0031 424.193 102.437H338.166L362.091 92.1555H442.212ZM445.983 91.1555H521.858L531.969 82.4856H461.182C456.141 85.3609 451.071 88.2528 445.983 91.1555ZM459.163 82.4856C454.121 85.3615 449.052 88.2534 443.965 91.1555H364.418L384.592 82.4856H459.163ZM462.935 81.4856H533.135L542.305 73.6215H476.724C472.158 76.2253 467.559 78.8481 462.935 81.4856ZM474.706 73.6215C470.139 76.2258 465.54 78.8487 460.917 81.4856H386.919L405.219 73.6215H474.706ZM478.478 72.6215H543.472L550.763 66.3691H489.443C485.813 68.4388 482.157 70.5237 478.478 72.6215ZM487.424 66.3691C483.794 68.4392 480.137 70.5241 476.459 72.6215H407.546L422.095 66.3691H487.424ZM491.197 65.3691H551.929L559.22 59.1167H502.164C498.54 61.183 494.882 63.2679 491.197 65.3691ZM500.145 59.1167C496.52 61.1834 492.863 63.2684 489.178 65.3691H424.422L438.971 59.1167H500.145ZM503.919 58.1167H560.386L565.798 53.4759H512.06L503.919 58.1167ZM510.041 53.4759L501.899 58.1167H441.298L452.097 53.4759H510.041ZM513.814 52.4759H566.964L571.436 48.641H520.543L513.814 52.4759ZM518.523 48.641L511.795 52.4759H454.424L463.348 48.641H518.523ZM522.298 47.641H572.602L577.074 43.806H529.027L522.298 47.641ZM527.007 43.806L520.278 47.641H465.675L474.599 43.806H527.007ZM530.782 42.806H578.24L582.712 38.9711H537.512L530.782 42.806ZM535.492 38.9711L528.762 42.806H476.926L485.85 38.9711H535.492ZM539.267 37.9711H583.878L586.471 35.7478H543.169L539.267 37.9711ZM541.149 35.7478L537.247 37.9711H488.177L493.35 35.7478H541.149ZM544.924 34.7478H587.637L591.169 31.7186H550.241L544.924 34.7478ZM548.221 31.7186L542.904 34.7478H495.677L502.726 31.7186H548.221ZM551.996 30.7186H592.335L594.928 28.4953H555.899L551.996 30.7186ZM553.879 28.4953L549.976 30.7186H505.053L510.227 28.4953H553.879ZM557.655 27.4953H596.094L597.747 26.0779H560.143L557.655 27.4953ZM558.123 26.0779L555.634 27.4953H512.554L515.852 26.0779H558.123ZM561.899 25.0779H598.913L601.505 22.8546H565.802L561.899 25.0779ZM563.782 22.8546L559.878 25.0779H518.179L523.353 22.8546H563.782ZM567.558 21.8546H602.671L604.324 20.4371H570.047L567.558 21.8546ZM568.026 20.4371L565.537 21.8546H525.68L528.978 20.4371H568.026ZM571.803 19.4371H605.49L607.143 18.0196H574.292L571.803 19.4371ZM572.271 18.0196L569.782 19.4371H531.305L534.603 18.0196H572.271ZM576.048 17.0196H608.309L609.492 16.005H577.829L576.048 17.0196ZM575.808 16.005L574.027 17.0196H536.93L539.291 16.005H575.808ZM682 212.029H534.675L553.469 179.99H682V212.029ZM682 178.99H554.056L568.596 154.204H682V178.99ZM552.897 178.99L567.437 154.204H449.865C439.766 162.863 430.057 171.188 420.956 178.99H552.897ZM682 153.204H569.183L580.414 134.058H682V153.204ZM568.023 153.204L579.254 134.058H473.361L462.892 143.035L451.032 153.204H568.023ZM682 133.058H581L590.34 117.136H682V133.058ZM579.841 133.058L589.181 117.136H493.096L474.527 133.058H579.841ZM682 116.136H590.927L598.376 103.437H682V116.136ZM589.768 116.136L597.217 103.437H509.072L494.262 116.136H589.768ZM682 102.437H598.963L604.994 92.1555H682V102.437ZM597.804 102.437L603.835 92.1555H522.228L510.238 102.437H597.804ZM682 91.1555H605.581L610.667 82.4856H682V91.1555ZM604.421 91.1555L609.507 82.4856H533.505L523.394 91.1555H604.421ZM682 81.4856H611.253L615.866 73.6215H682V81.4856ZM610.094 81.4856L614.707 73.6215H543.842L534.671 81.4856H610.094ZM682 72.6215H616.453L620.121 66.3691H682V72.6215ZM615.294 72.6215L618.961 66.3691H552.299L545.008 72.6215H615.294ZM682 65.3691H620.707L624.375 59.1167H682V65.3691ZM619.548 65.3691L623.216 59.1167H560.756L553.465 65.3691H619.548ZM682 58.1167H624.962L627.684 53.4759H682V58.1167ZM623.802 58.1167L626.525 53.4759H567.334L561.922 58.1167H623.802ZM682 52.4759H628.271L630.52 48.641H682V52.4759ZM627.111 52.4759L629.361 48.641H572.972L568.5 52.4759H627.111ZM682 47.641H631.107L633.356 43.806H682V47.641ZM629.947 47.641L632.197 43.806H578.61L574.138 47.641H629.947ZM682 42.806H633.943L636.193 38.9711H682V42.806ZM632.784 42.806L635.033 38.9711H584.248L579.776 42.806H632.784ZM682 37.9711H636.779L638.083 35.7478H682V37.9711ZM635.62 37.9711L636.924 35.7478H588.007L585.414 37.9711H635.62ZM682 34.7478H638.67L640.447 31.7186H682V34.7478ZM637.511 34.7478L639.288 31.7186H592.705L589.173 34.7478H637.511ZM682 30.7186H641.034L642.338 28.4953H682V30.7186ZM639.874 30.7186L641.178 28.4953H596.464L593.871 30.7186H639.874ZM682 27.4953H642.924L643.756 26.0779H682V27.4953ZM641.765 27.4953L642.596 26.0779H599.283L597.63 27.4953H641.765ZM682 25.0779H644.342L645.647 22.8546H682V25.0779ZM643.183 25.0779L644.487 22.8546H603.041L600.449 25.0779H643.183ZM682 21.8546H646.233L647.065 20.4371H682V21.8546ZM645.074 21.8546L645.905 20.4371H605.86L604.207 21.8546H645.074ZM682 19.4371H647.651L648.483 18.0196H682V19.4371ZM646.492 19.4371L647.323 18.0196H608.679L607.026 19.4371H646.492ZM682 17.0196H649.069L649.665 16.005H682V17.0196ZM647.91 17.0196L648.505 16.005H611.028L609.845 17.0196H647.91ZM533.516 212.029L552.31 179.99H419.789C405.509 192.234 392.766 203.158 382.415 212.029H533.516ZM1371.18 17.0196L1361.72 16.005H1335.82L1345.6 17.0196H1371.18ZM1299.85 16.005H1326.12L1335.9 17.0196H1309.75L1299.85 16.005ZM1319.52 18.0196H1345.54L1359.21 19.4371H1333.35L1319.52 18.0196ZM1378.61 25.0779L1356.9 22.8546H1325.53L1346.07 25.0779H1378.61ZM1347.14 21.8546L1333.3 20.4371H1303.19L1316.29 21.8546H1347.14ZM1323.54 19.4371L1309.7 18.0196H1280.86L1293.96 19.4371H1323.54ZM1299.94 17.0196L1290.04 16.005H1262.25L1271.62 17.0196H1299.94ZM1227.46 16.005H1252.96L1262.33 17.0196H1236.41C1233 16.6321 1229.99 16.2911 1227.46 16.005ZM1245.2 18.0196H1271.57L1284.66 19.4371H1257.62C1253.21 18.933 1249.04 18.4579 1245.2 18.0196ZM1266.37 20.4371H1293.9L1307 21.8546H1278.75C1274.5 21.3678 1270.36 20.8937 1266.37 20.4371ZM1287.49 22.8546H1316.24L1336.77 25.0779H1306.88C1300.33 24.3263 1293.82 23.5804 1287.49 22.8546ZM1315.6 26.0779H1346.01L1359.11 27.4953H1327.95L1315.6 26.0779ZM1347.26 30.7186C1340.98 29.997 1334.48 29.2511 1327.9 28.4953H1294.75L1312.5 30.7186H1347.26ZM1319.18 27.4953L1306.83 26.0779H1275.44L1286.76 27.4953H1319.18ZM1298.1 25.0779C1291.78 24.3535 1285.56 23.6405 1279.55 22.952L1278.7 22.8546H1249.7L1267.46 25.0779H1298.1ZM1269.96 21.8546C1265.66 21.3625 1261.51 20.8882 1257.56 20.4371H1230.4L1241.72 21.8546H1269.96ZM1248.8 19.4371C1244.28 18.9211 1240.13 18.4481 1236.44 18.029L1236.36 18.0196H1211.1L1222.41 19.4371H1248.8ZM1227.53 17.0196C1225.94 16.8393 1224.52 16.6803 1223.32 16.5449C1221.75 16.37 1220.53 16.2343 1219.69 16.1424C1219.26 16.0964 1218.94 16.0615 1218.71 16.038C1218.6 16.0263 1218.51 16.0176 1218.45 16.0119L1218.4 16.0078L1218.39 16.0063L1218.38 16.0062L1218.37 16.0051L1218.38 16.005H1195.01L1203.11 17.0196H1227.53ZM1152.92 16.005H1186.96L1195.06 17.0196H1160.7L1152.92 16.005ZM1168.37 18.0196H1203.05L1214.37 19.4371H1179.23L1168.37 18.0196ZM1186.9 20.4371H1222.35L1233.67 21.8546H1197.77L1186.9 20.4371ZM1205.44 22.8546H1241.66L1259.41 25.0779H1222.49L1205.44 22.8546ZM1230.16 26.0779H1267.4L1278.71 27.4953H1241.03L1230.16 26.0779ZM1248.7 28.4953H1286.7L1304.45 30.7186H1265.75L1248.7 28.4953ZM1273.42 31.7186H1312.44L1336.63 34.7478H1296.64L1273.42 31.7186ZM1304.31 35.7478H1344.61L1362.37 37.9711H1321.36L1304.31 35.7478ZM1350.7 42.806L1321.3 38.9711H1278.88L1305.51 42.806H1350.7ZM1313.63 37.9711L1296.58 35.7478H1256.5L1271.94 37.9711H1313.63ZM1288.91 34.7478L1265.68 31.7186H1228.52L1249.56 34.7478H1288.91ZM1258.01 30.7186L1240.96 28.4953H1206.14L1221.58 30.7186H1258.01ZM1233.3 27.4953L1222.43 26.0779H1189.35L1199.19 27.4953H1233.3ZM1214.76 25.0779L1197.71 22.8546H1166.97L1182.4 25.0779H1214.76ZM1190.04 21.8546L1179.17 20.4371H1150.18L1160.02 21.8546H1190.04ZM1171.5 19.4371L1160.63 18.0196H1133.39L1143.23 19.4371H1171.5ZM1152.96 17.0196L1145.18 16.005H1119.4L1126.45 17.0196H1152.96ZM1084.47 16.005H1112.38L1119.43 17.0196H1090.93L1084.47 16.005ZM1097.28 18.0196H1126.37L1136.22 19.4371H1106.3L1097.28 18.0196ZM1112.66 20.4371H1143.16L1153 21.8546H1121.67L1112.66 20.4371ZM1128.03 22.8546H1159.95L1175.39 25.0779H1142.17L1128.03 22.8546ZM1148.53 26.0779H1182.33L1192.18 27.4953H1157.55L1148.53 26.0779ZM1163.91 28.4953H1199.12L1214.56 30.7186H1178.05L1163.91 28.4953ZM1184.41 31.7186H1221.5L1242.54 34.7478H1203.67L1184.41 31.7186ZM1210.03 35.7478H1249.48L1264.92 37.9711H1224.17L1210.03 35.7478ZM1230.53 38.9711H1271.87L1298.5 42.806H1254.92L1230.53 38.9711ZM1261.28 43.806H1305.44L1332.07 47.641H1285.67L1261.28 43.806ZM1292.03 48.641H1339.02L1365.65 52.4759H1316.42L1292.03 48.641ZM1345.85 58.1167L1316.34 53.4759H1264.8L1291.76 58.1167H1345.85ZM1309.98 52.4759L1285.59 48.641H1236.71L1258.99 52.4759H1309.98ZM1279.23 47.641L1254.84 43.806H1208.62L1230.9 47.641H1279.23ZM1248.48 42.806L1224.09 38.9711H1180.54L1202.82 42.806H1248.48ZM1217.73 37.9711L1203.59 35.7478H1161.81L1174.73 37.9711H1217.73ZM1197.23 34.7478L1177.97 31.7186H1138.41L1156 34.7478H1197.23ZM1171.61 30.7186L1157.47 28.4953H1119.68L1132.6 30.7186H1171.61ZM1151.11 27.4953L1142.1 26.0779H1105.64L1113.87 27.4953H1151.11ZM1135.74 25.0779L1121.6 22.8546H1086.91L1099.83 25.0779H1135.74ZM1115.24 21.8546L1106.22 20.4371H1072.87L1081.1 21.8546H1115.24ZM1099.86 19.4371L1090.85 18.0196H1058.83L1067.06 19.4371H1099.86ZM1084.49 17.0196L1078.04 16.005H1047.12L1053.02 17.0196H1084.49ZM1014.21 16.005H1041.23L1047.12 17.0196H1019.45L1014.21 16.005ZM1024.63 18.0196H1052.93L1061.16 19.4371H1031.96L1024.63 18.0196ZM1037.13 20.4371H1066.97L1075.21 21.8546H1044.46L1037.13 20.4371ZM1049.63 22.8546H1081.02L1093.93 25.0779H1061.13L1049.63 22.8546ZM1066.31 26.0779H1099.74L1107.98 27.4953H1073.64L1066.31 26.0779ZM1078.81 28.4953H1113.79L1126.7 30.7186H1090.31L1078.81 28.4953ZM1095.48 31.7186H1132.51L1150.11 34.7478H1111.15L1095.48 31.7186ZM1116.32 35.7478H1155.92L1168.83 37.9711H1127.82L1116.32 35.7478ZM1132.99 38.9711H1174.64L1196.92 42.806H1152.83L1132.99 38.9711ZM1158 43.806H1202.73L1225.01 47.641H1177.83L1158 43.806ZM1183.01 48.641H1230.82L1253.1 52.4759H1202.84L1183.01 48.641ZM1208.01 53.4759H1258.9L1285.86 58.1167H1232.02L1208.01 53.4759ZM1237.19 59.1167H1291.67L1328 65.3691H1269.53L1237.19 59.1167ZM1274.7 66.3691H1333.8L1370.13 72.6215H1307.04L1274.7 66.3691ZM1347.62 81.4856L1306.94 73.6215H1241.3L1277.81 81.4856H1347.62ZM1301.77 72.6215L1269.43 66.3691H1207.63L1236.66 72.6215H1301.77ZM1264.26 65.3691L1231.92 59.1167H1173.96L1202.99 65.3691H1264.26ZM1226.75 58.1167L1202.74 53.4759H1147.77L1169.32 58.1167H1226.75ZM1197.57 52.4759L1177.74 48.641H1125.33L1143.13 52.4759H1197.57ZM1172.57 47.641L1152.73 43.806H1102.88L1120.68 47.641H1172.57ZM1147.56 42.806L1127.72 38.9711H1080.43L1098.24 42.806H1147.56ZM1122.55 37.9711L1111.05 35.7478H1065.47L1075.79 37.9711H1122.55ZM1105.88 34.7478L1090.21 31.7186H1046.76L1060.83 34.7478H1105.88ZM1085.04 30.7186L1073.54 28.4953H1031.8L1042.12 30.7186H1085.04ZM1068.37 27.4953L1061.04 26.0779H1020.58L1027.16 27.4953H1068.37ZM1055.87 25.0779L1044.37 22.8546H1005.61L1015.93 25.0779H1055.87ZM1039.19 21.8546L1031.86 20.4371H994.39L1000.97 21.8546H1039.19ZM1026.69 19.4371L1019.36 18.0196H983.167L989.747 19.4371H1026.69ZM1014.19 17.0196L1008.94 16.005H973.814L978.524 17.0196H1014.19ZM938.429 16.005H969.065L973.775 17.0196H942.569L938.429 16.005ZM946.65 18.0196H978.418L984.998 19.4371H952.434L946.65 18.0196ZM956.515 20.4371H989.641L996.221 21.8546H962.3L956.515 20.4371ZM966.381 22.8546H1000.86L1011.19 25.0779H975.453L966.381 22.8546ZM979.534 26.0779H1015.83L1022.41 27.4953H985.319L979.534 26.0779ZM989.4 28.4953H1027.05L1037.37 30.7186H998.473L989.4 28.4953ZM1002.55 31.7186H1042.02L1056.08 34.7478H1014.91L1002.55 31.7186ZM1019 35.7478H1060.72L1071.04 37.9711H1028.07L1019 35.7478ZM1032.15 38.9711H1075.69L1093.49 42.806H1047.8L1032.15 38.9711ZM1051.88 43.806H1098.13L1115.94 47.641H1067.53L1051.88 43.806ZM1071.61 48.641H1120.58L1138.38 52.4759H1087.26L1071.61 48.641ZM1091.34 53.4759H1143.02L1164.57 58.1167H1110.28L1091.34 53.4759ZM1114.36 59.1167H1169.21L1198.24 65.3691H1139.88L1114.36 59.1167ZM1143.96 66.3691H1202.88L1231.91 72.6215H1169.47L1143.96 66.3691ZM1173.55 73.6215H1236.55L1273.06 81.4856H1205.65L1173.55 73.6215ZM1209.73 82.4856H1277.7L1317.95 91.1555H1245.11L1209.73 82.4856ZM1249.19 92.1555H1322.6L1370.33 102.437H1291.15L1249.19 92.1555ZM1342.85 116.136L1291.02 103.437H1207.5L1251.94 116.136H1342.85ZM1286.94 102.437L1244.99 92.1555H1168.02L1204 102.437H1286.94ZM1240.91 91.1555L1205.52 82.4856H1134.18L1164.52 91.1555H1240.91ZM1201.44 81.4856L1169.35 73.6215H1103.16L1130.68 81.4856H1201.44ZM1165.27 72.6215L1139.76 66.3691H1077.78L1099.66 72.6215H1165.27ZM1135.67 65.3691L1110.16 59.1167H1052.4L1074.28 65.3691H1135.67ZM1106.08 58.1167L1087.14 53.4759H1032.66L1048.9 58.1167H1106.08ZM1083.06 52.4759L1067.41 48.641H1015.74L1029.16 52.4759H1083.06ZM1063.33 47.641L1047.68 43.806H998.824L1012.24 47.641H1063.33ZM1043.6 42.806L1027.95 38.9711H981.904L995.324 42.806H1043.6ZM1023.87 37.9711L1014.79 35.7478H970.624L978.405 37.9711H1023.87ZM1010.71 34.7478L998.352 31.7186H956.524L967.125 34.7478H1010.71ZM994.271 30.7186L985.198 28.4953H945.244L953.025 30.7186H994.271ZM981.117 27.4953L975.333 26.0779H936.785L941.745 27.4953H981.117ZM971.252 25.0779L962.179 22.8546H925.505L933.285 25.0779H971.252ZM958.098 21.8546L952.314 20.4371H917.045L922.005 21.8546H958.098ZM948.233 19.4371L942.448 18.0196H908.585L913.545 19.4371H948.233ZM938.367 17.0196L934.227 16.005H901.535L905.085 17.0196H938.367ZM864.059 16.005H897.895L901.446 17.0196H867.071C865.903 16.6253 864.897 16.2864 864.059 16.005ZM870.028 18.0196H904.945L909.906 19.4371H874.212C872.693 18.9222 871.297 18.4492 870.028 18.0196ZM877.159 20.4371H913.405L918.366 21.8546H881.334C879.869 21.357 878.477 20.8843 877.159 20.4371ZM884.277 22.8546H921.865L929.646 25.0779H890.816C888.516 24.2956 886.335 23.5539 884.277 22.8546ZM893.756 26.0779H933.145L938.105 27.4953H897.922L893.756 26.0779ZM900.86 28.4953H941.605L949.385 30.7186H907.39C905.143 29.9534 902.965 29.212 900.86 28.4953ZM910.327 31.7186H952.885L963.485 34.7478H919.22C916.154 33.7032 913.188 32.6929 910.327 31.7186ZM922.155 35.7478H966.985L974.765 37.9711H928.679L922.155 35.7478ZM931.614 38.9711H978.264L991.685 42.806H942.864C939.006 41.4908 935.254 40.2117 931.614 38.9711ZM945.797 43.806H995.184L1008.6 47.641H957.044C953.208 46.3328 949.457 45.0539 945.797 43.806ZM959.977 48.641H1012.1L1025.52 52.4759H971.221L959.977 48.641ZM974.153 53.4759H1029.02L1045.26 58.1167H987.757C983.135 56.54 978.598 54.9922 974.153 53.4759ZM990.688 59.1167H1048.76L1070.64 65.3691H1009.01C1002.78 63.2418 996.665 61.1559 990.688 59.1167ZM1011.94 66.3691H1074.14L1096.02 72.6215H1030.26C1024.06 70.5033 1017.95 68.4176 1011.94 66.3691ZM1033.19 73.6215H1099.52L1127.04 81.4856H1056.23C1048.43 78.8232 1040.75 76.1991 1033.19 73.6215ZM1059.16 82.4856H1130.54L1160.88 91.1555H1084.56C1075.99 88.2299 1067.52 85.3366 1059.16 82.4856ZM1087.49 92.1555H1164.38L1200.36 102.437H1117.6C1107.47 98.9788 1097.42 95.5464 1087.49 92.1555ZM1120.53 103.437H1203.86L1248.3 116.136H1157.72C1145.27 111.886 1132.85 107.643 1120.53 103.437ZM1160.64 117.136H1251.8L1307.52 133.058H1207.26C1191.8 127.778 1176.21 122.453 1160.64 117.136ZM1210.19 134.058H1311.02L1378.02 153.204H1266.23C1247.97 146.965 1229.19 140.549 1210.19 134.058ZM1338.61 178.99C1315.98 171.257 1291.53 162.902 1266.07 154.204H1149.83L1207.5 178.99H1338.61ZM1263.14 153.204C1244.86 146.959 1226.08 140.543 1207.09 134.058H1102.95L1147.5 153.204H1263.14ZM1204.17 133.058C1188.7 127.775 1173.11 122.449 1157.55 117.136H1063.57L1100.62 133.058H1204.17ZM1154.62 116.136C1142.17 111.884 1129.75 107.641 1117.43 103.437H1031.69L1061.24 116.136H1154.62ZM1114.51 102.437C1104.37 98.9772 1094.32 95.5448 1084.39 92.1555H1005.44L1029.37 102.437H1114.51ZM1081.46 91.1555C1072.89 88.2286 1064.42 85.3352 1056.07 82.4856H982.94L1003.11 91.1555H1081.46ZM1053.14 81.4856C1045.34 78.8219 1037.65 76.1977 1030.1 73.6215H962.314L980.613 81.4856H1053.14ZM1027.17 72.6215C1020.96 70.5023 1014.85 68.4165 1008.85 66.3691H945.438L959.987 72.6215H1027.17ZM1005.92 65.3691C999.678 63.2404 993.564 61.1544 987.591 59.1167H928.561L943.111 65.3691H1005.92ZM984.66 58.1167C980.035 56.539 975.498 54.9912 971.055 53.4759H915.435L926.234 58.1167H984.66ZM968.124 52.4759L956.879 48.641H904.184L913.108 52.4759H968.124ZM953.946 47.641C950.107 46.3316 946.355 45.0526 942.699 43.806H892.934L901.857 47.641H953.946ZM939.765 42.806C935.902 41.4891 932.149 40.21 928.514 38.9711H881.683L890.607 42.806H939.765ZM925.58 37.9711L919.055 35.7478H874.182L879.356 37.9711H925.58ZM916.119 34.7478C913.046 33.701 910.08 32.6907 907.225 31.7186H864.807L871.855 34.7478H916.119ZM904.288 30.7186C902.035 29.9515 899.857 29.2101 897.757 28.4953H857.306L862.48 30.7186H904.288ZM894.818 27.4953L890.652 26.0779H851.681L854.979 27.4953H894.818ZM887.711 25.0779C885.395 24.2903 883.212 23.5485 881.169 22.8546H844.18L849.354 25.0779H887.711ZM878.225 21.8546C876.745 21.3521 875.352 20.8793 874.048 20.4371H838.555L841.853 21.8546H878.225ZM871.097 19.4371C869.531 18.9066 868.132 18.4333 866.907 18.0196H832.929L836.228 19.4371H871.097ZM863.94 17.0196C862.293 16.4662 861.261 16.123 860.886 16.005H828.241L830.602 17.0196H863.94ZM3.28397 16.005L-6.17666 17.0196H19.4038L29.1845 16.005H3.28397ZM38.8766 16.005L29.0959 17.0196H55.2464L65.1508 16.005H38.8766ZM19.4556 18.0196L5.79062 19.4371H31.6463L45.4841 18.0196H19.4556ZM8.09737 22.8546L-13.6071 25.0779H18.9333L39.4726 22.8546H8.09737ZM48.7108 21.8546H17.8596L31.6974 20.4371H61.8058L48.7108 21.8546ZM71.044 19.4371H41.4597L55.2974 18.0196H84.139L71.044 19.4371ZM93.3772 17.0196H65.0597L74.9641 16.005H102.75L93.3772 17.0196ZM112.042 16.005L102.669 17.0196H128.587C131.997 16.6321 135.006 16.2911 137.539 16.005H112.042ZM93.4312 18.0196L80.3362 19.4371H107.381C111.794 18.933 115.956 18.4579 119.802 18.0196H93.4312ZM71.098 20.4371L58.003 21.8546H86.2454C90.4969 21.3678 94.6395 20.8937 98.6327 20.4371H71.098ZM48.7648 22.8546L28.2254 25.0779H58.1173C64.671 24.3263 71.1776 23.5804 77.5138 22.8546H48.7648ZM18.9872 26.0779L5.89226 27.4953H37.0471C41.1411 27.0254 45.2687 26.5517 49.3993 26.0779H18.9872ZM52.4994 30.7186H17.7414C24.0236 29.997 30.5204 29.2511 37.1043 28.4953H70.253L52.4994 30.7186ZM78.2382 27.4953H45.8178C49.9348 27.0229 54.0639 26.5493 58.1745 26.0779H89.5571L78.2382 27.4953ZM97.5424 25.0779H66.8961C73.2155 24.3535 79.4384 23.6405 85.4511 22.952L86.3025 22.8546H115.296L97.5424 25.0779ZM123.281 21.8546H95.0399C99.3408 21.3625 103.489 20.8882 107.438 20.4371H134.6L123.281 21.8546ZM142.585 19.4371H116.198C120.721 18.9211 124.874 18.4481 128.561 18.029L128.644 18.0196H153.904L142.585 19.4371ZM161.889 17.0196H137.467C139.064 16.8393 140.476 16.6803 141.685 16.5449C143.246 16.37 144.469 16.2343 145.313 16.1424C145.735 16.0964 146.062 16.0615 146.289 16.038C146.403 16.0263 146.49 16.0176 146.552 16.0119C146.584 16.0088 146.605 16.0071 146.616 16.0062C146.624 16.0055 146.627 16.0052 146.627 16.0051L146.625 16.005H169.991L161.889 17.0196ZM178.039 16.005L169.937 17.0196H204.303L212.083 16.005H178.039ZM161.952 18.0196L150.633 19.4371H185.765L196.635 18.0196H161.952ZM142.648 20.4371L131.329 21.8546H167.227L178.097 20.4371H142.648ZM123.344 22.8546L105.59 25.0779H142.509L159.558 22.8546H123.344ZM97.6047 26.0779L86.2859 27.4953H123.971L134.841 26.0779H97.6047ZM78.3006 28.4953L60.547 30.7186H99.2531L116.302 28.4953H78.3006ZM52.5618 31.7186L28.3735 34.7478H68.3559L91.5846 31.7186H52.5618ZM20.3882 35.7478L2.63462 37.9711H43.6382L60.6875 35.7478H20.3882ZM59.4861 42.806H14.295L43.7031 38.9711H86.1171L59.4861 42.806ZM93.0614 37.9711H51.3716L68.4209 35.7478H108.501L93.0614 37.9711ZM115.445 34.7478H76.0893L99.318 31.7186H136.48L115.445 34.7478ZM143.424 30.7186H106.986L124.036 28.4953H158.864L143.424 30.7186ZM165.808 27.4953H131.704L142.574 26.0779H175.651L165.808 27.4953ZM182.596 25.0779H150.242L167.292 22.8546H198.035L182.596 25.0779ZM204.979 21.8546H174.96L185.83 20.4371H214.822L204.979 21.8546ZM221.767 19.4371H193.498L204.368 18.0196H231.61L221.767 19.4371ZM238.554 17.0196H212.037L219.817 16.005H245.6L238.554 17.0196ZM252.616 16.005L245.57 17.0196H274.075L280.527 16.005H252.616ZM238.626 18.0196L228.783 19.4371H258.7L267.715 18.0196H238.626ZM221.838 20.4371L211.995 21.8546H243.326L252.341 20.4371H221.838ZM205.051 22.8546L189.611 25.0779H222.827L236.966 22.8546H205.051ZM182.667 26.0779L172.824 27.4953H207.452L216.467 26.0779H182.667ZM165.88 28.4953L150.44 30.7186H186.953L201.093 28.4953H165.88ZM143.496 31.7186L122.461 34.7478H161.329L180.593 31.7186H143.496ZM115.517 35.7478L100.077 37.9711H140.83L154.969 35.7478H115.517ZM93.133 38.9711L66.502 42.806H110.081L134.47 38.9711H93.133ZM59.5577 43.806L32.9267 47.641H79.3323L103.721 43.806H59.5577ZM25.9824 48.641L-0.648624 52.4759H48.5834L72.9726 48.641H25.9824ZM73.2413 58.1167H19.1476L48.6616 53.4759H100.201L73.2413 58.1167ZM106.01 52.4759H55.0213L79.4104 48.641H128.288L106.01 52.4759ZM134.097 47.641H85.7701L110.159 43.806H156.375L134.097 47.641ZM162.185 42.806H116.519L140.908 38.9711H184.463L162.185 42.806ZM190.272 37.9711H147.268L161.407 35.7478H203.188L190.272 37.9711ZM208.997 34.7478H167.767L187.031 31.7186H226.594L208.997 34.7478ZM232.403 30.7186H193.391L207.531 28.4953H245.319L232.403 30.7186ZM251.128 27.4953H213.89L222.905 26.0779H259.363L251.128 27.4953ZM265.172 25.0779H229.265L243.404 22.8546H278.088L265.172 25.0779ZM283.897 21.8546H249.764L258.779 20.4371H292.131L283.897 21.8546ZM297.94 19.4371H265.138L274.153 18.0196H306.175L297.94 19.4371ZM311.984 17.0196H280.513L286.965 16.005H317.878L311.984 17.0196ZM323.773 16.005L317.879 17.0196H345.546L350.793 16.005H323.773ZM312.07 18.0196L303.835 19.4371H333.042L340.373 18.0196H312.07ZM298.026 20.4371L289.791 21.8546H320.538L327.87 20.4371H298.026ZM283.982 22.8546L271.066 25.0779H303.867L315.366 22.8546H283.982ZM265.257 26.0779L257.023 27.4953H291.363L298.695 26.0779H265.257ZM251.214 28.4953L238.298 30.7186H274.692L286.191 28.4953H251.214ZM232.489 31.7186L214.892 34.7478H253.852L269.52 31.7186H232.489ZM209.082 35.7478L196.167 37.9711H237.181L248.68 35.7478H209.082ZM190.358 38.9711L168.079 42.806H212.174L232.009 38.9711H190.358ZM162.27 43.806L139.992 47.641H187.166L207.002 43.806H162.27ZM134.183 48.641L111.905 52.4759H162.159L181.994 48.641H134.183ZM106.095 53.4759L79.1359 58.1167H132.984L156.987 53.4759H106.095ZM73.3267 59.1167L37.0049 65.3691H95.4733L127.812 59.1167H73.3267ZM31.1956 66.3691H90.3012L57.9625 72.6215H-5.1262L31.1956 66.3691ZM87.1911 81.4856H17.3839L58.0583 73.6215H123.7L87.1911 81.4856ZM128.343 72.6215H63.2305L95.5691 66.3691H157.37L128.343 72.6215ZM162.012 65.3691H100.741L133.08 59.1167H191.039L162.012 65.3691ZM195.682 58.1167H138.252L162.255 53.4759H217.227L195.682 58.1167ZM221.869 52.4759H167.427L187.262 48.641H239.673L221.869 52.4759ZM244.316 47.641H192.434L212.269 43.806H262.119L244.316 47.641ZM266.762 42.806H217.442L237.277 38.9711H284.566L266.762 42.806ZM289.208 37.9711H242.449L253.948 35.7478H299.53L289.208 37.9711ZM304.173 34.7478H259.12L274.788 31.7186H318.235L304.173 34.7478ZM322.878 30.7186H279.96L291.459 28.4953H333.2L322.878 30.7186ZM337.842 27.4953H296.631L303.963 26.0779H344.423L337.842 27.4953ZM349.065 25.0779H309.135L320.634 22.8546H359.387L349.065 25.0779ZM364.03 21.8546H325.806L333.138 20.4371H370.61L364.03 21.8546ZM375.253 19.4371H338.31L345.641 18.0196H381.833L375.253 19.4371ZM386.476 17.0196H350.814L356.061 16.005H391.186L386.476 17.0196ZM-5.32744 102.437H73.8551L115.813 92.1555H42.4049L-5.32744 102.437ZM47.0474 91.1555H119.893L155.274 82.4856H87.2976L47.0474 91.1555ZM91.9401 81.4856H159.355L191.447 73.6215H128.449L91.9401 81.4856ZM133.092 72.6215H195.528L221.043 66.3691H162.119L133.092 72.6215ZM166.761 65.3691H225.124L250.639 59.1167H195.788L166.761 65.3691ZM200.431 58.1167H254.72L273.658 53.4759H221.976L200.431 58.1167ZM226.618 52.4759H277.739L293.389 48.641H244.422L226.618 52.4759ZM249.065 47.641H297.47L313.12 43.806H266.868L249.065 47.641ZM271.511 42.806H317.201L332.85 38.9711H289.315L271.511 42.806ZM293.957 37.9711H336.931L346.004 35.7478H304.279L293.957 37.9711ZM308.922 34.7478H350.085L362.446 31.7186H322.984L308.922 34.7478ZM327.627 30.7186H366.527L375.6 28.4953H337.949L327.627 30.7186ZM342.591 27.4953H379.681L385.466 26.0779H349.172L342.591 27.4953ZM353.814 25.0779H389.546L398.619 22.8546H364.136L353.814 25.0779ZM368.779 21.8546H402.7L408.485 20.4371H375.359L368.779 21.8546ZM380.002 19.4371H412.566L418.35 18.0196H386.582L380.002 19.4371ZM391.225 17.0196H422.431L426.571 16.005H395.935L391.225 17.0196ZM113.058 116.136H22.153L73.9758 103.437H157.498L113.058 116.136ZM160.998 102.437H78.0567L120.014 92.1555H196.978L160.998 102.437ZM200.478 91.1555H124.095L159.476 82.4856H230.818L200.478 91.1555ZM234.317 81.4856H163.556L195.649 73.6215H261.837L234.317 81.4856ZM265.337 72.6215H199.729L225.245 66.3691H287.217L265.337 72.6215ZM290.717 65.3691H229.325L254.841 59.1167H312.597L290.717 65.3691ZM316.096 58.1167H258.922L277.86 53.4759H332.337L316.096 58.1167ZM335.836 52.4759H281.941L297.591 48.641H349.256L335.836 52.4759ZM352.756 47.641H301.671L317.321 43.806H366.176L352.756 47.641ZM369.676 42.806H321.402L337.052 38.9711H383.096L369.676 42.806ZM386.595 37.9711H341.133L350.206 35.7478H394.376L386.595 37.9711ZM397.875 34.7478H354.287L366.648 31.7186H408.476L397.875 34.7478ZM411.975 30.7186H370.729L379.802 28.4953H419.756L411.975 30.7186ZM423.255 27.4953H383.883L389.667 26.0779H428.215L423.255 27.4953ZM431.715 25.0779H393.748L402.821 22.8546H439.495L431.715 25.0779ZM442.995 21.8546H406.902L412.686 20.4371H447.955L442.995 21.8546ZM451.455 19.4371H416.767L422.552 18.0196H456.415L451.455 19.4371ZM459.915 17.0196H426.633L430.773 16.005H463.465L459.915 17.0196ZM53.9792 134.058L-13.0204 153.204H98.7664C117.029 146.965 135.81 140.549 154.811 134.058H53.9792ZM57.4787 133.058H157.739C173.196 127.778 188.789 122.453 204.356 117.136H113.199L57.4787 133.058ZM116.698 116.136H207.284C219.73 111.886 232.153 107.643 244.471 103.437H161.138L116.698 116.136ZM164.638 102.437H247.399C257.527 98.9788 267.58 95.5464 277.511 92.1555H200.618L164.638 102.437ZM204.117 91.1555H280.44C289.01 88.2299 297.485 85.3366 305.836 82.4856H234.457L204.117 91.1555ZM237.957 81.4856H308.766C316.565 78.8232 324.253 76.1991 331.805 73.6215H265.477L237.957 81.4856ZM268.976 72.6215H334.735C340.942 70.5033 347.053 68.4176 353.057 66.3691H290.857L268.976 72.6215ZM294.356 65.3691H355.987C362.221 63.2418 368.335 61.1559 374.312 59.1167H316.236L294.356 65.3691ZM319.736 58.1167H377.243C381.865 56.54 386.402 54.9922 390.847 53.4759H335.976L319.736 58.1167ZM339.476 52.4759H393.779C397.599 51.173 401.349 49.8941 405.023 48.641H352.896L339.476 52.4759ZM356.395 47.641H407.956C411.792 46.3328 415.543 45.0539 419.203 43.806H369.816L356.395 47.641ZM373.315 42.806H422.136C425.994 41.4908 429.746 40.2117 433.386 38.9711H386.736L373.315 42.806ZM390.235 37.9711H436.321L442.845 35.7478H398.015L390.235 37.9711ZM401.515 34.7478H445.78C448.846 33.7032 451.812 32.6929 454.673 31.7186H412.115L401.515 34.7478ZM415.615 30.7186H457.61C459.857 29.9534 462.035 29.212 464.14 28.4953H423.395L415.615 30.7186ZM426.895 27.4953H467.078L471.244 26.0779H431.855L426.895 27.4953ZM435.355 25.0779H474.184C476.484 24.2956 478.665 23.5539 480.723 22.8546H443.135L435.355 25.0779ZM446.634 21.8546H483.666C485.131 21.357 486.523 20.8843 487.841 20.4371H451.595L446.634 21.8546ZM455.094 19.4371H490.788C492.307 18.9222 493.703 18.4492 494.972 18.0196H460.055L455.094 19.4371ZM463.554 17.0196H497.929C499.097 16.6253 500.103 16.2864 500.941 16.005H467.105L463.554 17.0196ZM501.06 17.0196C502.707 16.4662 503.739 16.123 504.114 16.005H536.759L534.398 17.0196H501.06ZM493.903 19.4371C495.469 18.9066 496.868 18.4333 498.093 18.0196H532.071L528.772 19.4371H493.903ZM486.775 21.8546C488.255 21.3521 489.648 20.8793 490.952 20.4371H526.445L523.147 21.8546H486.775ZM477.289 25.0779C479.605 24.2903 481.788 23.5485 483.831 22.8546H520.82L515.646 25.0779H477.289ZM470.182 27.4953L474.348 26.0779H513.319L510.021 27.4953H470.182ZM460.712 30.7186C462.965 29.9515 465.143 29.2101 467.243 28.4953H507.694L502.52 30.7186H460.712ZM448.881 34.7478C451.954 33.701 454.92 32.6907 457.775 31.7186H500.193L493.145 34.7478H448.881ZM439.42 37.9711L445.945 35.7478H490.818L485.644 37.9711H439.42ZM425.235 42.806C429.098 41.4891 432.851 40.21 436.486 38.9711H483.317L474.393 42.806H425.235ZM411.054 47.641C414.893 46.3316 418.645 45.0526 422.301 43.806H472.066L463.142 47.641H411.054ZM396.876 52.4759C400.699 51.1721 404.449 49.8932 408.121 48.641H460.816L451.892 52.4759H396.876ZM380.34 58.1167C384.965 56.539 389.502 54.9912 393.945 53.4759H449.565L438.766 58.1167H380.34ZM359.083 65.3691C365.322 63.2404 371.436 61.1544 377.409 59.1167H436.439L421.889 65.3691H359.083ZM337.831 72.6215C344.041 70.5023 350.153 68.4165 356.153 66.3691H419.562L405.013 72.6215H337.831ZM311.861 81.4856C319.665 78.8219 327.353 76.1977 334.901 73.6215H402.686L384.387 81.4856H311.861ZM283.535 91.1555C292.109 88.2286 300.584 85.3352 308.932 82.4856H382.06L361.885 91.1555H283.535ZM250.494 102.437C260.627 98.9772 270.679 95.5448 280.606 92.1555H359.558L335.633 102.437H250.494ZM210.379 116.136C222.83 111.884 235.253 107.641 247.565 103.437H333.306L303.756 116.136H210.379ZM160.833 133.058C176.3 127.775 191.893 122.449 207.45 117.136H301.429L264.378 133.058H160.833ZM101.86 153.204C120.139 146.959 138.92 140.543 157.905 134.058H262.051L217.5 153.204H101.86ZM215.173 154.204H98.9325C73.4725 162.902 49.0215 171.257 26.3887 178.99H157.495L215.173 154.204Z" fill="url(#paint1_linear)"/>
</g>
</g>
<defs>
<linearGradient id="paint0_linear" x1="696.494" y1="564.595" x2="687.855" y2="34.708" gradientUnits="userSpaceOnUse">
<stop stop-color="#FF9900"/>
<stop offset="1" stop-color="#FF9900" stop-opacity="0"/>
</linearGradient>
<linearGradient id="paint1_linear" x1="696.497" y1="570.452" x2="687.786" y2="38.3021" gradientUnits="userSpaceOnUse">
<stop stop-color="#FF9900"/>
<stop offset="1" stop-color="#FF9900" stop-opacity="0"/>
</linearGradient>
<clipPath id="clip0">
<rect width="1366" height="249" fill="white"/>
</clipPath>
<clipPath id="clip1">
<rect width="1366" height="249" fill="white" transform="translate(0 1)"/>
</clipPath>
</defs>
</svg>
