<svg width="180" height="40" viewBox="0 0 180 40" fill="none" xmlns="http://www.w3.org/2000/svg">
<path d="M62.493 27.1431C60.4052 27.1431 58.6769 26.4814 57.3081 25.1579C55.9531 23.8207 55.2756 22.1288 55.2756 20.0821C55.2756 18.0355 55.9531 16.3504 57.3081 15.0269C58.6769 13.6897 60.4052 13.0212 62.493 13.0212C64.5946 13.0212 66.3229 13.6829 67.6779 15.0064C69.0467 16.3299 69.7312 18.0218 69.7312 20.0821C69.7312 22.1425 69.0467 23.8344 67.6779 25.1579C66.3229 26.4814 64.5946 27.1431 62.493 27.1431ZM59.4443 23.2954C60.2185 24.1414 61.2348 24.5643 62.493 24.5643C63.7512 24.5643 64.7674 24.1414 65.5417 23.2954C66.316 22.4495 66.7032 21.3784 66.7032 20.0821C66.7032 18.7859 66.316 17.7148 65.5417 16.8689C64.7674 16.0229 63.7512 15.6 62.493 15.6C61.2348 15.6 60.2185 16.0229 59.4443 16.8689C58.6838 17.7148 58.3036 18.7859 58.3036 20.0821C58.3036 21.3784 58.6838 22.4495 59.4443 23.2954Z" fill="white"/>
<path d="M81.1307 26.8975H78.4968V20.9213C78.4968 19.6933 77.8815 19.0793 76.6509 19.0793C75.6969 19.0793 74.9364 19.4681 74.3696 20.2459V26.8975H71.7356V17.0121H74.3696V18.3015C75.2406 17.2782 76.409 16.7665 77.8746 16.7665C78.953 16.7665 79.7619 17.0463 80.3011 17.6057C80.8542 18.1651 81.1307 18.936 81.1307 19.9184V26.8975Z" fill="white"/>
<path d="M86.38 26.8975H83.746V13.2463H86.38V26.8975Z" fill="white"/>
<path d="M90.2983 15.9479C89.8697 15.9479 89.4964 15.7978 89.1784 15.4976C88.8742 15.1838 88.7221 14.8154 88.7221 14.3924C88.7221 13.9694 88.8742 13.6079 89.1784 13.3077C89.4964 13.0075 89.8697 12.8574 90.2983 12.8574C90.7407 12.8574 91.1141 13.0075 91.4182 13.3077C91.7224 13.6079 91.8745 13.9694 91.8745 14.3924C91.8745 14.8154 91.7224 15.1838 91.4182 15.4976C91.1141 15.7978 90.7407 15.9479 90.2983 15.9479ZM91.6256 26.8975H88.9917V17.0121H91.6256V26.8975Z" fill="white"/>
<path d="M103.632 26.8975H100.999V20.9213C100.999 19.6933 100.383 19.0793 99.1527 19.0793C98.1987 19.0793 97.4382 19.4681 96.8713 20.2459V26.8975H94.2374V17.0121H96.8713V18.3015C97.7424 17.2782 98.9107 16.7665 100.376 16.7665C101.455 16.7665 102.264 17.0463 102.803 17.6057C103.356 18.1651 103.632 18.936 103.632 19.9184V26.8975Z" fill="white"/>
<path d="M110.956 27.1431C109.407 27.1431 108.128 26.6656 107.119 25.7105C106.11 24.7554 105.605 23.5001 105.605 21.9446C105.605 20.4847 106.089 19.2567 107.057 18.2606C108.038 17.2646 109.283 16.7665 110.79 16.7665C112.283 16.7665 113.493 17.2714 114.419 18.2811C115.346 19.2771 115.809 20.587 115.809 22.2107V22.7837H108.363C108.446 23.4387 108.743 23.9845 109.255 24.4211C109.767 24.8577 110.43 25.076 111.246 25.076C111.689 25.076 112.166 24.9873 112.677 24.8099C113.203 24.6326 113.617 24.3938 113.921 24.0936L115.083 25.7719C114.074 26.686 112.698 27.1431 110.956 27.1431ZM113.258 21.0236C113.216 20.4642 112.988 19.9593 112.573 19.5091C112.172 19.0588 111.578 18.8337 110.79 18.8337C110.043 18.8337 109.462 19.0588 109.048 19.5091C108.633 19.9457 108.391 20.4505 108.322 21.0236H113.258Z" fill="white"/>
<path d="M136.789 26.8975H133.657L131.231 17.5238L128.825 26.8975H125.693L121.732 13.2463H125.03L127.456 23.1112L130.09 13.2463H132.392L135.005 23.1112L137.411 13.2463H140.729L136.789 26.8975Z" fill="white"/>
<path d="M149.874 26.8975H147.24V25.8742C146.521 26.7202 145.464 27.1431 144.067 27.1431C143.168 27.1431 142.36 26.8566 141.641 26.2835C140.935 25.6968 140.583 24.8918 140.583 23.8685C140.583 22.8042 140.929 22.006 141.62 21.4739C142.325 20.9417 143.141 20.6757 144.067 20.6757C145.491 20.6757 146.549 21.0782 147.24 21.8832V20.5529C147.24 20.048 147.04 19.6455 146.639 19.3453C146.238 19.0452 145.706 18.8951 145.042 18.8951C143.936 18.8951 142.961 19.2839 142.118 20.0617L141.122 18.322C142.311 17.285 143.77 16.7665 145.498 16.7665C146.784 16.7665 147.835 17.0599 148.651 17.6466C149.466 18.2333 149.874 19.1884 149.874 20.5119V26.8975ZM145.125 25.383C146.107 25.383 146.812 25.0965 147.24 24.5234V23.2954C146.812 22.7223 146.107 22.4358 145.125 22.4358C144.586 22.4358 144.136 22.5723 143.777 22.8451C143.417 23.1044 143.238 23.466 143.238 23.9299C143.238 24.3801 143.417 24.7349 143.777 24.9941C144.136 25.2534 144.586 25.383 145.125 25.383Z" fill="white"/>
<path d="M155.121 26.8975H152.487V13.2463H155.121V26.8975Z" fill="white"/>
<path d="M160.366 26.8975H157.733V13.2463H160.366V26.8975Z" fill="white"/>
<path d="M167.686 27.1431C166.138 27.1431 164.859 26.6656 163.849 25.7105C162.84 24.7554 162.335 23.5001 162.335 21.9446C162.335 20.4847 162.819 19.2567 163.787 18.2606C164.769 17.2646 166.013 16.7665 167.52 16.7665C169.013 16.7665 170.223 17.2714 171.15 18.2811C172.076 19.2771 172.539 20.587 172.539 22.2107V22.7837H165.094C165.177 23.4387 165.474 23.9845 165.985 24.4211C166.497 24.8577 167.161 25.076 167.976 25.076C168.419 25.076 168.896 24.9873 169.408 24.8099C169.933 24.6326 170.348 24.3938 170.652 24.0936L171.813 25.7719C170.804 26.686 169.428 27.1431 167.686 27.1431ZM169.988 21.0236C169.947 20.4642 169.719 19.9593 169.304 19.5091C168.903 19.0588 168.308 18.8337 167.52 18.8337C166.774 18.8337 166.193 19.0588 165.778 19.5091C165.363 19.9457 165.121 20.4505 165.052 21.0236H169.988Z" fill="white"/>
<path d="M177.802 27.1431C176.875 27.1431 176.17 26.9112 175.686 26.4473C175.202 25.9834 174.96 25.3148 174.96 24.4415V19.2839H173.301V17.0121H174.96V14.3106H177.615V17.0121H179.647V19.2839H177.615V23.7457C177.615 24.0595 177.698 24.3187 177.864 24.5234C178.03 24.7281 178.251 24.8304 178.527 24.8304C178.942 24.8304 179.246 24.7349 179.44 24.5439L180 26.5087C179.516 26.9316 178.783 27.1431 177.802 27.1431Z" fill="white"/>
<path fill-rule="evenodd" clip-rule="evenodd" d="M19.8425 40C30.8012 40 39.685 31.0457 39.685 20C39.685 8.9543 30.8012 0 19.8425 0C8.8838 0 0 8.9543 0 20C0 31.0457 8.8838 40 19.8425 40Z" fill="url(#paint0_linear)"/>
<path fill-rule="evenodd" clip-rule="evenodd" d="M4.43408 32.6024C4.43884 32.5545 4.44128 32.5057 4.44128 32.4561C4.44128 32.0692 4.30127 31.7526 4.05625 31.5063L6.22644 27.8479C6.68148 28.0589 7.20652 28.1997 7.73157 28.1997C8.85167 28.1997 9.83175 27.7072 10.4968 26.8981L13.7521 29.0791C13.6471 29.3253 13.5771 29.6068 13.5771 29.9234C13.5771 31.049 14.4872 31.9637 15.6073 31.9637C16.7274 31.9637 17.6374 31.049 17.6374 29.9234V29.853L24.9881 28.27C25.3731 29.3957 26.4582 30.24 27.7183 30.24C28.4534 30.24 29.1184 29.9585 29.6085 29.5012L32.7238 32.2803C32.6188 32.4561 32.5838 32.6672 32.5838 32.9134C32.5838 33.6172 33.0758 34.1755 33.7441 34.2709C34.2854 33.7352 34.7963 33.1685 35.2741 32.5735C35.1286 31.9712 34.6016 31.5415 33.9489 31.5415C33.6688 31.5415 33.4238 31.6119 33.2138 31.7526L30.1335 28.9736C30.4486 28.5163 30.6586 27.9182 30.6586 27.3202C30.6586 25.8779 29.6085 24.6819 28.2084 24.4357L28.4884 16.0282C28.9084 15.9579 29.2935 15.7468 29.5735 15.4302L35.279 18.8424L39.2323 24.2671C39.3009 23.9491 39.362 23.6282 39.4153 23.3047L36.014 18.5962L39.2512 15.8213C39.1956 15.5577 39.1349 15.296 39.0691 15.0363L35.489 18.1389L29.9235 14.797C29.9935 14.5859 30.0285 14.41 30.0285 14.1638C30.0285 13.1437 29.1885 12.2994 28.1734 12.2994C27.7183 12.2994 27.2983 12.4753 26.9483 12.7567L21.2428 8.42986C21.3128 8.25397 21.3478 8.07809 21.3478 7.9022C21.3478 7.12829 20.7527 6.53027 19.9826 6.53027C19.2126 6.53027 18.6175 7.12829 18.6175 7.9022C18.6175 8.32433 18.7925 8.67611 19.0726 8.92235L16.4123 14.3045C16.1673 14.2342 15.9223 14.199 15.6773 14.199C14.8372 14.199 14.1021 14.6211 13.6821 15.2895L7.06651 12.229L7.06651 12.229C7.10152 12.0531 7.13652 11.8773 7.13652 11.7014C7.13652 10.5757 6.22644 9.66108 5.10634 9.66108C3.98624 9.66108 3.04116 10.5405 3.04116 11.7014C3.04116 12.8622 3.95124 13.7417 5.07134 13.7417C5.7714 13.7417 6.40145 13.3899 6.75148 12.8622L13.3671 15.9227C13.2971 16.1337 13.2621 16.38 13.2621 16.5911C13.2621 17.1187 13.4371 17.6464 13.7521 18.0333L10.0068 21.8677C9.41172 21.3752 8.60665 21.0586 7.76657 21.0586C6.47146 21.0586 5.35136 21.7622 4.72131 22.7823L0.00622559 20.5091C0.0131449 20.7881 0.0257359 21.0658 0.0438868 21.3419L4.40628 23.4155C4.26627 23.8025 4.19626 24.1894 4.19626 24.6115C4.19626 25.7724 4.75631 26.8277 5.63139 27.4609L3.4612 31.1546C3.42685 31.1431 3.38875 31.1316 3.34814 31.1213C3.68786 31.6321 4.05033 32.1264 4.43408 32.6024ZM20.0176 9.27412C19.9126 9.27412 19.8426 9.27412 19.7376 9.23895L17.0774 14.6563C17.6724 15.0784 18.0925 15.8172 18.0925 16.6262C18.0925 17.0835 17.9525 17.5409 17.7074 17.9278L25.8632 25.1744C26.3182 24.7523 26.9133 24.506 27.5433 24.4357L27.8233 16.0282C26.9833 15.8523 26.3882 15.1136 26.3882 14.2342C26.3882 13.9527 26.4582 13.6713 26.5982 13.4251L20.8577 8.9927C20.6127 9.16859 20.3327 9.27412 20.0176 9.27412ZM15.6073 27.8127C16.4473 27.8127 17.1824 28.3755 17.4974 29.1143L24.8481 27.4609V27.2147C24.8481 26.5815 25.0581 26.0186 25.3731 25.5613L17.2524 18.3499C16.8324 18.7017 16.3073 18.9128 15.7123 18.9128C15.1522 18.9128 14.6622 18.7369 14.2771 18.4555L10.4968 22.2898C10.9869 22.923 11.3019 23.6969 11.3019 24.5764C11.3019 25.2096 11.1619 25.7724 10.8818 26.2649L14.1371 28.4459C14.4872 28.0589 15.0122 27.8127 15.6073 27.8127Z" fill="white" fill-opacity="0.8"/>
<defs>
<linearGradient id="paint0_linear" x1="19.8425" y1="-20" x2="-20.1562" y2="19.6838" gradientUnits="userSpaceOnUse">
<stop stop-color="#FCA800"/>
<stop offset="1" stop-color="#F76B1C"/>
</linearGradient>
</defs>
</svg>
