<svg width="32" height="32" viewBox="0 0 32 32" fill="none" xmlns="http://www.w3.org/2000/svg">
<g clip-path="url(#clip0)">
<path fill-rule="evenodd" clip-rule="evenodd" d="M32 16C32 24.8366 24.8366 32 16 32C7.16336 32 0 24.8366 0 16C0 7.16336 7.16336 0 16 0C24.8366 0 32 7.16336 32 16Z" fill="white"/>
<path fill-rule="evenodd" clip-rule="evenodd" d="M29.5866 24.4598C28.7236 25.8548 27.6008 27.1055 26.3605 28.1694C26.289 28.2312 26.2176 28.2919 26.1447 28.3511C25.2725 29.074 24.3205 29.7042 23.3052 30.228C23.142 30.3143 22.9776 30.3963 22.8104 30.473C20.7461 31.4533 18.4364 32 16 32C13.5111 32 11.1555 31.429 9.05759 30.4098C8.94828 30.3586 8.84041 30.3047 8.7327 30.2482C7.71605 29.727 6.76271 29.0983 5.88766 28.3766C5.78933 28.2971 5.69212 28.2151 5.5965 28.133C4.37349 27.0774 3.26227 25.8386 2.40869 24.4598H9.05759V16L13.6702 20.6063L14.355 21.2903L16.0297 22.9625L17.703 21.2903L18.3892 20.6063L22.8104 16.1899V24.4598H29.5866Z" fill="#4C4C4C"/>
<path fill-rule="evenodd" clip-rule="evenodd" d="M32 15.7799C32 17.5814 31.7948 19.3116 31.2308 20.9231H26.419V7.65595L22.849 11.1771L16.0299 17.9036L5.5376 7.55559V20.9231H0.769231C0.205071 19.3116 0 17.5814 0 15.7799C0 13.1682 0.644 10.7049 1.78432 8.53457C2.31184 7.52766 2.94656 6.58338 3.67472 5.71817C4.24144 5.04295 4.86512 4.41443 5.5376 3.84068C6.5872 2.94595 7.756 2.18252 9.01824 1.57941C11.1282 0.566973 13.497 0 16 0C18.4501 0 20.773 0.542987 22.849 1.51645C24.1437 2.12098 25.3437 2.89388 26.419 3.80454C27.1186 4.39708 27.7669 5.04831 28.3512 5.75036C29.0779 6.61826 29.7112 7.56363 30.236 8.57197C31.364 10.733 32 13.1829 32 15.7799Z" fill="#FF6600"/>
</g>
<defs>
<clipPath id="clip0">
<path d="M0 0H32V32H0V0Z" fill="white"/>
</clipPath>
</defs>
</svg>
