<svg width="168" height="168" viewBox="0 0 168 168" fill="none" xmlns="http://www.w3.org/2000/svg">
<g clip-path="url(#clip0)">
<path d="M5.09091 0H0V5.09091H5.09091V0Z" fill="white"/>
<path d="M5.09091 5.09082H0V10.1817H5.09091V5.09082Z" fill="white"/>
<path d="M5.09091 10.1826H0V15.2735H5.09091V10.1826Z" fill="white"/>
<path d="M5.09091 15.2715H0V20.3624H5.09091V15.2715Z" fill="white"/>
<path d="M5.09091 20.3643H0V25.4552H5.09091V20.3643Z" fill="white"/>
<path d="M5.09091 25.4551H0V30.546H5.09091V25.4551Z" fill="white"/>
<path d="M5.09091 30.5449H0V35.6358H5.09091V30.5449Z" fill="white"/>
<path d="M5.09091 40.7285H0V45.8194H5.09091V40.7285Z" fill="white"/>
<path d="M5.09091 50.9092H0V56.0001H5.09091V50.9092Z" fill="white"/>
<path d="M5.09091 56H0V61.0909H5.09091V56Z" fill="white"/>
<path d="M5.09091 71.2715H0V76.3624H5.09091V71.2715Z" fill="white"/>
<path d="M5.09091 81.4551H0V86.546H5.09091V81.4551Z" fill="white"/>
<path d="M5.09091 96.7285H0V101.819H5.09091V96.7285Z" fill="white"/>
<path d="M5.09091 132.362H0V137.453H5.09091V132.362Z" fill="white"/>
<path d="M5.09091 137.455H0V142.546H5.09091V137.455Z" fill="white"/>
<path d="M5.09091 142.545H0V147.636H5.09091V142.545Z" fill="white"/>
<path d="M5.09091 147.636H0V152.727H5.09091V147.636Z" fill="white"/>
<path d="M5.09091 152.729H0V157.819H5.09091V152.729Z" fill="white"/>
<path d="M5.09091 157.817H0V162.908H5.09091V157.817Z" fill="white"/>
<path d="M5.09091 162.909H0V168H5.09091V162.909Z" fill="white"/>
<path d="M10.1819 0H5.09094V5.09091H10.1819V0Z" fill="white"/>
<path d="M10.1819 30.5449H5.09094V35.6358H10.1819V30.5449Z" fill="white"/>
<path d="M10.1819 40.7285H5.09094V45.8194H10.1819V40.7285Z" fill="white"/>
<path d="M10.1819 61.0908H5.09094V66.1817H10.1819V61.0908Z" fill="white"/>
<path d="M10.1819 101.818H5.09094V106.909H10.1819V101.818Z" fill="white"/>
<path d="M10.1819 106.909H5.09094V112H10.1819V106.909Z" fill="white"/>
<path d="M10.1819 112H5.09094V117.091H10.1819V112Z" fill="white"/>
<path d="M10.1819 117.091H5.09094V122.182H10.1819V117.091Z" fill="white"/>
<path d="M10.1819 122.182H5.09094V127.273H10.1819V122.182Z" fill="white"/>
<path d="M10.1819 132.362H5.09094V137.453H10.1819V132.362Z" fill="white"/>
<path d="M10.1819 162.909H5.09094V168H10.1819V162.909Z" fill="white"/>
<path d="M15.2728 0H10.1819V5.09091H15.2728V0Z" fill="white"/>
<path d="M15.2728 10.1826H10.1819V15.2735H15.2728V10.1826Z" fill="white"/>
<path d="M15.2728 15.2715H10.1819V20.3624H15.2728V15.2715Z" fill="white"/>
<path d="M15.2728 20.3643H10.1819V25.4552H15.2728V20.3643Z" fill="white"/>
<path d="M15.2728 30.5449H10.1819V35.6358H15.2728V30.5449Z" fill="white"/>
<path d="M15.2728 40.7285H10.1819V45.8194H15.2728V40.7285Z" fill="white"/>
<path d="M15.2728 61.0908H10.1819V66.1817H15.2728V61.0908Z" fill="white"/>
<path d="M15.2728 66.1816H10.1819V71.2725H15.2728V66.1816Z" fill="white"/>
<path d="M15.2728 81.4551H10.1819V86.546H15.2728V81.4551Z" fill="white"/>
<path d="M15.2728 86.5449H10.1819V91.6358H15.2728V86.5449Z" fill="white"/>
<path d="M15.2728 91.6357H10.1819V96.7267H15.2728V91.6357Z" fill="white"/>
<path d="M15.2728 96.7285H10.1819V101.819H15.2728V96.7285Z" fill="white"/>
<path d="M15.2728 106.909H10.1819V112H15.2728V106.909Z" fill="white"/>
<path d="M15.2728 112H10.1819V117.091H15.2728V112Z" fill="white"/>
<path d="M15.2728 122.182H10.1819V127.273H15.2728V122.182Z" fill="white"/>
<path d="M15.2728 132.362H10.1819V137.453H15.2728V132.362Z" fill="white"/>
<path d="M15.2728 142.545H10.1819V147.636H15.2728V142.545Z" fill="white"/>
<path d="M15.2728 147.636H10.1819V152.727H15.2728V147.636Z" fill="white"/>
<path d="M15.2728 152.729H10.1819V157.819H15.2728V152.729Z" fill="white"/>
<path d="M15.2728 162.909H10.1819V168H15.2728V162.909Z" fill="white"/>
<path d="M20.3636 0H15.2727V5.09091H20.3636V0Z" fill="white"/>
<path d="M20.3636 10.1826H15.2727V15.2735H20.3636V10.1826Z" fill="white"/>
<path d="M20.3636 15.2715H15.2727V20.3624H20.3636V15.2715Z" fill="white"/>
<path d="M20.3636 20.3643H15.2727V25.4552H20.3636V20.3643Z" fill="white"/>
<path d="M20.3636 30.5449H15.2727V35.6358H20.3636V30.5449Z" fill="white"/>
<path d="M20.3636 40.7285H15.2727V45.8194H20.3636V40.7285Z" fill="white"/>
<path d="M20.3636 45.8184H15.2727V50.9093H20.3636V45.8184Z" fill="white"/>
<path d="M20.3636 50.9092H15.2727V56.0001H20.3636V50.9092Z" fill="white"/>
<path d="M20.3636 56H15.2727V61.0909H20.3636V56Z" fill="white"/>
<path d="M20.3636 71.2715H15.2727V76.3624H20.3636V71.2715Z" fill="white"/>
<path d="M20.3636 86.5449H15.2727V91.6358H20.3636V86.5449Z" fill="white"/>
<path d="M20.3636 112H15.2727V117.091H20.3636V112Z" fill="white"/>
<path d="M20.3636 117.091H15.2727V122.182H20.3636V117.091Z" fill="white"/>
<path d="M20.3636 122.182H15.2727V127.273H20.3636V122.182Z" fill="white"/>
<path d="M20.3636 132.362H15.2727V137.453H20.3636V132.362Z" fill="white"/>
<path d="M20.3636 142.545H15.2727V147.636H20.3636V142.545Z" fill="white"/>
<path d="M20.3636 147.636H15.2727V152.727H20.3636V147.636Z" fill="white"/>
<path d="M20.3636 152.729H15.2727V157.819H20.3636V152.729Z" fill="white"/>
<path d="M20.3636 162.909H15.2727V168H20.3636V162.909Z" fill="white"/>
<path d="M25.4546 0H20.3636V5.09091H25.4546V0Z" fill="white"/>
<path d="M25.4546 10.1826H20.3636V15.2735H25.4546V10.1826Z" fill="white"/>
<path d="M25.4546 15.2715H20.3636V20.3624H25.4546V15.2715Z" fill="white"/>
<path d="M25.4546 20.3643H20.3636V25.4552H25.4546V20.3643Z" fill="white"/>
<path d="M25.4546 30.5449H20.3636V35.6358H25.4546V30.5449Z" fill="white"/>
<path d="M25.4546 40.7285H20.3636V45.8194H25.4546V40.7285Z" fill="white"/>
<path d="M25.4546 61.0908H20.3636V66.1817H25.4546V61.0908Z" fill="white"/>
<path d="M25.4546 76.3643H20.3636V81.4552H25.4546V76.3643Z" fill="white"/>
<path d="M25.4546 81.4551H20.3636V86.546H25.4546V81.4551Z" fill="white"/>
<path d="M25.4546 112H20.3636V117.091H25.4546V112Z" fill="white"/>
<path d="M25.4546 132.362H20.3636V137.453H25.4546V132.362Z" fill="white"/>
<path d="M25.4546 142.545H20.3636V147.636H25.4546V142.545Z" fill="white"/>
<path d="M25.4546 147.636H20.3636V152.727H25.4546V147.636Z" fill="white"/>
<path d="M25.4546 152.729H20.3636V157.819H25.4546V152.729Z" fill="white"/>
<path d="M25.4546 162.909H20.3636V168H25.4546V162.909Z" fill="white"/>
<path d="M30.5455 0H25.4546V5.09091H30.5455V0Z" fill="white"/>
<path d="M30.5455 30.5449H25.4546V35.6358H30.5455V30.5449Z" fill="white"/>
<path d="M30.5455 56H25.4546V61.0909H30.5455V56Z" fill="white"/>
<path d="M30.5455 71.2715H25.4546V76.3624H30.5455V71.2715Z" fill="white"/>
<path d="M30.5455 76.3643H25.4546V81.4552H30.5455V76.3643Z" fill="white"/>
<path d="M30.5455 81.4551H25.4546V86.546H30.5455V81.4551Z" fill="white"/>
<path d="M30.5455 86.5449H25.4546V91.6358H30.5455V86.5449Z" fill="white"/>
<path d="M30.5455 101.818H25.4546V106.909H30.5455V101.818Z" fill="white"/>
<path d="M30.5455 106.909H25.4546V112H30.5455V106.909Z" fill="white"/>
<path d="M30.5455 132.362H25.4546V137.453H30.5455V132.362Z" fill="white"/>
<path d="M30.5455 162.909H25.4546V168H30.5455V162.909Z" fill="white"/>
<path d="M35.6363 0H30.5454V5.09091H35.6363V0Z" fill="white"/>
<path d="M35.6363 5.09082H30.5454V10.1817H35.6363V5.09082Z" fill="white"/>
<path d="M35.6363 10.1826H30.5454V15.2735H35.6363V10.1826Z" fill="white"/>
<path d="M35.6363 15.2715H30.5454V20.3624H35.6363V15.2715Z" fill="white"/>
<path d="M35.6363 20.3643H30.5454V25.4552H35.6363V20.3643Z" fill="white"/>
<path d="M35.6363 25.4551H30.5454V30.546H35.6363V25.4551Z" fill="white"/>
<path d="M35.6363 30.5449H30.5454V35.6358H35.6363V30.5449Z" fill="white"/>
<path d="M35.6363 40.7285H30.5454V45.8194H35.6363V40.7285Z" fill="white"/>
<path d="M35.6363 50.9092H30.5454V56.0001H35.6363V50.9092Z" fill="white"/>
<path d="M35.6363 61.0908H30.5454V66.1817H35.6363V61.0908Z" fill="white"/>
<path d="M35.6363 71.2715H30.5454V76.3624H35.6363V71.2715Z" fill="white"/>
<path d="M35.6363 81.4551H30.5454V86.546H35.6363V81.4551Z" fill="white"/>
<path d="M35.6363 91.6357H30.5454V96.7267H35.6363V91.6357Z" fill="white"/>
<path d="M35.6363 101.818H30.5454V106.909H35.6363V101.818Z" fill="white"/>
<path d="M35.6363 112H30.5454V117.091H35.6363V112Z" fill="white"/>
<path d="M35.6363 122.182H30.5454V127.273H35.6363V122.182Z" fill="white"/>
<path d="M35.6363 132.362H30.5454V137.453H35.6363V132.362Z" fill="white"/>
<path d="M35.6363 137.455H30.5454V142.546H35.6363V137.455Z" fill="white"/>
<path d="M35.6363 142.545H30.5454V147.636H35.6363V142.545Z" fill="white"/>
<path d="M35.6363 147.636H30.5454V152.727H35.6363V147.636Z" fill="white"/>
<path d="M35.6363 152.729H30.5454V157.819H35.6363V152.729Z" fill="white"/>
<path d="M35.6363 157.817H30.5454V162.908H35.6363V157.817Z" fill="white"/>
<path d="M35.6363 162.909H30.5454V168H35.6363V162.909Z" fill="white"/>
<path d="M40.7273 40.7285H35.6364V45.8194H40.7273V40.7285Z" fill="white"/>
<path d="M40.7273 45.8184H35.6364V50.9093H40.7273V45.8184Z" fill="white"/>
<path d="M40.7273 56H35.6364V61.0909H40.7273V56Z" fill="white"/>
<path d="M40.7273 61.0908H35.6364V66.1817H40.7273V61.0908Z" fill="white"/>
<path d="M40.7273 66.1816H35.6364V71.2725H40.7273V66.1816Z" fill="white"/>
<path d="M40.7273 81.4551H35.6364V86.546H40.7273V81.4551Z" fill="white"/>
<path d="M40.7273 86.5449H35.6364V91.6358H40.7273V86.5449Z" fill="white"/>
<path d="M40.7273 91.6357H35.6364V96.7267H40.7273V91.6357Z" fill="white"/>
<path d="M40.7273 117.091H35.6364V122.182H40.7273V117.091Z" fill="white"/>
<path d="M45.8182 5.09082H40.7273V10.1817H45.8182V5.09082Z" fill="white"/>
<path d="M45.8182 15.2715H40.7273V20.3624H45.8182V15.2715Z" fill="white"/>
<path d="M45.8182 25.4551H40.7273V30.546H45.8182V25.4551Z" fill="white"/>
<path d="M45.8182 30.5449H40.7273V35.6358H45.8182V30.5449Z" fill="white"/>
<path d="M45.8182 40.7285H40.7273V45.8194H45.8182V40.7285Z" fill="white"/>
<path d="M45.8182 50.9092H40.7273V56.0001H45.8182V50.9092Z" fill="white"/>
<path d="M45.8182 56H40.7273V61.0909H45.8182V56Z" fill="white"/>
<path d="M45.8182 76.3643H40.7273V81.4552H45.8182V76.3643Z" fill="white"/>
<path d="M45.8182 81.4551H40.7273V86.546H45.8182V81.4551Z" fill="white"/>
<path d="M45.8182 86.5449H40.7273V91.6358H45.8182V86.5449Z" fill="white"/>
<path d="M45.8182 101.818H40.7273V106.909H45.8182V101.818Z" fill="white"/>
<path d="M45.8182 127.271H40.7273V132.362H45.8182V127.271Z" fill="white"/>
<path d="M45.8182 132.362H40.7273V137.453H45.8182V132.362Z" fill="white"/>
<path d="M45.8182 142.545H40.7273V147.636H45.8182V142.545Z" fill="white"/>
<path d="M45.8182 147.636H40.7273V152.727H45.8182V147.636Z" fill="white"/>
<path d="M45.8182 152.729H40.7273V157.819H45.8182V152.729Z" fill="white"/>
<path d="M45.8182 157.817H40.7273V162.908H45.8182V157.817Z" fill="white"/>
<path d="M45.8182 162.909H40.7273V168H45.8182V162.909Z" fill="white"/>
<path d="M50.909 15.2715H45.8181V20.3624H50.909V15.2715Z" fill="white"/>
<path d="M50.909 20.3643H45.8181V25.4552H50.909V20.3643Z" fill="white"/>
<path d="M50.909 25.4551H45.8181V30.546H50.909V25.4551Z" fill="white"/>
<path d="M50.909 35.6377H45.8181V40.7286H50.909V35.6377Z" fill="white"/>
<path d="M50.909 40.7285H45.8181V45.8194H50.909V40.7285Z" fill="white"/>
<path d="M50.909 61.0908H45.8181V66.1817H50.909V61.0908Z" fill="white"/>
<path d="M50.909 66.1816H45.8181V71.2725H50.909V66.1816Z" fill="white"/>
<path d="M50.909 76.3643H45.8181V81.4552H50.909V76.3643Z" fill="white"/>
<path d="M50.909 81.4551H45.8181V86.546H50.909V81.4551Z" fill="white"/>
<path d="M50.909 91.6357H45.8181V96.7267H50.909V91.6357Z" fill="white"/>
<path d="M50.909 96.7285H45.8181V101.819H50.909V96.7285Z" fill="white"/>
<path d="M50.909 101.818H45.8181V106.909H50.909V101.818Z" fill="white"/>
<path d="M50.909 117.091H45.8181V122.182H50.909V117.091Z" fill="white"/>
<path d="M50.909 127.271H45.8181V132.362H50.909V127.271Z" fill="white"/>
<path d="M50.909 132.362H45.8181V137.453H50.909V132.362Z" fill="white"/>
<path d="M50.909 137.455H45.8181V142.546H50.909V137.455Z" fill="white"/>
<path d="M50.909 157.817H45.8181V162.908H50.909V157.817Z" fill="white"/>
<path d="M50.909 162.909H45.8181V168H50.909V162.909Z" fill="white"/>
<path d="M56.0001 0H50.9092V5.09091H56.0001V0Z" fill="white"/>
<path d="M56.0001 5.09082H50.9092V10.1817H56.0001V5.09082Z" fill="white"/>
<path d="M56.0001 15.2715H50.9092V20.3624H56.0001V15.2715Z" fill="white"/>
<path d="M56.0001 30.5449H50.9092V35.6358H56.0001V30.5449Z" fill="white"/>
<path d="M56.0001 35.6377H50.9092V40.7286H56.0001V35.6377Z" fill="white"/>
<path d="M56.0001 45.8184H50.9092V50.9093H56.0001V45.8184Z" fill="white"/>
<path d="M56.0001 50.9092H50.9092V56.0001H56.0001V50.9092Z" fill="white"/>
<path d="M56.0001 61.0908H50.9092V66.1817H56.0001V61.0908Z" fill="white"/>
<path d="M56.0001 71.2715H50.9092V76.3624H56.0001V71.2715Z" fill="white"/>
<path d="M56.0001 76.3643H50.9092V81.4552H56.0001V76.3643Z" fill="white"/>
<path d="M56.0001 81.4551H50.9092V86.546H56.0001V81.4551Z" fill="white"/>
<path d="M56.0001 86.5449H50.9092V91.6358H56.0001V86.5449Z" fill="white"/>
<path d="M56.0001 112H50.9092V117.091H56.0001V112Z" fill="white"/>
<path d="M56.0001 117.091H50.9092V122.182H56.0001V117.091Z" fill="white"/>
<path d="M56.0001 127.271H50.9092V132.362H56.0001V127.271Z" fill="white"/>
<path d="M56.0001 132.362H50.9092V137.453H56.0001V132.362Z" fill="white"/>
<path d="M56.0001 147.636H50.9092V152.727H56.0001V147.636Z" fill="white"/>
<path d="M56.0001 152.729H50.9092V157.819H56.0001V152.729Z" fill="white"/>
<path d="M56.0001 157.817H50.9092V162.908H56.0001V157.817Z" fill="white"/>
<path d="M56.0001 162.909H50.9092V168H56.0001V162.909Z" fill="white"/>
<path d="M61.0909 25.4551H56V30.546H61.0909V25.4551Z" fill="white"/>
<path d="M61.0909 35.6377H56V40.7286H61.0909V35.6377Z" fill="white"/>
<path d="M61.0909 40.7285H56V45.8194H61.0909V40.7285Z" fill="white"/>
<path d="M61.0909 71.2715H56V76.3624H61.0909V71.2715Z" fill="white"/>
<path d="M61.0909 76.3643H56V81.4552H61.0909V76.3643Z" fill="white"/>
<path d="M61.0909 81.4551H56V86.546H61.0909V81.4551Z" fill="white"/>
<path d="M61.0909 112H56V117.091H61.0909V112Z" fill="white"/>
<path d="M61.0909 117.091H56V122.182H61.0909V117.091Z" fill="white"/>
<path d="M61.0909 122.182H56V127.273H61.0909V122.182Z" fill="white"/>
<path d="M61.0909 152.729H56V157.819H61.0909V152.729Z" fill="white"/>
<path d="M61.0909 157.817H56V162.908H61.0909V157.817Z" fill="white"/>
<path d="M61.0909 162.909H56V168H61.0909V162.909Z" fill="white"/>
<path d="M66.1819 0H61.0909V5.09091H66.1819V0Z" fill="white"/>
<path d="M66.1819 10.1826H61.0909V15.2735H66.1819V10.1826Z" fill="white"/>
<path d="M66.1819 15.2715H61.0909V20.3624H66.1819V15.2715Z" fill="white"/>
<path d="M66.1819 25.4551H61.0909V30.546H66.1819V25.4551Z" fill="white"/>
<path d="M66.1819 30.5449H61.0909V35.6358H66.1819V30.5449Z" fill="white"/>
<path d="M66.1819 45.8184H61.0909V50.9093H66.1819V45.8184Z" fill="white"/>
<path d="M66.1819 56H61.0909V61.0909H66.1819V56Z" fill="white"/>
<path d="M66.1819 61.0908H61.0909V66.1817H66.1819V61.0908Z" fill="white"/>
<path d="M66.1819 71.2715H61.0909V76.3624H66.1819V71.2715Z" fill="white"/>
<path d="M66.1819 86.5449H61.0909V91.6358H66.1819V86.5449Z" fill="white"/>
<path d="M66.1819 96.7285H61.0909V101.819H66.1819V96.7285Z" fill="white"/>
<path d="M66.1819 101.818H61.0909V106.909H66.1819V101.818Z" fill="white"/>
<path d="M66.1819 112H61.0909V117.091H66.1819V112Z" fill="white"/>
<path d="M66.1819 127.271H61.0909V132.362H66.1819V127.271Z" fill="white"/>
<path d="M66.1819 137.455H61.0909V142.546H66.1819V137.455Z" fill="white"/>
<path d="M66.1819 142.545H61.0909V147.636H66.1819V142.545Z" fill="white"/>
<path d="M66.1819 152.729H61.0909V157.819H66.1819V152.729Z" fill="white"/>
<path d="M71.2728 0H66.1819V5.09091H71.2728V0Z" fill="white"/>
<path d="M71.2728 15.2715H66.1819V20.3624H71.2728V15.2715Z" fill="white"/>
<path d="M71.2728 45.8184H66.1819V50.9093H71.2728V45.8184Z" fill="white"/>
<path d="M71.2728 50.9092H66.1819V56.0001H71.2728V50.9092Z" fill="white"/>
<path d="M71.2728 56H66.1819V61.0909H71.2728V56Z" fill="white"/>
<path d="M71.2728 86.5449H66.1819V91.6358H71.2728V86.5449Z" fill="white"/>
<path d="M71.2728 91.6357H66.1819V96.7267H71.2728V91.6357Z" fill="white"/>
<path d="M71.2728 96.7285H66.1819V101.819H71.2728V96.7285Z" fill="white"/>
<path d="M71.2728 127.271H66.1819V132.362H71.2728V127.271Z" fill="white"/>
<path d="M71.2728 132.362H66.1819V137.453H71.2728V132.362Z" fill="white"/>
<path d="M71.2728 137.455H66.1819V142.546H71.2728V137.455Z" fill="white"/>
<path d="M76.3636 0H71.2727V5.09091H76.3636V0Z" fill="white"/>
<path d="M76.3636 5.09082H71.2727V10.1817H76.3636V5.09082Z" fill="white"/>
<path d="M76.3636 10.1826H71.2727V15.2735H76.3636V10.1826Z" fill="white"/>
<path d="M76.3636 20.3643H71.2727V25.4552H76.3636V20.3643Z" fill="white"/>
<path d="M76.3636 30.5449H71.2727V35.6358H76.3636V30.5449Z" fill="white"/>
<path d="M76.3636 35.6377H71.2727V40.7286H76.3636V35.6377Z" fill="white"/>
<path d="M76.3636 50.9092H71.2727V56.0001H76.3636V50.9092Z" fill="white"/>
<path d="M76.3636 61.0908H71.2727V66.1817H76.3636V61.0908Z" fill="white"/>
<path d="M76.3636 76.3643H71.2727V81.4552H76.3636V76.3643Z" fill="white"/>
<path d="M76.3636 86.5449H71.2727V91.6358H76.3636V86.5449Z" fill="white"/>
<path d="M76.3636 91.6357H71.2727V96.7267H76.3636V91.6357Z" fill="white"/>
<path d="M76.3636 101.818H71.2727V106.909H76.3636V101.818Z" fill="white"/>
<path d="M76.3636 117.091H71.2727V122.182H76.3636V117.091Z" fill="white"/>
<path d="M76.3636 127.271H71.2727V132.362H76.3636V127.271Z" fill="white"/>
<path d="M76.3636 132.362H71.2727V137.453H76.3636V132.362Z" fill="white"/>
<path d="M76.3636 142.545H71.2727V147.636H76.3636V142.545Z" fill="white"/>
<path d="M76.3636 157.817H71.2727V162.908H76.3636V157.817Z" fill="white"/>
<path d="M81.4546 5.09082H76.3636V10.1817H81.4546V5.09082Z" fill="white"/>
<path d="M81.4546 15.2715H76.3636V20.3624H81.4546V15.2715Z" fill="white"/>
<path d="M81.4546 25.4551H76.3636V30.546H81.4546V25.4551Z" fill="white"/>
<path d="M81.4546 35.6377H76.3636V40.7286H81.4546V35.6377Z" fill="white"/>
<path d="M81.4546 50.9092H76.3636V56.0001H81.4546V50.9092Z" fill="white"/>
<path d="M81.4546 71.2715H76.3636V76.3624H81.4546V71.2715Z" fill="white"/>
<path d="M81.4546 76.3643H76.3636V81.4552H81.4546V76.3643Z" fill="white"/>
<path d="M81.4546 81.4551H76.3636V86.546H81.4546V81.4551Z" fill="white"/>
<path d="M81.4546 91.6357H76.3636V96.7267H81.4546V91.6357Z" fill="white"/>
<path d="M81.4546 96.7285H76.3636V101.819H81.4546V96.7285Z" fill="white"/>
<path d="M81.4546 112H76.3636V117.091H81.4546V112Z" fill="white"/>
<path d="M81.4546 117.091H76.3636V122.182H81.4546V117.091Z" fill="white"/>
<path d="M81.4546 122.182H76.3636V127.273H81.4546V122.182Z" fill="white"/>
<path d="M81.4546 132.362H76.3636V137.453H81.4546V132.362Z" fill="white"/>
<path d="M81.4546 137.455H76.3636V142.546H81.4546V137.455Z" fill="white"/>
<path d="M81.4546 152.729H76.3636V157.819H81.4546V152.729Z" fill="white"/>
<path d="M81.4546 162.909H76.3636V168H81.4546V162.909Z" fill="white"/>
<path d="M86.5455 5.09082H81.4546V10.1817H86.5455V5.09082Z" fill="white"/>
<path d="M86.5455 15.2715H81.4546V20.3624H86.5455V15.2715Z" fill="white"/>
<path d="M86.5455 20.3643H81.4546V25.4552H86.5455V20.3643Z" fill="white"/>
<path d="M86.5455 30.5449H81.4546V35.6358H86.5455V30.5449Z" fill="white"/>
<path d="M86.5455 35.6377H81.4546V40.7286H86.5455V35.6377Z" fill="white"/>
<path d="M86.5455 45.8184H81.4546V50.9093H86.5455V45.8184Z" fill="white"/>
<path d="M86.5455 50.9092H81.4546V56.0001H86.5455V50.9092Z" fill="white"/>
<path d="M86.5455 56H81.4546V61.0909H86.5455V56Z" fill="white"/>
<path d="M86.5455 61.0908H81.4546V66.1817H86.5455V61.0908Z" fill="white"/>
<path d="M86.5455 81.4551H81.4546V86.546H86.5455V81.4551Z" fill="white"/>
<path d="M86.5455 101.818H81.4546V106.909H86.5455V101.818Z" fill="white"/>
<path d="M86.5455 122.182H81.4546V127.273H86.5455V122.182Z" fill="white"/>
<path d="M86.5455 142.545H81.4546V147.636H86.5455V142.545Z" fill="white"/>
<path d="M86.5455 152.729H81.4546V157.819H86.5455V152.729Z" fill="white"/>
<path d="M86.5455 162.909H81.4546V168H86.5455V162.909Z" fill="white"/>
<path d="M91.6364 0H86.5455V5.09091H91.6364V0Z" fill="white"/>
<path d="M91.6364 5.09082H86.5455V10.1817H91.6364V5.09082Z" fill="white"/>
<path d="M91.6364 15.2715H86.5455V20.3624H91.6364V15.2715Z" fill="white"/>
<path d="M91.6364 20.3643H86.5455V25.4552H91.6364V20.3643Z" fill="white"/>
<path d="M91.6364 40.7285H86.5455V45.8194H91.6364V40.7285Z" fill="white"/>
<path d="M91.6364 61.0908H86.5455V66.1817H91.6364V61.0908Z" fill="white"/>
<path d="M91.6364 81.4551H86.5455V86.546H91.6364V81.4551Z" fill="white"/>
<path d="M91.6364 101.818H86.5455V106.909H91.6364V101.818Z" fill="white"/>
<path d="M91.6364 106.909H86.5455V112H91.6364V106.909Z" fill="white"/>
<path d="M91.6364 122.182H86.5455V127.273H91.6364V122.182Z" fill="white"/>
<path d="M91.6364 142.545H86.5455V147.636H91.6364V142.545Z" fill="white"/>
<path d="M91.6364 147.636H86.5455V152.727H91.6364V147.636Z" fill="white"/>
<path d="M91.6364 162.909H86.5455V168H91.6364V162.909Z" fill="white"/>
<path d="M96.7273 0H91.6364V5.09091H96.7273V0Z" fill="white"/>
<path d="M96.7273 20.3643H91.6364V25.4552H96.7273V20.3643Z" fill="white"/>
<path d="M96.7273 25.4551H91.6364V30.546H96.7273V25.4551Z" fill="white"/>
<path d="M96.7273 30.5449H91.6364V35.6358H96.7273V30.5449Z" fill="white"/>
<path d="M96.7273 45.8184H91.6364V50.9093H96.7273V45.8184Z" fill="white"/>
<path d="M96.7273 56H91.6364V61.0909H96.7273V56Z" fill="white"/>
<path d="M96.7273 61.0908H91.6364V66.1817H96.7273V61.0908Z" fill="white"/>
<path d="M96.7273 71.2715H91.6364V76.3624H96.7273V71.2715Z" fill="white"/>
<path d="M96.7273 81.4551H91.6364V86.546H96.7273V81.4551Z" fill="white"/>
<path d="M96.7273 96.7285H91.6364V101.819H96.7273V96.7285Z" fill="white"/>
<path d="M96.7273 101.818H91.6364V106.909H96.7273V101.818Z" fill="white"/>
<path d="M96.7273 112H91.6364V117.091H96.7273V112Z" fill="white"/>
<path d="M96.7273 117.091H91.6364V122.182H96.7273V117.091Z" fill="white"/>
<path d="M96.7273 122.182H91.6364V127.273H96.7273V122.182Z" fill="white"/>
<path d="M96.7273 137.455H91.6364V142.546H96.7273V137.455Z" fill="white"/>
<path d="M96.7273 142.545H91.6364V147.636H96.7273V142.545Z" fill="white"/>
<path d="M96.7273 152.729H91.6364V157.819H96.7273V152.729Z" fill="white"/>
<path d="M96.7273 162.909H91.6364V168H96.7273V162.909Z" fill="white"/>
<path d="M101.818 0H96.7272V5.09091H101.818V0Z" fill="white"/>
<path d="M101.818 20.3643H96.7272V25.4552H101.818V20.3643Z" fill="white"/>
<path d="M101.818 45.8184H96.7272V50.9093H101.818V45.8184Z" fill="white"/>
<path d="M101.818 61.0908H96.7272V66.1817H101.818V61.0908Z" fill="white"/>
<path d="M101.818 66.1816H96.7272V71.2725H101.818V66.1816Z" fill="white"/>
<path d="M101.818 81.4551H96.7272V86.546H101.818V81.4551Z" fill="white"/>
<path d="M101.818 86.5449H96.7272V91.6358H101.818V86.5449Z" fill="white"/>
<path d="M101.818 106.909H96.7272V112H101.818V106.909Z" fill="white"/>
<path d="M101.818 117.091H96.7272V122.182H101.818V117.091Z" fill="white"/>
<path d="M101.818 127.271H96.7272V132.362H101.818V127.271Z" fill="white"/>
<path d="M101.818 142.545H96.7272V147.636H101.818V142.545Z" fill="white"/>
<path d="M101.818 147.636H96.7272V152.727H101.818V147.636Z" fill="white"/>
<path d="M106.909 10.1826H101.818V15.2735H106.909V10.1826Z" fill="white"/>
<path d="M106.909 15.2715H101.818V20.3624H106.909V15.2715Z" fill="white"/>
<path d="M106.909 20.3643H101.818V25.4552H106.909V20.3643Z" fill="white"/>
<path d="M106.909 25.4551H101.818V30.546H106.909V25.4551Z" fill="white"/>
<path d="M106.909 30.5449H101.818V35.6358H106.909V30.5449Z" fill="white"/>
<path d="M106.909 35.6377H101.818V40.7286H106.909V35.6377Z" fill="white"/>
<path d="M106.909 45.8184H101.818V50.9093H106.909V45.8184Z" fill="white"/>
<path d="M106.909 56H101.818V61.0909H106.909V56Z" fill="white"/>
<path d="M106.909 66.1816H101.818V71.2725H106.909V66.1816Z" fill="white"/>
<path d="M106.909 76.3643H101.818V81.4552H106.909V76.3643Z" fill="white"/>
<path d="M106.909 86.5449H101.818V91.6358H106.909V86.5449Z" fill="white"/>
<path d="M106.909 91.6357H101.818V96.7267H106.909V91.6357Z" fill="white"/>
<path d="M106.909 106.909H101.818V112H106.909V106.909Z" fill="white"/>
<path d="M106.909 112H101.818V117.091H106.909V112Z" fill="white"/>
<path d="M106.909 117.091H101.818V122.182H106.909V117.091Z" fill="white"/>
<path d="M106.909 122.182H101.818V127.273H106.909V122.182Z" fill="white"/>
<path d="M106.909 127.271H101.818V132.362H106.909V127.271Z" fill="white"/>
<path d="M106.909 132.362H101.818V137.453H106.909V132.362Z" fill="white"/>
<path d="M106.909 137.455H101.818V142.546H106.909V137.455Z" fill="white"/>
<path d="M106.909 152.729H101.818V157.819H106.909V152.729Z" fill="white"/>
<path d="M106.909 157.817H101.818V162.908H106.909V157.817Z" fill="white"/>
<path d="M112 0H106.909V5.09091H112V0Z" fill="white"/>
<path d="M112 5.09082H106.909V10.1817H112V5.09082Z" fill="white"/>
<path d="M112 10.1826H106.909V15.2735H112V10.1826Z" fill="white"/>
<path d="M112 20.3643H106.909V25.4552H112V20.3643Z" fill="white"/>
<path d="M112 25.4551H106.909V30.546H112V25.4551Z" fill="white"/>
<path d="M112 35.6377H106.909V40.7286H112V35.6377Z" fill="white"/>
<path d="M112 56H106.909V61.0909H112V56Z" fill="white"/>
<path d="M112 76.3643H106.909V81.4552H112V76.3643Z" fill="white"/>
<path d="M112 96.7285H106.909V101.819H112V96.7285Z" fill="white"/>
<path d="M112 112H106.909V117.091H112V112Z" fill="white"/>
<path d="M112 117.091H106.909V122.182H112V117.091Z" fill="white"/>
<path d="M112 132.362H106.909V137.453H112V132.362Z" fill="white"/>
<path d="M112 137.455H106.909V142.546H112V137.455Z" fill="white"/>
<path d="M112 157.817H106.909V162.908H112V157.817Z" fill="white"/>
<path d="M117.091 0H112V5.09091H117.091V0Z" fill="white"/>
<path d="M117.091 15.2715H112V20.3624H117.091V15.2715Z" fill="white"/>
<path d="M117.091 20.3643H112V25.4552H117.091V20.3643Z" fill="white"/>
<path d="M117.091 30.5449H112V35.6358H117.091V30.5449Z" fill="white"/>
<path d="M117.091 50.9092H112V56.0001H117.091V50.9092Z" fill="white"/>
<path d="M117.091 56H112V61.0909H117.091V56Z" fill="white"/>
<path d="M117.091 61.0908H112V66.1817H117.091V61.0908Z" fill="white"/>
<path d="M117.091 71.2715H112V76.3624H117.091V71.2715Z" fill="white"/>
<path d="M117.091 76.3643H112V81.4552H117.091V76.3643Z" fill="white"/>
<path d="M117.091 81.4551H112V86.546H117.091V81.4551Z" fill="white"/>
<path d="M117.091 91.6357H112V96.7267H117.091V91.6357Z" fill="white"/>
<path d="M117.091 101.818H112V106.909H117.091V101.818Z" fill="white"/>
<path d="M117.091 112H112V117.091H117.091V112Z" fill="white"/>
<path d="M117.091 122.182H112V127.273H117.091V122.182Z" fill="white"/>
<path d="M117.091 137.455H112V142.546H117.091V137.455Z" fill="white"/>
<path d="M117.091 142.545H112V147.636H117.091V142.545Z" fill="white"/>
<path d="M117.091 152.729H112V157.819H117.091V152.729Z" fill="white"/>
<path d="M117.091 162.909H112V168H117.091V162.909Z" fill="white"/>
<path d="M122.182 0H117.091V5.09091H122.182V0Z" fill="white"/>
<path d="M122.182 20.3643H117.091V25.4552H122.182V20.3643Z" fill="white"/>
<path d="M122.182 35.6377H117.091V40.7286H122.182V35.6377Z" fill="white"/>
<path d="M122.182 40.7285H117.091V45.8194H122.182V40.7285Z" fill="white"/>
<path d="M122.182 45.8184H117.091V50.9093H122.182V45.8184Z" fill="white"/>
<path d="M122.182 56H117.091V61.0909H122.182V56Z" fill="white"/>
<path d="M122.182 66.1816H117.091V71.2725H122.182V66.1816Z" fill="white"/>
<path d="M122.182 86.5449H117.091V91.6358H122.182V86.5449Z" fill="white"/>
<path d="M122.182 96.7285H117.091V101.819H122.182V96.7285Z" fill="white"/>
<path d="M122.182 101.818H117.091V106.909H122.182V101.818Z" fill="white"/>
<path d="M122.182 106.909H117.091V112H122.182V106.909Z" fill="white"/>
<path d="M122.182 122.182H117.091V127.273H122.182V122.182Z" fill="white"/>
<path d="M122.182 132.362H117.091V137.453H122.182V132.362Z" fill="white"/>
<path d="M122.182 137.455H117.091V142.546H122.182V137.455Z" fill="white"/>
<path d="M122.182 147.636H117.091V152.727H122.182V147.636Z" fill="white"/>
<path d="M122.182 152.729H117.091V157.819H122.182V152.729Z" fill="white"/>
<path d="M122.182 162.909H117.091V168H122.182V162.909Z" fill="white"/>
<path d="M127.273 10.1826H122.182V15.2735H127.273V10.1826Z" fill="white"/>
<path d="M127.273 15.2715H122.182V20.3624H127.273V15.2715Z" fill="white"/>
<path d="M127.273 30.5449H122.182V35.6358H127.273V30.5449Z" fill="white"/>
<path d="M127.273 40.7285H122.182V45.8194H127.273V40.7285Z" fill="white"/>
<path d="M127.273 45.8184H122.182V50.9093H127.273V45.8184Z" fill="white"/>
<path d="M127.273 56H122.182V61.0909H127.273V56Z" fill="white"/>
<path d="M127.273 101.818H122.182V106.909H127.273V101.818Z" fill="white"/>
<path d="M127.273 106.909H122.182V112H127.273V106.909Z" fill="white"/>
<path d="M127.273 122.182H122.182V127.273H127.273V122.182Z" fill="white"/>
<path d="M127.273 127.271H122.182V132.362H127.273V127.271Z" fill="white"/>
<path d="M127.273 132.362H122.182V137.453H127.273V132.362Z" fill="white"/>
<path d="M127.273 137.455H122.182V142.546H127.273V137.455Z" fill="white"/>
<path d="M127.273 142.545H122.182V147.636H127.273V142.545Z" fill="white"/>
<path d="M127.273 162.909H122.182V168H127.273V162.909Z" fill="white"/>
<path d="M132.364 40.7285H127.273V45.8194H132.364V40.7285Z" fill="white"/>
<path d="M132.364 45.8184H127.273V50.9093H132.364V45.8184Z" fill="white"/>
<path d="M132.364 61.0908H127.273V66.1817H132.364V61.0908Z" fill="white"/>
<path d="M132.364 71.2715H127.273V76.3624H132.364V71.2715Z" fill="white"/>
<path d="M132.364 81.4551H127.273V86.546H132.364V81.4551Z" fill="white"/>
<path d="M132.364 91.6357H127.273V96.7267H132.364V91.6357Z" fill="white"/>
<path d="M132.364 96.7285H127.273V101.819H132.364V96.7285Z" fill="white"/>
<path d="M132.364 112H127.273V117.091H132.364V112Z" fill="white"/>
<path d="M132.364 122.182H127.273V127.273H132.364V122.182Z" fill="white"/>
<path d="M132.364 142.545H127.273V147.636H132.364V142.545Z" fill="white"/>
<path d="M132.364 147.636H127.273V152.727H132.364V147.636Z" fill="white"/>
<path d="M132.364 162.909H127.273V168H132.364V162.909Z" fill="white"/>
<path d="M137.455 0H132.364V5.09091H137.455V0Z" fill="white"/>
<path d="M137.455 5.09082H132.364V10.1817H137.455V5.09082Z" fill="white"/>
<path d="M137.455 10.1826H132.364V15.2735H137.455V10.1826Z" fill="white"/>
<path d="M137.455 15.2715H132.364V20.3624H137.455V15.2715Z" fill="white"/>
<path d="M137.455 20.3643H132.364V25.4552H137.455V20.3643Z" fill="white"/>
<path d="M137.455 25.4551H132.364V30.546H137.455V25.4551Z" fill="white"/>
<path d="M137.455 30.5449H132.364V35.6358H137.455V30.5449Z" fill="white"/>
<path d="M137.455 45.8184H132.364V50.9093H137.455V45.8184Z" fill="white"/>
<path d="M137.455 66.1816H132.364V71.2725H137.455V66.1816Z" fill="white"/>
<path d="M137.455 71.2715H132.364V76.3624H137.455V71.2715Z" fill="white"/>
<path d="M137.455 86.5449H132.364V91.6358H137.455V86.5449Z" fill="white"/>
<path d="M137.455 106.909H132.364V112H137.455V106.909Z" fill="white"/>
<path d="M137.455 112H132.364V117.091H137.455V112Z" fill="white"/>
<path d="M137.455 117.091H132.364V122.182H137.455V117.091Z" fill="white"/>
<path d="M137.455 122.182H132.364V127.273H137.455V122.182Z" fill="white"/>
<path d="M137.455 132.362H132.364V137.453H137.455V132.362Z" fill="white"/>
<path d="M137.455 142.545H132.364V147.636H137.455V142.545Z" fill="white"/>
<path d="M137.455 152.729H132.364V157.819H137.455V152.729Z" fill="white"/>
<path d="M137.455 162.909H132.364V168H137.455V162.909Z" fill="white"/>
<path d="M142.545 0H137.455V5.09091H142.545V0Z" fill="white"/>
<path d="M142.545 30.5449H137.455V35.6358H142.545V30.5449Z" fill="white"/>
<path d="M142.545 40.7285H137.455V45.8194H142.545V40.7285Z" fill="white"/>
<path d="M142.545 50.9092H137.455V56.0001H142.545V50.9092Z" fill="white"/>
<path d="M142.545 56H137.455V61.0909H142.545V56Z" fill="white"/>
<path d="M142.545 76.3643H137.455V81.4552H142.545V76.3643Z" fill="white"/>
<path d="M142.545 81.4551H137.455V86.546H142.545V81.4551Z" fill="white"/>
<path d="M142.545 91.6357H137.455V96.7267H142.545V91.6357Z" fill="white"/>
<path d="M142.545 101.818H137.455V106.909H142.545V101.818Z" fill="white"/>
<path d="M142.545 106.909H137.455V112H142.545V106.909Z" fill="white"/>
<path d="M142.545 117.091H137.455V122.182H142.545V117.091Z" fill="white"/>
<path d="M142.545 122.182H137.455V127.273H142.545V122.182Z" fill="white"/>
<path d="M142.545 142.545H137.455V147.636H142.545V142.545Z" fill="white"/>
<path d="M142.545 157.817H137.455V162.908H142.545V157.817Z" fill="white"/>
<path d="M142.545 162.909H137.455V168H142.545V162.909Z" fill="white"/>
<path d="M147.636 0H142.545V5.09091H147.636V0Z" fill="white"/>
<path d="M147.636 10.1826H142.545V15.2735H147.636V10.1826Z" fill="white"/>
<path d="M147.636 15.2715H142.545V20.3624H147.636V15.2715Z" fill="white"/>
<path d="M147.636 20.3643H142.545V25.4552H147.636V20.3643Z" fill="white"/>
<path d="M147.636 30.5449H142.545V35.6358H147.636V30.5449Z" fill="white"/>
<path d="M147.636 61.0908H142.545V66.1817H147.636V61.0908Z" fill="white"/>
<path d="M147.636 81.4551H142.545V86.546H147.636V81.4551Z" fill="white"/>
<path d="M147.636 91.6357H142.545V96.7267H147.636V91.6357Z" fill="white"/>
<path d="M147.636 96.7285H142.545V101.819H147.636V96.7285Z" fill="white"/>
<path d="M147.636 101.818H142.545V106.909H147.636V101.818Z" fill="white"/>
<path d="M147.636 112H142.545V117.091H147.636V112Z" fill="white"/>
<path d="M147.636 122.182H142.545V127.273H147.636V122.182Z" fill="white"/>
<path d="M147.636 127.271H142.545V132.362H147.636V127.271Z" fill="white"/>
<path d="M147.636 132.362H142.545V137.453H147.636V132.362Z" fill="white"/>
<path d="M147.636 137.455H142.545V142.546H147.636V137.455Z" fill="white"/>
<path d="M147.636 142.545H142.545V147.636H147.636V142.545Z" fill="white"/>
<path d="M147.636 147.636H142.545V152.727H147.636V147.636Z" fill="white"/>
<path d="M152.727 0H147.636V5.09091H152.727V0Z" fill="white"/>
<path d="M152.727 10.1826H147.636V15.2735H152.727V10.1826Z" fill="white"/>
<path d="M152.727 15.2715H147.636V20.3624H152.727V15.2715Z" fill="white"/>
<path d="M152.727 20.3643H147.636V25.4552H152.727V20.3643Z" fill="white"/>
<path d="M152.727 30.5449H147.636V35.6358H152.727V30.5449Z" fill="white"/>
<path d="M152.727 40.7285H147.636V45.8194H152.727V40.7285Z" fill="white"/>
<path d="M152.727 50.9092H147.636V56.0001H152.727V50.9092Z" fill="white"/>
<path d="M152.727 61.0908H147.636V66.1817H152.727V61.0908Z" fill="white"/>
<path d="M152.727 86.5449H147.636V91.6358H152.727V86.5449Z" fill="white"/>
<path d="M152.727 91.6357H147.636V96.7267H152.727V91.6357Z" fill="white"/>
<path d="M152.727 106.909H147.636V112H152.727V106.909Z" fill="white"/>
<path d="M152.727 112H147.636V117.091H152.727V112Z" fill="white"/>
<path d="M152.727 117.091H147.636V122.182H152.727V117.091Z" fill="white"/>
<path d="M152.727 132.362H147.636V137.453H152.727V132.362Z" fill="white"/>
<path d="M152.727 137.455H147.636V142.546H152.727V137.455Z" fill="white"/>
<path d="M152.727 142.545H147.636V147.636H152.727V142.545Z" fill="white"/>
<path d="M152.727 157.817H147.636V162.908H152.727V157.817Z" fill="white"/>
<path d="M152.727 162.909H147.636V168H152.727V162.909Z" fill="white"/>
<path d="M157.818 0H152.727V5.09091H157.818V0Z" fill="white"/>
<path d="M157.818 10.1826H152.727V15.2735H157.818V10.1826Z" fill="white"/>
<path d="M157.818 15.2715H152.727V20.3624H157.818V15.2715Z" fill="white"/>
<path d="M157.818 20.3643H152.727V25.4552H157.818V20.3643Z" fill="white"/>
<path d="M157.818 30.5449H152.727V35.6358H157.818V30.5449Z" fill="white"/>
<path d="M157.818 45.8184H152.727V50.9093H157.818V45.8184Z" fill="white"/>
<path d="M157.818 56H152.727V61.0909H157.818V56Z" fill="white"/>
<path d="M157.818 76.3643H152.727V81.4552H157.818V76.3643Z" fill="white"/>
<path d="M157.818 96.7285H152.727V101.819H157.818V96.7285Z" fill="white"/>
<path d="M157.818 117.091H152.727V122.182H157.818V117.091Z" fill="white"/>
<path d="M157.818 127.271H152.727V132.362H157.818V127.271Z" fill="white"/>
<path d="M157.818 132.362H152.727V137.453H157.818V132.362Z" fill="white"/>
<path d="M157.818 137.455H152.727V142.546H157.818V137.455Z" fill="white"/>
<path d="M157.818 147.636H152.727V152.727H157.818V147.636Z" fill="white"/>
<path d="M157.818 152.729H152.727V157.819H157.818V152.729Z" fill="white"/>
<path d="M157.818 157.817H152.727V162.908H157.818V157.817Z" fill="white"/>
<path d="M162.909 0H157.818V5.09091H162.909V0Z" fill="white"/>
<path d="M162.909 30.5449H157.818V35.6358H162.909V30.5449Z" fill="white"/>
<path d="M162.909 40.7285H157.818V45.8194H162.909V40.7285Z" fill="white"/>
<path d="M162.909 45.8184H157.818V50.9093H162.909V45.8184Z" fill="white"/>
<path d="M162.909 50.9092H157.818V56.0001H162.909V50.9092Z" fill="white"/>
<path d="M162.909 66.1816H157.818V71.2725H162.909V66.1816Z" fill="white"/>
<path d="M162.909 71.2715H157.818V76.3624H162.909V71.2715Z" fill="white"/>
<path d="M162.909 81.4551H157.818V86.546H162.909V81.4551Z" fill="white"/>
<path d="M162.909 86.5449H157.818V91.6358H162.909V86.5449Z" fill="white"/>
<path d="M162.909 91.6357H157.818V96.7267H162.909V91.6357Z" fill="white"/>
<path d="M162.909 101.818H157.818V106.909H162.909V101.818Z" fill="white"/>
<path d="M162.909 106.909H157.818V112H162.909V106.909Z" fill="white"/>
<path d="M162.909 112H157.818V117.091H162.909V112Z" fill="white"/>
<path d="M162.909 132.362H157.818V137.453H162.909V132.362Z" fill="white"/>
<path d="M162.909 137.455H157.818V142.546H162.909V137.455Z" fill="white"/>
<path d="M162.909 142.545H157.818V147.636H162.909V142.545Z" fill="white"/>
<path d="M162.909 147.636H157.818V152.727H162.909V147.636Z" fill="white"/>
<path d="M162.909 162.909H157.818V168H162.909V162.909Z" fill="white"/>
<path d="M168 0H162.909V5.09091H168V0Z" fill="white"/>
<path d="M168 5.09082H162.909V10.1817H168V5.09082Z" fill="white"/>
<path d="M168 10.1826H162.909V15.2735H168V10.1826Z" fill="white"/>
<path d="M168 15.2715H162.909V20.3624H168V15.2715Z" fill="white"/>
<path d="M168 20.3643H162.909V25.4552H168V20.3643Z" fill="white"/>
<path d="M168 25.4551H162.909V30.546H168V25.4551Z" fill="white"/>
<path d="M168 30.5449H162.909V35.6358H168V30.5449Z" fill="white"/>
<path d="M168 45.8184H162.909V50.9093H168V45.8184Z" fill="white"/>
<path d="M168 66.1816H162.909V71.2725H168V66.1816Z" fill="white"/>
<path d="M168 86.5449H162.909V91.6358H168V86.5449Z" fill="white"/>
<path d="M168 106.909H162.909V112H168V106.909Z" fill="white"/>
<path d="M168 122.182H162.909V127.273H168V122.182Z" fill="white"/>
<path d="M168 127.271H162.909V132.362H168V127.271Z" fill="white"/>
<path d="M168 142.545H162.909V147.636H168V142.545Z" fill="white"/>
<path d="M168 147.636H162.909V152.727H168V147.636Z" fill="white"/>
</g>
<defs>
<clipPath id="clip0">
<rect width="168" height="168" fill="white"/>
</clipPath>
</defs>
</svg>
