<svg width="168" height="168" viewBox="0 0 168 168" fill="none" xmlns="http://www.w3.org/2000/svg">
<path d="M5.09091 0H0V5.09091H5.09091V0Z" fill="white"/>
<path d="M5.09091 5.09082H0V10.1817H5.09091V5.09082Z" fill="white"/>
<path d="M5.09091 10.1826H0V15.2735H5.09091V10.1826Z" fill="white"/>
<path d="M5.09091 15.2715H0V20.3624H5.09091V15.2715Z" fill="white"/>
<path d="M5.09091 20.3643H0V25.4552H5.09091V20.3643Z" fill="white"/>
<path d="M5.09091 25.4551H0V30.546H5.09091V25.4551Z" fill="white"/>
<path d="M5.09091 30.5449H0V35.6358H5.09091V30.5449Z" fill="white"/>
<path d="M5.09091 40.7285H0V45.8194H5.09091V40.7285Z" fill="white"/>
<path d="M5.09091 45.8184H0V50.9093H5.09091V45.8184Z" fill="white"/>
<path d="M5.09091 61.0908H0V66.1817H5.09091V61.0908Z" fill="white"/>
<path d="M5.09091 81.4551H0V86.546H5.09091V81.4551Z" fill="white"/>
<path d="M5.09091 86.5449H0V91.6358H5.09091V86.5449Z" fill="white"/>
<path d="M5.09091 96.7285H0V101.819H5.09091V96.7285Z" fill="white"/>
<path d="M5.09091 101.818H0V106.909H5.09091V101.818Z" fill="white"/>
<path d="M5.09091 106.909H0V112H5.09091V106.909Z" fill="white"/>
<path d="M5.09091 117.091H0V122.182H5.09091V117.091Z" fill="white"/>
<path d="M5.09091 132.362H0V137.453H5.09091V132.362Z" fill="white"/>
<path d="M5.09091 137.455H0V142.546H5.09091V137.455Z" fill="white"/>
<path d="M5.09091 142.545H0V147.636H5.09091V142.545Z" fill="white"/>
<path d="M5.09091 147.636H0V152.727H5.09091V147.636Z" fill="white"/>
<path d="M5.09091 152.729H0V157.819H5.09091V152.729Z" fill="white"/>
<path d="M5.09091 157.817H0V162.908H5.09091V157.817Z" fill="white"/>
<path d="M5.09091 162.909H0V168H5.09091V162.909Z" fill="white"/>
<path d="M10.1818 0H5.09091V5.09091H10.1818V0Z" fill="white"/>
<path d="M10.1818 30.5449H5.09091V35.6358H10.1818V30.5449Z" fill="white"/>
<path d="M10.1818 40.7285H5.09091V45.8194H10.1818V40.7285Z" fill="white"/>
<path d="M10.1818 45.8184H5.09091V50.9093H10.1818V45.8184Z" fill="white"/>
<path d="M10.1818 56H5.09091V61.0909H10.1818V56Z" fill="white"/>
<path d="M10.1818 66.1816H5.09091V71.2725H10.1818V66.1816Z" fill="white"/>
<path d="M10.1818 76.3643H5.09091V81.4552H10.1818V76.3643Z" fill="white"/>
<path d="M10.1818 81.4551H5.09091V86.546H10.1818V81.4551Z" fill="white"/>
<path d="M10.1818 91.6357H5.09091V96.7267H10.1818V91.6357Z" fill="white"/>
<path d="M10.1818 96.7285H5.09091V101.819H10.1818V96.7285Z" fill="white"/>
<path d="M10.1818 101.818H5.09091V106.909H10.1818V101.818Z" fill="white"/>
<path d="M10.1818 122.182H5.09091V127.273H10.1818V122.182Z" fill="white"/>
<path d="M10.1818 132.362H5.09091V137.453H10.1818V132.362Z" fill="white"/>
<path d="M10.1818 162.909H5.09091V168H10.1818V162.909Z" fill="white"/>
<path d="M15.2727 0H10.1818V5.09091H15.2727V0Z" fill="white"/>
<path d="M15.2727 10.1826H10.1818V15.2735H15.2727V10.1826Z" fill="white"/>
<path d="M15.2727 15.2715H10.1818V20.3624H15.2727V15.2715Z" fill="white"/>
<path d="M15.2727 20.3643H10.1818V25.4552H15.2727V20.3643Z" fill="white"/>
<path d="M15.2727 30.5449H10.1818V35.6358H15.2727V30.5449Z" fill="white"/>
<path d="M15.2727 50.9092H10.1818V56.0001H15.2727V50.9092Z" fill="white"/>
<path d="M15.2727 56H10.1818V61.0909H15.2727V56Z" fill="white"/>
<path d="M15.2727 61.0908H10.1818V66.1817H15.2727V61.0908Z" fill="white"/>
<path d="M15.2727 86.5449H10.1818V91.6358H15.2727V86.5449Z" fill="white"/>
<path d="M15.2727 112H10.1818V117.091H15.2727V112Z" fill="white"/>
<path d="M15.2727 117.091H10.1818V122.182H15.2727V117.091Z" fill="white"/>
<path d="M15.2727 122.182H10.1818V127.273H15.2727V122.182Z" fill="white"/>
<path d="M15.2727 132.362H10.1818V137.453H15.2727V132.362Z" fill="white"/>
<path d="M15.2727 142.545H10.1818V147.636H15.2727V142.545Z" fill="white"/>
<path d="M15.2727 147.636H10.1818V152.727H15.2727V147.636Z" fill="white"/>
<path d="M15.2727 152.729H10.1818V157.819H15.2727V152.729Z" fill="white"/>
<path d="M15.2727 162.909H10.1818V168H15.2727V162.909Z" fill="white"/>
<path d="M20.3637 0H15.2728V5.09091H20.3637V0Z" fill="white"/>
<path d="M20.3637 10.1826H15.2728V15.2735H20.3637V10.1826Z" fill="white"/>
<path d="M20.3637 15.2715H15.2728V20.3624H20.3637V15.2715Z" fill="white"/>
<path d="M20.3637 20.3643H15.2728V25.4552H20.3637V20.3643Z" fill="white"/>
<path d="M20.3637 30.5449H15.2728V35.6358H20.3637V30.5449Z" fill="white"/>
<path d="M20.3637 40.7285H15.2728V45.8194H20.3637V40.7285Z" fill="white"/>
<path d="M20.3637 56H15.2728V61.0909H20.3637V56Z" fill="white"/>
<path d="M20.3637 66.1816H15.2728V71.2725H20.3637V66.1816Z" fill="white"/>
<path d="M20.3637 76.3643H15.2728V81.4552H20.3637V76.3643Z" fill="white"/>
<path d="M20.3637 81.4551H15.2728V86.546H20.3637V81.4551Z" fill="white"/>
<path d="M20.3637 91.6357H15.2728V96.7267H20.3637V91.6357Z" fill="white"/>
<path d="M20.3637 96.7285H15.2728V101.819H20.3637V96.7285Z" fill="white"/>
<path d="M20.3637 106.909H15.2728V112H20.3637V106.909Z" fill="white"/>
<path d="M20.3637 112H15.2728V117.091H20.3637V112Z" fill="white"/>
<path d="M20.3637 122.182H15.2728V127.273H20.3637V122.182Z" fill="white"/>
<path d="M20.3637 132.362H15.2728V137.453H20.3637V132.362Z" fill="white"/>
<path d="M20.3637 142.545H15.2728V147.636H20.3637V142.545Z" fill="white"/>
<path d="M20.3637 147.636H15.2728V152.727H20.3637V147.636Z" fill="white"/>
<path d="M20.3637 152.729H15.2728V157.819H20.3637V152.729Z" fill="white"/>
<path d="M20.3637 162.909H15.2728V168H20.3637V162.909Z" fill="white"/>
<path d="M25.4546 0H20.3637V5.09091H25.4546V0Z" fill="white"/>
<path d="M25.4546 10.1826H20.3637V15.2735H25.4546V10.1826Z" fill="white"/>
<path d="M25.4546 15.2715H20.3637V20.3624H25.4546V15.2715Z" fill="white"/>
<path d="M25.4546 20.3643H20.3637V25.4552H25.4546V20.3643Z" fill="white"/>
<path d="M25.4546 30.5449H20.3637V35.6358H25.4546V30.5449Z" fill="white"/>
<path d="M25.4546 45.8184H20.3637V50.9093H25.4546V45.8184Z" fill="white"/>
<path d="M25.4546 50.9092H20.3637V56.0001H25.4546V50.9092Z" fill="white"/>
<path d="M25.4546 61.0908H20.3637V66.1817H25.4546V61.0908Z" fill="white"/>
<path d="M25.4546 66.1816H20.3637V71.2725H25.4546V66.1816Z" fill="white"/>
<path d="M25.4546 76.3643H20.3637V81.4552H25.4546V76.3643Z" fill="white"/>
<path d="M25.4546 86.5449H20.3637V91.6358H25.4546V86.5449Z" fill="white"/>
<path d="M25.4546 91.6357H20.3637V96.7267H25.4546V91.6357Z" fill="white"/>
<path d="M25.4546 96.7285H20.3637V101.819H25.4546V96.7285Z" fill="white"/>
<path d="M25.4546 101.818H20.3637V106.909H25.4546V101.818Z" fill="white"/>
<path d="M25.4546 106.909H20.3637V112H25.4546V106.909Z" fill="white"/>
<path d="M25.4546 112H20.3637V117.091H25.4546V112Z" fill="white"/>
<path d="M25.4546 132.362H20.3637V137.453H25.4546V132.362Z" fill="white"/>
<path d="M25.4546 142.545H20.3637V147.636H25.4546V142.545Z" fill="white"/>
<path d="M25.4546 147.636H20.3637V152.727H25.4546V147.636Z" fill="white"/>
<path d="M25.4546 152.729H20.3637V157.819H25.4546V152.729Z" fill="white"/>
<path d="M25.4546 162.909H20.3637V168H25.4546V162.909Z" fill="white"/>
<path d="M30.5454 0H25.4545V5.09091H30.5454V0Z" fill="white"/>
<path d="M30.5454 30.5449H25.4545V35.6358H30.5454V30.5449Z" fill="white"/>
<path d="M30.5454 56H25.4545V61.0909H30.5454V56Z" fill="white"/>
<path d="M30.5454 61.0908H25.4545V66.1817H30.5454V61.0908Z" fill="white"/>
<path d="M30.5454 66.1816H25.4545V71.2725H30.5454V66.1816Z" fill="white"/>
<path d="M30.5454 71.2715H25.4545V76.3624H30.5454V71.2715Z" fill="white"/>
<path d="M30.5454 76.3643H25.4545V81.4552H30.5454V76.3643Z" fill="white"/>
<path d="M30.5454 86.5449H25.4545V91.6358H30.5454V86.5449Z" fill="white"/>
<path d="M30.5454 101.818H25.4545V106.909H30.5454V101.818Z" fill="white"/>
<path d="M30.5454 122.182H25.4545V127.273H30.5454V122.182Z" fill="white"/>
<path d="M30.5454 132.362H25.4545V137.453H30.5454V132.362Z" fill="white"/>
<path d="M30.5454 162.909H25.4545V168H30.5454V162.909Z" fill="white"/>
<path d="M35.6364 0H30.5455V5.09091H35.6364V0Z" fill="white"/>
<path d="M35.6364 5.09082H30.5455V10.1817H35.6364V5.09082Z" fill="white"/>
<path d="M35.6364 10.1826H30.5455V15.2735H35.6364V10.1826Z" fill="white"/>
<path d="M35.6364 15.2715H30.5455V20.3624H35.6364V15.2715Z" fill="white"/>
<path d="M35.6364 20.3643H30.5455V25.4552H35.6364V20.3643Z" fill="white"/>
<path d="M35.6364 25.4551H30.5455V30.546H35.6364V25.4551Z" fill="white"/>
<path d="M35.6364 30.5449H30.5455V35.6358H35.6364V30.5449Z" fill="white"/>
<path d="M35.6364 40.7285H30.5455V45.8194H35.6364V40.7285Z" fill="white"/>
<path d="M35.6364 50.9092H30.5455V56.0001H35.6364V50.9092Z" fill="white"/>
<path d="M35.6364 61.0908H30.5455V66.1817H35.6364V61.0908Z" fill="white"/>
<path d="M35.6364 71.2715H30.5455V76.3624H35.6364V71.2715Z" fill="white"/>
<path d="M35.6364 81.4551H30.5455V86.546H35.6364V81.4551Z" fill="white"/>
<path d="M35.6364 91.6357H30.5455V96.7267H35.6364V91.6357Z" fill="white"/>
<path d="M35.6364 101.818H30.5455V106.909H35.6364V101.818Z" fill="white"/>
<path d="M35.6364 112H30.5455V117.091H35.6364V112Z" fill="white"/>
<path d="M35.6364 122.182H30.5455V127.273H35.6364V122.182Z" fill="white"/>
<path d="M35.6364 132.362H30.5455V137.453H35.6364V132.362Z" fill="white"/>
<path d="M35.6364 137.455H30.5455V142.546H35.6364V137.455Z" fill="white"/>
<path d="M35.6364 142.545H30.5455V147.636H35.6364V142.545Z" fill="white"/>
<path d="M35.6364 147.636H30.5455V152.727H35.6364V147.636Z" fill="white"/>
<path d="M35.6364 152.729H30.5455V157.819H35.6364V152.729Z" fill="white"/>
<path d="M35.6364 157.817H30.5455V162.908H35.6364V157.817Z" fill="white"/>
<path d="M35.6364 162.909H30.5455V168H35.6364V162.909Z" fill="white"/>
<path d="M40.7273 40.7285H35.6363V45.8194H40.7273V40.7285Z" fill="white"/>
<path d="M40.7273 45.8184H35.6363V50.9093H40.7273V45.8184Z" fill="white"/>
<path d="M40.7273 61.0908H35.6363V66.1817H40.7273V61.0908Z" fill="white"/>
<path d="M40.7273 76.3643H35.6363V81.4552H40.7273V76.3643Z" fill="white"/>
<path d="M40.7273 96.7285H35.6363V101.819H40.7273V96.7285Z" fill="white"/>
<path d="M40.7273 117.091H35.6363V122.182H40.7273V117.091Z" fill="white"/>
<path d="M45.8182 5.09082H40.7273V10.1817H45.8182V5.09082Z" fill="white"/>
<path d="M45.8182 10.1826H40.7273V15.2735H45.8182V10.1826Z" fill="white"/>
<path d="M45.8182 20.3643H40.7273V25.4552H45.8182V20.3643Z" fill="white"/>
<path d="M45.8182 25.4551H40.7273V30.546H45.8182V25.4551Z" fill="white"/>
<path d="M45.8182 30.5449H40.7273V35.6358H45.8182V30.5449Z" fill="white"/>
<path d="M45.8182 35.6377H40.7273V40.7286H45.8182V35.6377Z" fill="white"/>
<path d="M45.8182 45.8184H40.7273V50.9093H45.8182V45.8184Z" fill="white"/>
<path d="M45.8182 61.0908H40.7273V66.1817H45.8182V61.0908Z" fill="white"/>
<path d="M45.8182 81.4551H40.7273V86.546H45.8182V81.4551Z" fill="white"/>
<path d="M45.8182 91.6357H40.7273V96.7267H45.8182V91.6357Z" fill="white"/>
<path d="M45.8182 96.7285H40.7273V101.819H45.8182V96.7285Z" fill="white"/>
<path d="M45.8182 101.818H40.7273V106.909H45.8182V101.818Z" fill="white"/>
<path d="M45.8182 106.909H40.7273V112H45.8182V106.909Z" fill="white"/>
<path d="M45.8182 112H40.7273V117.091H45.8182V112Z" fill="white"/>
<path d="M45.8182 122.182H40.7273V127.273H45.8182V122.182Z" fill="white"/>
<path d="M45.8182 127.271H40.7273V132.362H45.8182V127.271Z" fill="white"/>
<path d="M45.8182 132.362H40.7273V137.453H45.8182V132.362Z" fill="white"/>
<path d="M45.8182 147.636H40.7273V152.727H45.8182V147.636Z" fill="white"/>
<path d="M45.8182 157.817H40.7273V162.908H45.8182V157.817Z" fill="white"/>
<path d="M45.8182 162.909H40.7273V168H45.8182V162.909Z" fill="white"/>
<path d="M50.9091 0H45.8182V5.09091H50.9091V0Z" fill="white"/>
<path d="M50.9091 10.1826H45.8182V15.2735H50.9091V10.1826Z" fill="white"/>
<path d="M50.9091 15.2715H45.8182V20.3624H50.9091V15.2715Z" fill="white"/>
<path d="M50.9091 25.4551H45.8182V30.546H50.9091V25.4551Z" fill="white"/>
<path d="M50.9091 35.6377H45.8182V40.7286H50.9091V35.6377Z" fill="white"/>
<path d="M50.9091 50.9092H45.8182V56.0001H50.9091V50.9092Z" fill="white"/>
<path d="M50.9091 86.5449H45.8182V91.6358H50.9091V86.5449Z" fill="white"/>
<path d="M50.9091 91.6357H45.8182V96.7267H50.9091V91.6357Z" fill="white"/>
<path d="M50.9091 106.909H45.8182V112H50.9091V106.909Z" fill="white"/>
<path d="M50.9091 117.091H45.8182V122.182H50.9091V117.091Z" fill="white"/>
<path d="M50.9091 122.182H45.8182V127.273H50.9091V122.182Z" fill="white"/>
<path d="M50.9091 132.362H45.8182V137.453H50.9091V132.362Z" fill="white"/>
<path d="M50.9091 147.636H45.8182V152.727H50.9091V147.636Z" fill="white"/>
<path d="M50.9091 157.817H45.8182V162.908H50.9091V157.817Z" fill="white"/>
<path d="M56 10.1826H50.9091V15.2735H56V10.1826Z" fill="white"/>
<path d="M56 15.2715H50.9091V20.3624H56V15.2715Z" fill="white"/>
<path d="M56 30.5449H50.9091V35.6358H56V30.5449Z" fill="white"/>
<path d="M56 40.7285H50.9091V45.8194H56V40.7285Z" fill="white"/>
<path d="M56 45.8184H50.9091V50.9093H56V45.8184Z" fill="white"/>
<path d="M56 50.9092H50.9091V56.0001H56V50.9092Z" fill="white"/>
<path d="M56 66.1816H50.9091V71.2725H56V66.1816Z" fill="white"/>
<path d="M56 76.3643H50.9091V81.4552H56V76.3643Z" fill="white"/>
<path d="M56 86.5449H50.9091V91.6358H56V86.5449Z" fill="white"/>
<path d="M56 101.818H50.9091V106.909H56V101.818Z" fill="white"/>
<path d="M56 106.909H50.9091V112H56V106.909Z" fill="white"/>
<path d="M56 112H50.9091V117.091H56V112Z" fill="white"/>
<path d="M56 127.271H50.9091V132.362H56V127.271Z" fill="white"/>
<path d="M56 132.362H50.9091V137.453H56V132.362Z" fill="white"/>
<path d="M56 142.545H50.9091V147.636H56V142.545Z" fill="white"/>
<path d="M61.0909 5.09082H56V10.1817H61.0909V5.09082Z" fill="white"/>
<path d="M61.0909 10.1826H56V15.2735H61.0909V10.1826Z" fill="white"/>
<path d="M61.0909 15.2715H56V20.3624H61.0909V15.2715Z" fill="white"/>
<path d="M61.0909 25.4551H56V30.546H61.0909V25.4551Z" fill="white"/>
<path d="M61.0909 45.8184H56V50.9093H61.0909V45.8184Z" fill="white"/>
<path d="M61.0909 66.1816H56V71.2725H61.0909V66.1816Z" fill="white"/>
<path d="M61.0909 81.4551H56V86.546H61.0909V81.4551Z" fill="white"/>
<path d="M61.0909 96.7285H56V101.819H61.0909V96.7285Z" fill="white"/>
<path d="M61.0909 101.818H56V106.909H61.0909V101.818Z" fill="white"/>
<path d="M61.0909 106.909H56V112H61.0909V106.909Z" fill="white"/>
<path d="M61.0909 112H56V117.091H61.0909V112Z" fill="white"/>
<path d="M61.0909 117.091H56V122.182H61.0909V117.091Z" fill="white"/>
<path d="M61.0909 122.182H56V127.273H61.0909V122.182Z" fill="white"/>
<path d="M61.0909 127.271H56V132.362H61.0909V127.271Z" fill="white"/>
<path d="M61.0909 132.362H56V137.453H61.0909V132.362Z" fill="white"/>
<path d="M61.0909 137.455H56V142.546H61.0909V137.455Z" fill="white"/>
<path d="M61.0909 152.729H56V157.819H61.0909V152.729Z" fill="white"/>
<path d="M66.1818 0H61.0909V5.09091H66.1818V0Z" fill="white"/>
<path d="M66.1818 5.09082H61.0909V10.1817H66.1818V5.09082Z" fill="white"/>
<path d="M66.1818 10.1826H61.0909V15.2735H66.1818V10.1826Z" fill="white"/>
<path d="M66.1818 30.5449H61.0909V35.6358H66.1818V30.5449Z" fill="white"/>
<path d="M66.1818 35.6377H61.0909V40.7286H66.1818V35.6377Z" fill="white"/>
<path d="M66.1818 61.0908H61.0909V66.1817H66.1818V61.0908Z" fill="white"/>
<path d="M66.1818 66.1816H61.0909V71.2725H66.1818V66.1816Z" fill="white"/>
<path d="M66.1818 71.2715H61.0909V76.3624H66.1818V71.2715Z" fill="white"/>
<path d="M66.1818 76.3643H61.0909V81.4552H66.1818V76.3643Z" fill="white"/>
<path d="M66.1818 101.818H61.0909V106.909H66.1818V101.818Z" fill="white"/>
<path d="M66.1818 106.909H61.0909V112H66.1818V106.909Z" fill="white"/>
<path d="M66.1818 112H61.0909V117.091H66.1818V112Z" fill="white"/>
<path d="M66.1818 117.091H61.0909V122.182H66.1818V117.091Z" fill="white"/>
<path d="M66.1818 142.545H61.0909V147.636H66.1818V142.545Z" fill="white"/>
<path d="M66.1818 147.636H61.0909V152.727H66.1818V147.636Z" fill="white"/>
<path d="M66.1818 152.729H61.0909V157.819H66.1818V152.729Z" fill="white"/>
<path d="M66.1818 157.817H61.0909V162.908H66.1818V157.817Z" fill="white"/>
<path d="M71.2727 0H66.1818V5.09091H71.2727V0Z" fill="white"/>
<path d="M71.2727 25.4551H66.1818V30.546H71.2727V25.4551Z" fill="white"/>
<path d="M71.2727 40.7285H66.1818V45.8194H71.2727V40.7285Z" fill="white"/>
<path d="M71.2727 56H66.1818V61.0909H71.2727V56Z" fill="white"/>
<path d="M71.2727 61.0908H66.1818V66.1817H71.2727V61.0908Z" fill="white"/>
<path d="M71.2727 76.3643H66.1818V81.4552H71.2727V76.3643Z" fill="white"/>
<path d="M71.2727 81.4551H66.1818V86.546H71.2727V81.4551Z" fill="white"/>
<path d="M71.2727 91.6357H66.1818V96.7267H71.2727V91.6357Z" fill="white"/>
<path d="M71.2727 96.7285H66.1818V101.819H71.2727V96.7285Z" fill="white"/>
<path d="M71.2727 106.909H66.1818V112H71.2727V106.909Z" fill="white"/>
<path d="M71.2727 112H66.1818V117.091H71.2727V112Z" fill="white"/>
<path d="M71.2727 117.091H66.1818V122.182H71.2727V117.091Z" fill="white"/>
<path d="M71.2727 127.271H66.1818V132.362H71.2727V127.271Z" fill="white"/>
<path d="M71.2727 132.362H66.1818V137.453H71.2727V132.362Z" fill="white"/>
<path d="M71.2727 142.545H66.1818V147.636H71.2727V142.545Z" fill="white"/>
<path d="M71.2727 147.636H66.1818V152.727H71.2727V147.636Z" fill="white"/>
<path d="M76.3636 0H71.2727V5.09091H76.3636V0Z" fill="white"/>
<path d="M76.3636 5.09082H71.2727V10.1817H76.3636V5.09082Z" fill="white"/>
<path d="M76.3636 15.2715H71.2727V20.3624H76.3636V15.2715Z" fill="white"/>
<path d="M76.3636 20.3643H71.2727V25.4552H76.3636V20.3643Z" fill="white"/>
<path d="M76.3636 25.4551H71.2727V30.546H76.3636V25.4551Z" fill="white"/>
<path d="M76.3636 30.5449H71.2727V35.6358H76.3636V30.5449Z" fill="white"/>
<path d="M76.3636 35.6377H71.2727V40.7286H76.3636V35.6377Z" fill="white"/>
<path d="M76.3636 40.7285H71.2727V45.8194H76.3636V40.7285Z" fill="white"/>
<path d="M76.3636 56H71.2727V61.0909H76.3636V56Z" fill="white"/>
<path d="M76.3636 71.2715H71.2727V76.3624H76.3636V71.2715Z" fill="white"/>
<path d="M76.3636 76.3643H71.2727V81.4552H76.3636V76.3643Z" fill="white"/>
<path d="M76.3636 81.4551H71.2727V86.546H76.3636V81.4551Z" fill="white"/>
<path d="M76.3636 86.5449H71.2727V91.6358H76.3636V86.5449Z" fill="white"/>
<path d="M76.3636 101.818H71.2727V106.909H76.3636V101.818Z" fill="white"/>
<path d="M76.3636 112H71.2727V117.091H76.3636V112Z" fill="white"/>
<path d="M76.3636 122.182H71.2727V127.273H76.3636V122.182Z" fill="white"/>
<path d="M76.3636 127.271H71.2727V132.362H76.3636V127.271Z" fill="white"/>
<path d="M76.3636 132.362H71.2727V137.453H76.3636V132.362Z" fill="white"/>
<path d="M76.3636 147.636H71.2727V152.727H76.3636V147.636Z" fill="white"/>
<path d="M76.3636 152.729H71.2727V157.819H76.3636V152.729Z" fill="white"/>
<path d="M76.3636 157.817H71.2727V162.908H76.3636V157.817Z" fill="white"/>
<path d="M81.4546 0H76.3637V5.09091H81.4546V0Z" fill="white"/>
<path d="M81.4546 5.09082H76.3637V10.1817H81.4546V5.09082Z" fill="white"/>
<path d="M81.4546 10.1826H76.3637V15.2735H81.4546V10.1826Z" fill="white"/>
<path d="M81.4546 20.3643H76.3637V25.4552H81.4546V20.3643Z" fill="white"/>
<path d="M81.4546 25.4551H76.3637V30.546H81.4546V25.4551Z" fill="white"/>
<path d="M81.4546 40.7285H76.3637V45.8194H81.4546V40.7285Z" fill="white"/>
<path d="M81.4546 61.0908H76.3637V66.1817H81.4546V61.0908Z" fill="white"/>
<path d="M81.4546 76.3643H76.3637V81.4552H81.4546V76.3643Z" fill="white"/>
<path d="M81.4546 96.7285H76.3637V101.819H81.4546V96.7285Z" fill="white"/>
<path d="M81.4546 117.091H76.3637V122.182H81.4546V117.091Z" fill="white"/>
<path d="M81.4546 122.182H76.3637V127.273H81.4546V122.182Z" fill="white"/>
<path d="M81.4546 137.455H76.3637V142.546H81.4546V137.455Z" fill="white"/>
<path d="M81.4546 142.545H76.3637V147.636H81.4546V142.545Z" fill="white"/>
<path d="M81.4546 157.817H76.3637V162.908H81.4546V157.817Z" fill="white"/>
<path d="M86.5455 5.09082H81.4546V10.1817H86.5455V5.09082Z" fill="white"/>
<path d="M86.5455 20.3643H81.4546V25.4552H86.5455V20.3643Z" fill="white"/>
<path d="M86.5455 25.4551H81.4546V30.546H86.5455V25.4551Z" fill="white"/>
<path d="M86.5455 30.5449H81.4546V35.6358H86.5455V30.5449Z" fill="white"/>
<path d="M86.5455 40.7285H81.4546V45.8194H86.5455V40.7285Z" fill="white"/>
<path d="M86.5455 45.8184H81.4546V50.9093H86.5455V45.8184Z" fill="white"/>
<path d="M86.5455 56H81.4546V61.0909H86.5455V56Z" fill="white"/>
<path d="M86.5455 61.0908H81.4546V66.1817H86.5455V61.0908Z" fill="white"/>
<path d="M86.5455 66.1816H81.4546V71.2725H86.5455V66.1816Z" fill="white"/>
<path d="M86.5455 71.2715H81.4546V76.3624H86.5455V71.2715Z" fill="white"/>
<path d="M86.5455 76.3643H81.4546V81.4552H86.5455V76.3643Z" fill="white"/>
<path d="M86.5455 81.4551H81.4546V86.546H86.5455V81.4551Z" fill="white"/>
<path d="M86.5455 86.5449H81.4546V91.6358H86.5455V86.5449Z" fill="white"/>
<path d="M86.5455 101.818H81.4546V106.909H86.5455V101.818Z" fill="white"/>
<path d="M86.5455 106.909H81.4546V112H86.5455V106.909Z" fill="white"/>
<path d="M86.5455 117.091H81.4546V122.182H86.5455V117.091Z" fill="white"/>
<path d="M86.5455 122.182H81.4546V127.273H86.5455V122.182Z" fill="white"/>
<path d="M86.5455 132.362H81.4546V137.453H86.5455V132.362Z" fill="white"/>
<path d="M86.5455 137.455H81.4546V142.546H86.5455V137.455Z" fill="white"/>
<path d="M86.5455 147.636H81.4546V152.727H86.5455V147.636Z" fill="white"/>
<path d="M86.5455 157.817H81.4546V162.908H86.5455V157.817Z" fill="white"/>
<path d="M86.5455 162.909H81.4546V168H86.5455V162.909Z" fill="white"/>
<path d="M91.6364 0H86.5455V5.09091H91.6364V0Z" fill="white"/>
<path d="M91.6364 5.09082H86.5455V10.1817H91.6364V5.09082Z" fill="white"/>
<path d="M91.6364 10.1826H86.5455V15.2735H91.6364V10.1826Z" fill="white"/>
<path d="M91.6364 35.6377H86.5455V40.7286H91.6364V35.6377Z" fill="white"/>
<path d="M91.6364 61.0908H86.5455V66.1817H91.6364V61.0908Z" fill="white"/>
<path d="M91.6364 66.1816H86.5455V71.2725H91.6364V66.1816Z" fill="white"/>
<path d="M91.6364 76.3643H86.5455V81.4552H91.6364V76.3643Z" fill="white"/>
<path d="M91.6364 81.4551H86.5455V86.546H91.6364V81.4551Z" fill="white"/>
<path d="M91.6364 86.5449H86.5455V91.6358H91.6364V86.5449Z" fill="white"/>
<path d="M91.6364 91.6357H86.5455V96.7267H91.6364V91.6357Z" fill="white"/>
<path d="M91.6364 96.7285H86.5455V101.819H91.6364V96.7285Z" fill="white"/>
<path d="M91.6364 122.182H86.5455V127.273H91.6364V122.182Z" fill="white"/>
<path d="M91.6364 137.455H86.5455V142.546H91.6364V137.455Z" fill="white"/>
<path d="M91.6364 142.545H86.5455V147.636H91.6364V142.545Z" fill="white"/>
<path d="M91.6364 152.729H86.5455V157.819H91.6364V152.729Z" fill="white"/>
<path d="M91.6364 157.817H86.5455V162.908H91.6364V157.817Z" fill="white"/>
<path d="M96.7272 0H91.6363V5.09091H96.7272V0Z" fill="white"/>
<path d="M96.7272 15.2715H91.6363V20.3624H96.7272V15.2715Z" fill="white"/>
<path d="M96.7272 20.3643H91.6363V25.4552H96.7272V20.3643Z" fill="white"/>
<path d="M96.7272 25.4551H91.6363V30.546H96.7272V25.4551Z" fill="white"/>
<path d="M96.7272 30.5449H91.6363V35.6358H96.7272V30.5449Z" fill="white"/>
<path d="M96.7272 40.7285H91.6363V45.8194H96.7272V40.7285Z" fill="white"/>
<path d="M96.7272 45.8184H91.6363V50.9093H96.7272V45.8184Z" fill="white"/>
<path d="M96.7272 56H91.6363V61.0909H96.7272V56Z" fill="white"/>
<path d="M96.7272 71.2715H91.6363V76.3624H96.7272V71.2715Z" fill="white"/>
<path d="M96.7272 76.3643H91.6363V81.4552H96.7272V76.3643Z" fill="white"/>
<path d="M96.7272 96.7285H91.6363V101.819H96.7272V96.7285Z" fill="white"/>
<path d="M96.7272 117.091H91.6363V122.182H96.7272V117.091Z" fill="white"/>
<path d="M96.7272 122.182H91.6363V127.273H96.7272V122.182Z" fill="white"/>
<path d="M96.7272 147.636H91.6363V152.727H96.7272V147.636Z" fill="white"/>
<path d="M96.7272 157.817H91.6363V162.908H96.7272V157.817Z" fill="white"/>
<path d="M101.818 0H96.7272V5.09091H101.818V0Z" fill="white"/>
<path d="M101.818 10.1826H96.7272V15.2735H101.818V10.1826Z" fill="white"/>
<path d="M101.818 25.4551H96.7272V30.546H101.818V25.4551Z" fill="white"/>
<path d="M101.818 35.6377H96.7272V40.7286H101.818V35.6377Z" fill="white"/>
<path d="M101.818 50.9092H96.7272V56.0001H101.818V50.9092Z" fill="white"/>
<path d="M101.818 56H96.7272V61.0909H101.818V56Z" fill="white"/>
<path d="M101.818 61.0908H96.7272V66.1817H101.818V61.0908Z" fill="white"/>
<path d="M101.818 66.1816H96.7272V71.2725H101.818V66.1816Z" fill="white"/>
<path d="M101.818 76.3643H96.7272V81.4552H101.818V76.3643Z" fill="white"/>
<path d="M101.818 112H96.7272V117.091H101.818V112Z" fill="white"/>
<path d="M101.818 117.091H96.7272V122.182H101.818V117.091Z" fill="white"/>
<path d="M101.818 127.271H96.7272V132.362H101.818V127.271Z" fill="white"/>
<path d="M101.818 137.455H96.7272V142.546H101.818V137.455Z" fill="white"/>
<path d="M101.818 142.545H96.7272V147.636H101.818V142.545Z" fill="white"/>
<path d="M106.909 5.09082H101.818V10.1817H106.909V5.09082Z" fill="white"/>
<path d="M106.909 10.1826H101.818V15.2735H106.909V10.1826Z" fill="white"/>
<path d="M106.909 15.2715H101.818V20.3624H106.909V15.2715Z" fill="white"/>
<path d="M106.909 20.3643H101.818V25.4552H106.909V20.3643Z" fill="white"/>
<path d="M106.909 30.5449H101.818V35.6358H106.909V30.5449Z" fill="white"/>
<path d="M106.909 40.7285H101.818V45.8194H106.909V40.7285Z" fill="white"/>
<path d="M106.909 45.8184H101.818V50.9093H106.909V45.8184Z" fill="white"/>
<path d="M106.909 50.9092H101.818V56.0001H106.909V50.9092Z" fill="white"/>
<path d="M106.909 61.0908H101.818V66.1817H106.909V61.0908Z" fill="white"/>
<path d="M106.909 66.1816H101.818V71.2725H106.909V66.1816Z" fill="white"/>
<path d="M106.909 71.2715H101.818V76.3624H106.909V71.2715Z" fill="white"/>
<path d="M106.909 81.4551H101.818V86.546H106.909V81.4551Z" fill="white"/>
<path d="M106.909 106.909H101.818V112H106.909V106.909Z" fill="white"/>
<path d="M106.909 112H101.818V117.091H106.909V112Z" fill="white"/>
<path d="M106.909 127.271H101.818V132.362H106.909V127.271Z" fill="white"/>
<path d="M106.909 132.362H101.818V137.453H106.909V132.362Z" fill="white"/>
<path d="M106.909 137.455H101.818V142.546H106.909V137.455Z" fill="white"/>
<path d="M106.909 142.545H101.818V147.636H106.909V142.545Z" fill="white"/>
<path d="M106.909 152.729H101.818V157.819H106.909V152.729Z" fill="white"/>
<path d="M106.909 157.817H101.818V162.908H106.909V157.817Z" fill="white"/>
<path d="M112 25.4551H106.909V30.546H112V25.4551Z" fill="white"/>
<path d="M112 35.6377H106.909V40.7286H112V35.6377Z" fill="white"/>
<path d="M112 40.7285H106.909V45.8194H112V40.7285Z" fill="white"/>
<path d="M112 50.9092H106.909V56.0001H112V50.9092Z" fill="white"/>
<path d="M112 56H106.909V61.0909H112V56Z" fill="white"/>
<path d="M112 61.0908H106.909V66.1817H112V61.0908Z" fill="white"/>
<path d="M112 66.1816H106.909V71.2725H112V66.1816Z" fill="white"/>
<path d="M112 76.3643H106.909V81.4552H112V76.3643Z" fill="white"/>
<path d="M112 81.4551H106.909V86.546H112V81.4551Z" fill="white"/>
<path d="M112 86.5449H106.909V91.6358H112V86.5449Z" fill="white"/>
<path d="M112 96.7285H106.909V101.819H112V96.7285Z" fill="white"/>
<path d="M112 101.818H106.909V106.909H112V101.818Z" fill="white"/>
<path d="M112 106.909H106.909V112H112V106.909Z" fill="white"/>
<path d="M112 117.091H106.909V122.182H112V117.091Z" fill="white"/>
<path d="M112 122.182H106.909V127.273H112V122.182Z" fill="white"/>
<path d="M112 127.271H106.909V132.362H112V127.271Z" fill="white"/>
<path d="M112 132.362H106.909V137.453H112V132.362Z" fill="white"/>
<path d="M112 137.455H106.909V142.546H112V137.455Z" fill="white"/>
<path d="M112 142.545H106.909V147.636H112V142.545Z" fill="white"/>
<path d="M112 152.729H106.909V157.819H112V152.729Z" fill="white"/>
<path d="M112 157.817H106.909V162.908H112V157.817Z" fill="white"/>
<path d="M112 162.909H106.909V168H112V162.909Z" fill="white"/>
<path d="M117.091 5.09082H112V10.1817H117.091V5.09082Z" fill="white"/>
<path d="M117.091 10.1826H112V15.2735H117.091V10.1826Z" fill="white"/>
<path d="M117.091 15.2715H112V20.3624H117.091V15.2715Z" fill="white"/>
<path d="M117.091 25.4551H112V30.546H117.091V25.4551Z" fill="white"/>
<path d="M117.091 30.5449H112V35.6358H117.091V30.5449Z" fill="white"/>
<path d="M117.091 40.7285H112V45.8194H117.091V40.7285Z" fill="white"/>
<path d="M117.091 50.9092H112V56.0001H117.091V50.9092Z" fill="white"/>
<path d="M117.091 56H112V61.0909H117.091V56Z" fill="white"/>
<path d="M117.091 66.1816H112V71.2725H117.091V66.1816Z" fill="white"/>
<path d="M117.091 71.2715H112V76.3624H117.091V71.2715Z" fill="white"/>
<path d="M117.091 76.3643H112V81.4552H117.091V76.3643Z" fill="white"/>
<path d="M117.091 81.4551H112V86.546H117.091V81.4551Z" fill="white"/>
<path d="M117.091 86.5449H112V91.6358H117.091V86.5449Z" fill="white"/>
<path d="M117.091 91.6357H112V96.7267H117.091V91.6357Z" fill="white"/>
<path d="M117.091 96.7285H112V101.819H117.091V96.7285Z" fill="white"/>
<path d="M117.091 106.909H112V112H117.091V106.909Z" fill="white"/>
<path d="M117.091 132.362H112V137.453H117.091V132.362Z" fill="white"/>
<path d="M117.091 137.455H112V142.546H117.091V137.455Z" fill="white"/>
<path d="M122.182 0H117.091V5.09091H122.182V0Z" fill="white"/>
<path d="M122.182 5.09082H117.091V10.1817H122.182V5.09082Z" fill="white"/>
<path d="M122.182 20.3643H117.091V25.4552H122.182V20.3643Z" fill="white"/>
<path d="M122.182 35.6377H117.091V40.7286H122.182V35.6377Z" fill="white"/>
<path d="M122.182 40.7285H117.091V45.8194H122.182V40.7285Z" fill="white"/>
<path d="M122.182 56H117.091V61.0909H122.182V56Z" fill="white"/>
<path d="M122.182 71.2715H117.091V76.3624H122.182V71.2715Z" fill="white"/>
<path d="M122.182 81.4551H117.091V86.546H122.182V81.4551Z" fill="white"/>
<path d="M122.182 86.5449H117.091V91.6358H122.182V86.5449Z" fill="white"/>
<path d="M122.182 96.7285H117.091V101.819H122.182V96.7285Z" fill="white"/>
<path d="M122.182 117.091H117.091V122.182H122.182V117.091Z" fill="white"/>
<path d="M122.182 122.182H117.091V127.273H122.182V122.182Z" fill="white"/>
<path d="M122.182 127.271H117.091V132.362H122.182V127.271Z" fill="white"/>
<path d="M122.182 147.636H117.091V152.727H122.182V147.636Z" fill="white"/>
<path d="M122.182 157.817H117.091V162.908H122.182V157.817Z" fill="white"/>
<path d="M127.273 5.09082H122.182V10.1817H127.273V5.09082Z" fill="white"/>
<path d="M127.273 30.5449H122.182V35.6358H127.273V30.5449Z" fill="white"/>
<path d="M127.273 35.6377H122.182V40.7286H127.273V35.6377Z" fill="white"/>
<path d="M127.273 45.8184H122.182V50.9093H127.273V45.8184Z" fill="white"/>
<path d="M127.273 66.1816H122.182V71.2725H127.273V66.1816Z" fill="white"/>
<path d="M127.273 76.3643H122.182V81.4552H127.273V76.3643Z" fill="white"/>
<path d="M127.273 81.4551H122.182V86.546H127.273V81.4551Z" fill="white"/>
<path d="M127.273 96.7285H122.182V101.819H127.273V96.7285Z" fill="white"/>
<path d="M127.273 101.818H122.182V106.909H127.273V101.818Z" fill="white"/>
<path d="M127.273 106.909H122.182V112H127.273V106.909Z" fill="white"/>
<path d="M127.273 117.091H122.182V122.182H127.273V117.091Z" fill="white"/>
<path d="M127.273 122.182H122.182V127.273H127.273V122.182Z" fill="white"/>
<path d="M127.273 127.271H122.182V132.362H127.273V127.271Z" fill="white"/>
<path d="M127.273 132.362H122.182V137.453H127.273V132.362Z" fill="white"/>
<path d="M127.273 137.455H122.182V142.546H127.273V137.455Z" fill="white"/>
<path d="M127.273 142.545H122.182V147.636H127.273V142.545Z" fill="white"/>
<path d="M127.273 147.636H122.182V152.727H127.273V147.636Z" fill="white"/>
<path d="M127.273 152.729H122.182V157.819H127.273V152.729Z" fill="white"/>
<path d="M127.273 157.817H122.182V162.908H127.273V157.817Z" fill="white"/>
<path d="M127.273 162.909H122.182V168H127.273V162.909Z" fill="white"/>
<path d="M132.364 45.8184H127.273V50.9093H132.364V45.8184Z" fill="white"/>
<path d="M132.364 61.0908H127.273V66.1817H132.364V61.0908Z" fill="white"/>
<path d="M132.364 71.2715H127.273V76.3624H132.364V71.2715Z" fill="white"/>
<path d="M132.364 86.5449H127.273V91.6358H132.364V86.5449Z" fill="white"/>
<path d="M132.364 91.6357H127.273V96.7267H132.364V91.6357Z" fill="white"/>
<path d="M132.364 101.818H127.273V106.909H132.364V101.818Z" fill="white"/>
<path d="M132.364 106.909H127.273V112H132.364V106.909Z" fill="white"/>
<path d="M132.364 122.182H127.273V127.273H132.364V122.182Z" fill="white"/>
<path d="M132.364 142.545H127.273V147.636H132.364V142.545Z" fill="white"/>
<path d="M132.364 147.636H127.273V152.727H132.364V147.636Z" fill="white"/>
<path d="M132.364 157.817H127.273V162.908H132.364V157.817Z" fill="white"/>
<path d="M137.454 0H132.364V5.09091H137.454V0Z" fill="white"/>
<path d="M137.454 5.09082H132.364V10.1817H137.454V5.09082Z" fill="white"/>
<path d="M137.454 10.1826H132.364V15.2735H137.454V10.1826Z" fill="white"/>
<path d="M137.454 15.2715H132.364V20.3624H137.454V15.2715Z" fill="white"/>
<path d="M137.454 20.3643H132.364V25.4552H137.454V20.3643Z" fill="white"/>
<path d="M137.454 25.4551H132.364V30.546H137.454V25.4551Z" fill="white"/>
<path d="M137.454 30.5449H132.364V35.6358H137.454V30.5449Z" fill="white"/>
<path d="M137.454 40.7285H132.364V45.8194H137.454V40.7285Z" fill="white"/>
<path d="M137.454 45.8184H132.364V50.9093H137.454V45.8184Z" fill="white"/>
<path d="M137.454 61.0908H132.364V66.1817H137.454V61.0908Z" fill="white"/>
<path d="M137.454 66.1816H132.364V71.2725H137.454V66.1816Z" fill="white"/>
<path d="M137.454 76.3643H132.364V81.4552H137.454V76.3643Z" fill="white"/>
<path d="M137.454 81.4551H132.364V86.546H137.454V81.4551Z" fill="white"/>
<path d="M137.454 106.909H132.364V112H137.454V106.909Z" fill="white"/>
<path d="M137.454 112H132.364V117.091H137.454V112Z" fill="white"/>
<path d="M137.454 117.091H132.364V122.182H137.454V117.091Z" fill="white"/>
<path d="M137.454 122.182H132.364V127.273H137.454V122.182Z" fill="white"/>
<path d="M137.454 132.362H132.364V137.453H137.454V132.362Z" fill="white"/>
<path d="M137.454 142.545H132.364V147.636H137.454V142.545Z" fill="white"/>
<path d="M137.454 147.636H132.364V152.727H137.454V147.636Z" fill="white"/>
<path d="M137.454 157.817H132.364V162.908H137.454V157.817Z" fill="white"/>
<path d="M137.454 162.909H132.364V168H137.454V162.909Z" fill="white"/>
<path d="M142.546 0H137.455V5.09091H142.546V0Z" fill="white"/>
<path d="M142.546 30.5449H137.455V35.6358H142.546V30.5449Z" fill="white"/>
<path d="M142.546 40.7285H137.455V45.8194H142.546V40.7285Z" fill="white"/>
<path d="M142.546 50.9092H137.455V56.0001H142.546V50.9092Z" fill="white"/>
<path d="M142.546 71.2715H137.455V76.3624H142.546V71.2715Z" fill="white"/>
<path d="M142.546 106.909H137.455V112H142.546V106.909Z" fill="white"/>
<path d="M142.546 112H137.455V117.091H142.546V112Z" fill="white"/>
<path d="M142.546 117.091H137.455V122.182H142.546V117.091Z" fill="white"/>
<path d="M142.546 122.182H137.455V127.273H142.546V122.182Z" fill="white"/>
<path d="M142.546 142.545H137.455V147.636H142.546V142.545Z" fill="white"/>
<path d="M142.546 152.729H137.455V157.819H142.546V152.729Z" fill="white"/>
<path d="M147.636 0H142.546V5.09091H147.636V0Z" fill="white"/>
<path d="M147.636 10.1826H142.546V15.2735H147.636V10.1826Z" fill="white"/>
<path d="M147.636 15.2715H142.546V20.3624H147.636V15.2715Z" fill="white"/>
<path d="M147.636 20.3643H142.546V25.4552H147.636V20.3643Z" fill="white"/>
<path d="M147.636 30.5449H142.546V35.6358H147.636V30.5449Z" fill="white"/>
<path d="M147.636 40.7285H142.546V45.8194H147.636V40.7285Z" fill="white"/>
<path d="M147.636 50.9092H142.546V56.0001H147.636V50.9092Z" fill="white"/>
<path d="M147.636 56H142.546V61.0909H147.636V56Z" fill="white"/>
<path d="M147.636 66.1816H142.546V71.2725H147.636V66.1816Z" fill="white"/>
<path d="M147.636 81.4551H142.546V86.546H147.636V81.4551Z" fill="white"/>
<path d="M147.636 117.091H142.546V122.182H147.636V117.091Z" fill="white"/>
<path d="M147.636 122.182H142.546V127.273H147.636V122.182Z" fill="white"/>
<path d="M147.636 127.271H142.546V132.362H147.636V127.271Z" fill="white"/>
<path d="M147.636 132.362H142.546V137.453H147.636V132.362Z" fill="white"/>
<path d="M147.636 137.455H142.546V142.546H147.636V137.455Z" fill="white"/>
<path d="M147.636 142.545H142.546V147.636H147.636V142.545Z" fill="white"/>
<path d="M147.636 147.636H142.546V152.727H147.636V147.636Z" fill="white"/>
<path d="M147.636 152.729H142.546V157.819H147.636V152.729Z" fill="white"/>
<path d="M147.636 157.817H142.546V162.908H147.636V157.817Z" fill="white"/>
<path d="M147.636 162.909H142.546V168H147.636V162.909Z" fill="white"/>
<path d="M152.727 0H147.636V5.09091H152.727V0Z" fill="white"/>
<path d="M152.727 10.1826H147.636V15.2735H152.727V10.1826Z" fill="white"/>
<path d="M152.727 15.2715H147.636V20.3624H152.727V15.2715Z" fill="white"/>
<path d="M152.727 20.3643H147.636V25.4552H152.727V20.3643Z" fill="white"/>
<path d="M152.727 30.5449H147.636V35.6358H152.727V30.5449Z" fill="white"/>
<path d="M152.727 45.8184H147.636V50.9093H152.727V45.8184Z" fill="white"/>
<path d="M152.727 50.9092H147.636V56.0001H152.727V50.9092Z" fill="white"/>
<path d="M152.727 61.0908H147.636V66.1817H152.727V61.0908Z" fill="white"/>
<path d="M152.727 66.1816H147.636V71.2725H152.727V66.1816Z" fill="white"/>
<path d="M152.727 71.2715H147.636V76.3624H152.727V71.2715Z" fill="white"/>
<path d="M152.727 76.3643H147.636V81.4552H152.727V76.3643Z" fill="white"/>
<path d="M152.727 86.5449H147.636V91.6358H152.727V86.5449Z" fill="white"/>
<path d="M152.727 91.6357H147.636V96.7267H152.727V91.6357Z" fill="white"/>
<path d="M152.727 96.7285H147.636V101.819H152.727V96.7285Z" fill="white"/>
<path d="M152.727 101.818H147.636V106.909H152.727V101.818Z" fill="white"/>
<path d="M152.727 112H147.636V117.091H152.727V112Z" fill="white"/>
<path d="M152.727 117.091H147.636V122.182H152.727V117.091Z" fill="white"/>
<path d="M152.727 122.182H147.636V127.273H152.727V122.182Z" fill="white"/>
<path d="M152.727 127.271H147.636V132.362H152.727V127.271Z" fill="white"/>
<path d="M152.727 132.362H147.636V137.453H152.727V132.362Z" fill="white"/>
<path d="M152.727 147.636H147.636V152.727H152.727V147.636Z" fill="white"/>
<path d="M152.727 162.909H147.636V168H152.727V162.909Z" fill="white"/>
<path d="M157.818 0H152.727V5.09091H157.818V0Z" fill="white"/>
<path d="M157.818 10.1826H152.727V15.2735H157.818V10.1826Z" fill="white"/>
<path d="M157.818 15.2715H152.727V20.3624H157.818V15.2715Z" fill="white"/>
<path d="M157.818 20.3643H152.727V25.4552H157.818V20.3643Z" fill="white"/>
<path d="M157.818 30.5449H152.727V35.6358H157.818V30.5449Z" fill="white"/>
<path d="M157.818 40.7285H152.727V45.8194H157.818V40.7285Z" fill="white"/>
<path d="M157.818 66.1816H152.727V71.2725H157.818V66.1816Z" fill="white"/>
<path d="M157.818 86.5449H152.727V91.6358H157.818V86.5449Z" fill="white"/>
<path d="M157.818 106.909H152.727V112H157.818V106.909Z" fill="white"/>
<path d="M157.818 132.362H152.727V137.453H157.818V132.362Z" fill="white"/>
<path d="M157.818 147.636H152.727V152.727H157.818V147.636Z" fill="white"/>
<path d="M157.818 152.729H152.727V157.819H157.818V152.729Z" fill="white"/>
<path d="M162.909 0H157.818V5.09091H162.909V0Z" fill="white"/>
<path d="M162.909 30.5449H157.818V35.6358H162.909V30.5449Z" fill="white"/>
<path d="M162.909 40.7285H157.818V45.8194H162.909V40.7285Z" fill="white"/>
<path d="M162.909 56H157.818V61.0909H162.909V56Z" fill="white"/>
<path d="M162.909 66.1816H157.818V71.2725H162.909V66.1816Z" fill="white"/>
<path d="M162.909 71.2715H157.818V76.3624H162.909V71.2715Z" fill="white"/>
<path d="M162.909 76.3643H157.818V81.4552H162.909V76.3643Z" fill="white"/>
<path d="M162.909 91.6357H157.818V96.7267H162.909V91.6357Z" fill="white"/>
<path d="M162.909 101.818H157.818V106.909H162.909V101.818Z" fill="white"/>
<path d="M162.909 117.091H157.818V122.182H162.909V117.091Z" fill="white"/>
<path d="M162.909 132.362H157.818V137.453H162.909V132.362Z" fill="white"/>
<path d="M162.909 162.909H157.818V168H162.909V162.909Z" fill="white"/>
<path d="M168 0H162.909V5.09091H168V0Z" fill="white"/>
<path d="M168 5.09082H162.909V10.1817H168V5.09082Z" fill="white"/>
<path d="M168 10.1826H162.909V15.2735H168V10.1826Z" fill="white"/>
<path d="M168 15.2715H162.909V20.3624H168V15.2715Z" fill="white"/>
<path d="M168 20.3643H162.909V25.4552H168V20.3643Z" fill="white"/>
<path d="M168 25.4551H162.909V30.546H168V25.4551Z" fill="white"/>
<path d="M168 30.5449H162.909V35.6358H168V30.5449Z" fill="white"/>
<path d="M168 45.8184H162.909V50.9093H168V45.8184Z" fill="white"/>
<path d="M168 50.9092H162.909V56.0001H168V50.9092Z" fill="white"/>
<path d="M168 56H162.909V61.0909H168V56Z" fill="white"/>
<path d="M168 61.0908H162.909V66.1817H168V61.0908Z" fill="white"/>
<path d="M168 66.1816H162.909V71.2725H168V66.1816Z" fill="white"/>
<path d="M168 81.4551H162.909V86.546H168V81.4551Z" fill="white"/>
<path d="M168 91.6357H162.909V96.7267H168V91.6357Z" fill="white"/>
<path d="M168 106.909H162.909V112H168V106.909Z" fill="white"/>
<path d="M168 112H162.909V117.091H168V112Z" fill="white"/>
<path d="M168 117.091H162.909V122.182H168V117.091Z" fill="white"/>
<path d="M168 127.271H162.909V132.362H168V127.271Z" fill="white"/>
<path d="M168 137.455H162.909V142.546H168V137.455Z" fill="white"/>
<path d="M168 152.729H162.909V157.819H168V152.729Z" fill="white"/>
</svg>
