<svg width="24" height="24" viewBox="0 0 24 24" fill="none" xmlns="http://www.w3.org/2000/svg">
<path d="M9.21399 5.57686L9.61268 6.49394C9.82795 6.40036 10.0034 6.23402 10.1084 6.02407L9.21399 5.57686ZM10.5024 3V2C10.1236 2 9.77738 2.214 9.60799 2.55279L10.5024 3ZM7.83423 6.37513L7.77432 7.37334C8.00913 7.38743 8.24139 7.3183 8.43027 7.17809L7.83423 6.37513ZM4.95803 6.2025L5.01794 5.20429C4.63985 5.1816 4.28139 5.37447 4.092 5.7025L4.95803 6.2025ZM3.45803 8.80057L2.592 8.30057C2.40262 8.6286 2.41482 9.03547 2.62352 9.35156L3.45803 8.80057ZM5.0467 11.2067L6.04041 11.3187C6.06665 11.0859 6.01031 10.8513 5.88121 10.6557L5.0467 11.2067ZM5.04703 12.7952L5.88155 13.3462C6.01072 13.1505 6.06705 12.9157 6.04069 12.6828L5.04703 12.7952ZM3.45801 15.2019L2.6235 14.6509C2.4148 14.967 2.4026 15.3739 2.59198 15.7019L3.45801 15.2019ZM4.95801 17.8L4.09198 18.3C4.28137 18.628 4.63983 18.8209 5.01792 18.7982L4.95801 17.8ZM7.83859 17.6271L8.434 16.8237C8.24522 16.6838 8.01321 16.6148 7.77867 16.6289L7.83859 17.6271ZM9.21333 18.4218L10.1078 17.9746C10.0028 17.7647 9.82735 17.5984 9.61212 17.5048L9.21333 18.4218ZM10.5024 21L9.60799 21.4472C9.77738 21.786 10.1236 22 10.5024 22V21ZM13.5024 21V22C13.8812 22 14.2275 21.786 14.3968 21.4472L13.5024 21ZM14.7916 18.4217L14.3927 17.5047C14.1775 17.5983 14.0021 17.7646 13.8971 17.9745L14.7916 18.4217ZM16.166 17.6271L16.2259 16.6289C15.9914 16.6148 15.7594 16.6838 15.5706 16.8237L16.166 17.6271ZM19.0464 17.8L18.9865 18.7982C19.3646 18.8209 19.7231 18.628 19.9125 18.3L19.0464 17.8ZM20.5464 15.2019L21.4125 15.7019C21.6018 15.3739 21.5896 14.967 21.3809 14.6509L20.5464 15.2019ZM18.9576 12.7954L17.9639 12.683C17.9375 12.9159 17.9939 13.1508 18.123 13.3464L18.9576 12.7954ZM18.9579 11.2065L18.1234 10.6555C17.9943 10.851 17.9379 11.0857 17.9642 11.3185L18.9579 11.2065ZM20.5464 8.80057L21.3809 9.35156C21.5896 9.03547 21.6018 8.6286 21.4124 8.30057L20.5464 8.80057ZM19.0464 6.2025L19.9124 5.7025C19.723 5.37447 19.3646 5.1816 18.9865 5.20429L19.0464 6.2025ZM16.1704 6.37512L15.5743 7.17809C15.7632 7.31829 15.9955 7.38742 16.2303 7.37333L16.1704 6.37512ZM14.7909 5.57698L13.8965 6.0242C14.0014 6.23413 14.1769 6.40046 14.3922 6.49405L14.7909 5.57698ZM13.5024 3L14.3968 2.55279C14.2275 2.214 13.8812 2 13.5024 2V3ZM10.1084 6.02407L11.3968 3.44721L9.60799 2.55279L8.31956 5.12964L10.1084 6.02407ZM8.43027 7.17809C8.79515 6.90724 9.19153 6.67704 9.61268 6.49394L8.81529 4.65977C8.25277 4.90433 7.72416 5.21145 7.2382 5.57217L8.43027 7.17809ZM4.89811 7.2007L7.77432 7.37334L7.89415 5.37693L5.01794 5.20429L4.89811 7.2007ZM4.32405 9.30057L5.82405 6.7025L4.092 5.7025L2.592 8.30057L4.32405 9.30057ZM5.88121 10.6557L4.29254 8.24958L2.62352 9.35156L4.21219 11.7577L5.88121 10.6557ZM6.0023 11.9995C6.0023 11.7689 6.01526 11.5418 6.04041 11.3187L4.05299 11.0947C4.01948 11.392 4.0023 11.6939 4.0023 11.9995H6.0023ZM6.04069 12.6828C6.01536 12.4589 6.0023 12.2309 6.0023 11.9995H4.0023C4.0023 12.3062 4.01961 12.6092 4.05337 12.9076L6.04069 12.6828ZM4.29252 15.7529L5.88155 13.3462L4.21252 12.2442L2.6235 14.6509L4.29252 15.7529ZM5.82403 17.3L4.32403 14.7019L2.59198 15.7019L4.09198 18.3L5.82403 17.3ZM7.77867 16.6289L4.89809 16.8018L5.01792 18.7982L7.8985 18.6253L7.77867 16.6289ZM9.61212 17.5048C9.19261 17.3224 8.79769 17.0932 8.434 16.8237L7.24317 18.4305C7.72755 18.7895 8.25422 19.0952 8.81455 19.3389L9.61212 17.5048ZM11.3968 20.5528L10.1078 17.9746L8.31891 18.869L9.60799 21.4472L11.3968 20.5528ZM13.5024 20H10.5024V22H13.5024V20ZM13.8971 17.9745L12.608 20.5528L14.3968 21.4472L15.686 18.8689L13.8971 17.9745ZM15.5706 16.8237C15.207 17.0931 14.8121 17.3223 14.3927 17.5047L15.1904 19.3387C15.7506 19.0951 16.2771 18.7894 16.7614 18.4305L15.5706 16.8237ZM19.1063 16.8018L16.2259 16.6289L16.1061 18.6253L18.9865 18.7982L19.1063 16.8018ZM19.6804 14.7019L18.1804 17.3L19.9125 18.3L21.4125 15.7019L19.6804 14.7019ZM18.123 13.3464L19.7119 15.7529L21.3809 14.6509L19.7921 12.2444L18.123 13.3464ZM18.0023 11.9995C18.0023 12.231 17.9892 12.459 17.9639 12.683L19.9512 12.9079C19.985 12.6094 20.0023 12.3063 20.0023 11.9995H18.0023ZM17.9642 11.3185C17.9893 11.5417 18.0023 11.7689 18.0023 11.9995H20.0023C20.0023 11.6939 19.9851 11.3919 19.9516 11.0944L17.9642 11.3185ZM19.7119 8.24958L18.1234 10.6555L19.7924 11.7575L21.3809 9.35156L19.7119 8.24958ZM18.1804 6.7025L19.6804 9.30057L21.4124 8.30057L19.9124 5.7025L18.1804 6.7025ZM16.2303 7.37333L19.1063 7.2007L18.9865 5.20429L16.1104 5.37692L16.2303 7.37333ZM14.3922 6.49405C14.8132 6.67712 15.2095 6.90729 15.5743 7.17809L16.7664 5.57216C16.2805 5.21151 15.752 4.90444 15.1896 4.65992L14.3922 6.49405ZM12.608 3.44721L13.8965 6.0242L15.6853 5.12977L14.3968 2.55279L12.608 3.44721ZM10.5024 4H13.5024V2H10.5024V4Z" fill="#79838A"/>
<circle cx="12" cy="12" r="3" stroke="#79838A" stroke-width="2"/>
</svg>
