<svg width="24" height="24" viewBox="0 0 24 24" fill="none" xmlns="http://www.w3.org/2000/svg">
<path fill-rule="evenodd" clip-rule="evenodd" d="M8.72618 1.49847C11.0379 0.777792 13.5229 0.840055 15.7956 1.6756C17.4018 2.26608 18.8385 3.21943 20 4.45015V3H22V7V8H21L17 8V6H18.7082C17.7308 4.90721 16.4957 4.06385 15.1055 3.55277C13.246 2.86914 11.2129 2.81819 9.32142 3.40784C7.43 3.99749 5.78599 5.19477 4.64437 6.814C3.50275 8.43322 2.92733 10.3839 3.00735 12.3635L1.00898 12.4443C0.91118 10.0248 1.61447 7.64061 3.00978 5.66155C4.40509 3.6825 6.41444 2.21915 8.72618 1.49847ZM11 6H13V7.17071C14.1652 7.58254 15 8.69378 15 10H13C13 9.44772 12.5523 9 12 9C11.4477 9 11 9.44772 11 10C11 10.5523 11.4477 11 12 11C13.6569 11 15 12.3431 15 14C15 15.3062 14.1652 16.4175 13 16.8293V18H11V16.8293C9.83481 16.4175 9 15.3062 9 14H11C11 14.5523 11.4477 15 12 15C12.5523 15 13 14.5523 13 14C13 13.4477 12.5523 13 12 13C10.3432 13 9 11.6569 9 10C9 8.69378 9.83481 7.58254 11 7.17071V6ZM20.7269 18.6964C22.201 16.7753 23 14.4215 23 12H21C21 13.9812 20.3463 15.9071 19.1402 17.4789C17.9341 19.0507 16.2431 20.1806 14.3294 20.6933C12.4157 21.2061 10.3863 21.0731 8.55585 20.3149C7.30064 19.795 6.18712 19.001 5.29179 18H7V16H3H2L2 17L2 21H4V19.5498C5.05858 20.6715 6.34797 21.5652 7.79049 22.1627C10.0276 23.0893 12.508 23.2519 14.847 22.6252C17.186 21.9985 19.2528 20.6175 20.7269 18.6964Z" fill="#D3DBE0"/>
</svg>
