<svg width="60" height="60" viewBox="0 0 60 60" fill="none" xmlns="http://www.w3.org/2000/svg">
<path fill-rule="evenodd" clip-rule="evenodd" d="M47.8555 11.1999C42.9516 6.49001 36.4036 3.90579 29.6227 4.00469L29.6567 6.0059C35.9107 5.91468 41.9502 8.29792 46.474 12.6427L47.8555 11.1999ZM49.3525 12.7629C49.936 13.4253 50.4855 14.1173 50.9988 14.8361L49.3741 15.9977C48.9005 15.3344 48.3935 14.6959 47.8551 14.0847L49.3525 12.7629ZM30.0001 45.2162C38.3406 45.2162 45.1212 38.4133 45.1212 29.9975C45.1212 21.5817 38.3406 14.7788 30.0001 14.7788C21.6597 14.7788 14.8791 21.5817 14.8791 29.9975C14.8791 38.4133 21.6597 45.2162 30.0001 45.2162ZM47.1213 29.9966C47.1213 30.6794 47.0818 31.353 47.0049 32.0151C47.0817 31.3533 47.1212 30.68 47.1212 29.9975C47.1212 20.4879 39.4558 12.7788 30.0001 12.7788C21.5552 12.7788 14.5382 18.9279 13.1346 27.017C14.5378 18.9275 21.555 12.7779 30.0003 12.7779C39.456 12.7779 47.1213 20.4869 47.1213 29.9966ZM10.6479 47.2323C10.0644 46.5698 9.5149 45.8778 9.00158 45.159L10.6263 43.9974C11.0999 44.6607 11.6069 45.2992 12.1453 45.9104L10.6479 47.2323ZM12.1449 48.7952C17.0488 53.5051 23.5968 56.0893 30.3777 55.9904L30.3437 53.9892C24.0897 54.0804 18.0502 51.6972 13.5264 47.3524L12.1449 48.7952ZM30.0003 10.5561C19.3245 10.5561 10.67 19.2599 10.67 29.9966C10.67 40.7332 19.3245 49.437 30.0003 49.437C40.6761 49.437 49.3305 40.7332 49.3305 29.9966C49.3305 19.2599 40.6761 10.5561 30.0003 10.5561ZM43 30C43 37.1797 37.1797 43 30 43C22.8203 43 17 37.1797 17 30C17 22.8203 22.8203 17 30 17C37.1797 17 43 22.8203 43 30ZM31 20V22C33.2091 22 35 23.791 35 26H33C33 24.8955 32.1046 24 31 24H27V26C27 27.6572 28.3431 29 30 29C32.7615 29 35 31.2383 35 34V37V38H34H31V40H29V38C26.7909 38 25 36.209 25 34H27C27 35.1045 27.8954 36 29 36H33V34C33 32.3428 31.6569 31 30 31C27.2385 31 25 28.7617 25 26V23V22H26H29V20H31ZM20 29H22V31H20V29ZM40 29H38V31H40V29Z" fill="#263845"/>
</svg>
